<?xml version="1.0" encoding="utf-8"?>
<!-- Generator: Adobe Illustrator 24.1.3, SVG Export Plug-In . SVG Version: 6.00 Build 0)  -->
<svg version="1.1" id="shadows" xmlns="http://www.w3.org/2000/svg" xmlns:xlink="http://www.w3.org/1999/xlink" x="0px" y="0px"
	 viewBox="0 0 2472.4 3681" style="enable-background:new 0 0 2472.4 3681;" xml:space="preserve">
<style type="text/css">
	.st0{display:none;fill:#FFFFFF;}
	.st1{fill:#953D75;}
	.st2{fill:#AF232E;}
	.st3{fill:#9C9808;}
	.st4{fill:#9C9708;}
	.st5{fill:#2C427C;}
	.st6{fill:#2C437C;}
</style>
<g>
	<path class="st0" d="M1268.4,3681c-146,0-292,0-438,0c2.79-15.15,1.61-30.5,2.21-45.75c0.5-12.66-0.24-13.17-12.26-15.88
		c-0.97-0.22-1.98-0.22-2.96-0.41c-20.57-3.97-41.22-7.59-61.69-12.04c-17.24-3.75-33.95-9.25-49.63-17.67
		c-7.13-3.84-12.62-8.83-14.43-16.84c-1.97-8.74-3.36-17.64-2.78-26.64c1.29-19.9,5.29-39.45,8.1-59.15
		c6.29-44.01,12.97-87.97,19.33-131.97c4.42-30.54,8.56-61.13,12.82-91.69c4.45-31.87,8.97-63.73,13.34-95.61
		c4.24-30.9,8.23-61.84,12.49-92.74c5.62-40.74,11.65-81.43,17.02-122.2c5.03-38.18,11.34-76.15,17.15-114.21
		c6.16-40.35,12.87-80.61,19.22-120.93c6.96-44.25,13.45-88.59,20.77-132.78c7.7-46.49,13.86-93.21,20.93-139.79
		c6.13-40.35,12.11-80.73,17.71-121.15c1.36-9.82,3.95-19.63,2.8-29.71c-1.13-9.89-2.37-19.76-3.53-29.64
		c-1.62-13.84-1.4-27.3,8.15-38.81c1.5-1.8,2.44-3.88,3.11-6.18c7.31-25.21,14.51-50.45,22.24-75.53c1.7-5.5-0.06-7.52-4.56-9.81
		c-18.67-9.5-37.22-19.24-55.69-29.12c-3.52-1.88-6.81-2.34-10.48-1.26c-12.94,3.81-26.2,4.33-39.57,4
		c-13.92-0.35-27.03-3.22-38.46-11.72c-7.21-5.36-14.59-10.49-21.69-15.98c-4.25-3.28-7.78-7.54-9.4-12.63
		c-2.53-7.93-7.5-13.94-13.2-19.65c-10.89-10.92-24.04-18.93-36.25-28.12c-14.21-10.7-24.57-24.15-30.86-40.75
		c-4.13-10.87-8.38-21.71-12.23-32.68c-7.11-20.26-18.59-36.59-38.76-45.93c-6.3-2.92-12.04-7.05-17.95-10.78
		c-2.81-1.77-5.58-3.68-8.06-5.89c-8.01-7.12-7.32-15.72,1.73-21.29c3.96-2.43,8.29-4.25,12.29-6.61c6.75-3.99,9.51-9.36,0.99-15.14
		c-9.16-6.2-16.35-14.46-22.45-23.77c-10.74-16.38-18.49-33.68-19.47-53.63c-0.19-3.94,0.89-5.99,3.95-8.14
		c10.07-7.08,19.84-14.58,29.88-21.7c5.51-3.91,9.08-9.09,9.84-15.6c1.69-14.57,8.49-26.27,18.64-36.47
		c3.27-3.28,5.82-7.27,8.96-10.69c3.65-3.98,6.26-8.4,8.08-13.53c24.56-69.19,49.42-138.28,72.46-208
		c11.6-35.1,24.04-69.81,42.53-101.97c22.88-39.8,46.29-79.27,67.1-120.25c9.48-18.66,22.74-34.49,43.42-42.15
		c4.66-1.73,7.99-4.88,9.31-9.7c2.07-7.53,7.2-11.58,14.42-13.65c3.5-1,6.85-2.52,10.33-3.59c14.29-4.39,28.91-7.89,42.84-13.21
		c24.91-9.51,48.04-22.75,70.98-36.27c32.43-19.11,63.36-40.48,93.94-62.39c2.68-1.92,5.81-3.54,5.53-7.61
		c-0.3-4.36,0.68-8.58,1.3-12.86c0.66-4.58-0.34-7.13-6.11-7.63c-13.24-1.14-26.3-3.83-39.2-7.14
		c-71.81-18.38-129.63-58.93-178.33-113.41c-22.6-25.29-43.13-52.37-68.05-75.64c-10.68-9.97-19.5-21.83-26.4-34.89
		c-6.32-11.96-9.73-24.39-8-38.25c1.5-12.03,4.72-23.61,9.09-34.63c5.72-14.43,1.75-25.06-9.31-34.34
		c-1.02-0.85-2.17-1.56-3.13-2.48c-8.88-8.47-14.29-18.27-12.12-31.11c0.5-2.93,0.05-6.01,0.43-8.97
		c3.76-29.32,8.43-58.51,14.56-87.41c5.9-27.85,9.17-55.53,3.59-83.93c-2.29-11.66-3.12-23.68-3.03-35.73
		c0.14-20.27,6.95-36.97,23.6-49.27c5.88-4.34,11.5-9.09,16.96-13.96c8.4-7.48,14.23-16.46,16.31-27.84
		c2.46-13.45,2.58-27.07,3.78-40.61c1.01-11.39,3.83-22.22,9.01-32.42c10.59-20.86,24.36-39.66,37.73-58.74
		c9-12.85,19.29-24.64,30.31-35.7c24.67-24.75,53.25-44.1,85.06-58.49c19.4-8.78,39.16-16.65,60.35-20.29
		c15.74-2.7,31.39-5.86,47.13-8.51c7-1.18,12.68-3.83,15.89-10.48c3.04-6.32,8.36-10.22,14.29-13.45
		c7.92-4.31,16.24-7.67,24.84-10.34c25.09-7.8,51.1-8.5,76.99-9.4c26.63-0.93,53.24,0.64,79.76,2.98
		c25.84,2.28,51.55,5.38,76.66,12.47c13.17,3.72,23.62,10.36,30.29,22.47c4.07,7.39,9.4,13.67,16.17,18.77
		c6.1,4.6,9.35,11.03,11.4,18.26c3.37,11.89,4.7,24.09,5.6,36.33c0.98,13.24,2.35,26.44,3.65,39.65
		c1.43,14.46,2.92,28.89,1.54,43.68c-1.48,15.85,0.07,31.85,9.12,46.13c5.26,8.29,11.81,11.49,21.75,9.79
		c13.59-2.32,26.29-6.98,38.85-12.31c15.27-6.47,30.98-10.76,47.52-5.97c14.67,4.25,29.14,9.26,43.6,14.21
		c4.05,1.39,7.83,3.65,11.64,5.69c10.55,5.64,16,14.57,16.96,26.43c0.53,6.61,1.14,13.22,1.98,19.8
		c2.67,20.88,6.38,41.4,19.72,58.77c3.26,4.25,4.7,9.49,5.73,14.78c2.53,13.03,5.1,26.05,7.73,39.06c3.03,15,5.8,29.99,4.3,45.44
		c-1.09,11.23-1.64,22.51-2.84,33.72c-1.88,17.51-2.3,33.84,11.96,48.07c11.09,11.06,11.53,25.65,4.51,39.91
		c-2.06,4.18-4.38,8.22-6.6,12.32c-2.07,3.81-3.95,7.64-4.42,12.08c-1.43,13.2-3.25,26.35-4.41,39.57
		c-0.8,9.06-2.38,17.64-7.68,25.33c-8.65,12.53-11.67,26.58-10.58,41.65c0.14,1.99,0.09,4-0.01,6
		c-0.62,12.49-3.31,24.38-10.84,34.69c-5.1,6.98-10.05,14.12-15.74,20.6c-8.78,10-14.97,21.08-17.28,34.26
		c-1.62,9.23-5.95,16.91-13.94,22.07c-16.85,10.87-28.25,25.72-34.36,44.9c-2,6.29-5.04,12.88-10.46,16.75
		c-14.83,10.58-28.47,23.17-46.03,29.42c-5.59,1.99-10.02,4.91-12.72,10.32c-3.29,6.58-6.87,12.84-13.78,16.6
		c-3.26,1.78-3.29,4.83-0.13,7.21c1.85,1.39,3.93,2.51,5.93,3.69c21.77,12.86,43.92,25.1,65.16,38.78
		c12.08,7.78,24.37,11.41,38.51,10.38c13.73-1,27.17,0.89,40.43,4.75c12.13,3.53,24.56,6.01,36.65,9.67
		c24.72,7.48,50.15,9.84,75.72,11.52c16.25,1.07,32.56,1.79,47.69,9.01c9.01,4.3,17.85,8.88,26.44,13.98
		c38.56,22.93,66.09,55.05,82.38,97.01c8.44,21.74,15.54,43.85,20.73,66.52c8.15,35.61,15.23,71.47,23.64,107.01
		c15.75,66.59,28.82,133.71,40.78,201.07c7.42,41.83,15.3,83.58,23.21,125.32c3.89,20.56,9.26,40.88,12.25,61.56
		c4.13,28.55,6.71,57.32,9.85,86c3,27.37,5.91,54.76,8.8,82.15c3.77,35.62,7.56,71.24,11.19,106.88c2.72,26.73,5.95,53.4,9.54,80.03
		c3.72,27.55,6.32,54.91,3.56,83.02c-4.49,45.72-11.5,90.85-23.27,135.21c-3.96,14.93-6.41,30.66-18.45,42.18
		c-1.62,1.55-2.48,3.91-3.64,5.93c-8.63,15.01-16.05,30.63-23.39,46.3c-2.24,4.79-4.93,9.41-5.85,14.78
		c-3.7,21.65-5.88,43.44-5.91,65.42c-0.01,3.34,0.33,6.59,1.11,9.87c2.91,12.33,4.12,25.01,3.93,37.55
		c-0.23,14.9-2.23,29.79-3.79,44.64c-0.87,8.32-4.55,15.25-12.15,19.52c-4.63,2.6-9.3,5.16-14.04,7.55
		c-2.16,1.08-4.27,2.07-4.76,4.67c-2.71,14.45-10.15,28.6-2.97,43.72c17.67,82.13,35.26,164.29,53.04,246.4
		c15.67,72.38,32.38,144.54,46.58,217.22c15.16,77.59,32.33,154.8,45.44,232.79c9.07,53.94,18.05,107.9,27.12,161.84
		c7.81,46.46,15.57,92.93,23.68,139.34c1.07,6.1,0.72,11.16-3.5,15.74c-206,0-412,0-618,0c0.85-6.06-1.1-11.87-1.85-17.75
		c-4-31.58-8.43-63.11-12.35-94.7c-0.65-5.27-3.36-6.01-7.34-5.38c-6.63,1.04-13.28,1.08-19.92,0.75
		c-26.99-1.33-53.41-6.46-79.75-12.1c-29.58-6.33-59-13.47-88.94-18.02c-9.85-1.5-19.76-3.15-29.73-1.17
		c-10.34,2.05-14.43,6.58-14.27,17.02c0.12,8.02-1.22,15.88-1.51,23.84c-0.66,17.92-1.84,35.83-2.28,53.76
		C1270.01,3645.17,1267.53,3663.02,1268.4,3681z"/>
	<path class="st0" d="M1640.4,0c277.33,0,554.67,0,832,0c0,1227,0,2454,0,3681c-30,0-60,0-90,0c1.25-3.36-0.01-6.64-0.63-9.83
		c-11.91-60.65-23.74-121.31-35.96-181.89c-11.23-55.67-22.65-111.3-34.44-166.85c-13.17-62.05-26.86-124-40.33-185.99
		c-8.25-37.99-16.57-75.97-24.74-113.97c-9.77-45.44-20.3-90.72-28.88-136.41c-0.92-4.9-0.62-8.04,3.68-11.03
		c6.25-4.37,10.28-10.62,10.91-18.31c1.14-13.91,4.37-27.57,4.63-41.57c0.38-19.95,1.74-39.96-2.06-59.74
		c-2.06-10.75-3.27-21.28-2.85-32.42c0.75-19.99,2.29-39.83,4.96-59.61c1.15-8.53,2-17.19,5.82-25.15
		c6.18-12.91,12.09-25.96,18.5-38.75c9.24-18.44,18.13-37.13,32.27-52.61c1.48-1.62,2.31-4.05,2.91-6.25
		c4.81-17.63,9.69-35.25,14.18-52.97c13.92-54.89,21.91-110.73,26.02-167.15c0.96-13.25,3.07-26.54,1.59-39.82
		c-3.06-27.38-5.92-54.81-10.16-82.02c-7.06-45.35-9.85-91.13-15.32-136.64c-3.44-28.65-5.5-57.46-8.63-86.14
		c-4.8-43.91-10.28-87.74-14.94-131.66c-3.92-36.98-8.07-73.79-15.55-110.37c-9.32-45.53-18.25-91.19-25.81-137.1
		c-7.6-46.18-16.72-92.11-25.37-138.12c-8.35-44.39-15.95-88.96-26.57-132.86c-13.67-56.53-25.38-113.47-37.72-170.28
		c-8.84-40.66-19.41-80.82-35.28-119.39c-10.44-25.38-23.68-49.2-41.79-70c-28.31-32.51-63.42-55.57-102.58-72.85
		c-7.93-3.5-16.16-6.4-24.82-7.29c-13.9-1.43-27.84-2.36-41.76-3.54c-15.24-1.3-30.49-2.53-45.71-4.03
		c-7.88-0.78-7.58-0.97-6.24-8.39c2.78-15.35,11.2-27.58,20.95-39.14c7.95-9.43,15.67-19.03,22.39-29.39
		c6.24-9.62,10.82-19.96,11.63-31.5c0.84-11.95,1.09-23.94,1.55-35.92c0.35-9.1,2.08-17.75,6.82-25.76
		c4.07-6.87,7.57-14.07,11.41-21.08c1.78-3.25,3.25-6.63,3.68-10.27c2.25-19.14,4.5-38.28,6.5-57.44
		c1.04-10.02,2.96-19.6,8.92-28.07c3.65-5.19,6.14-11.05,8.47-16.94c6.24-15.76,4.41-30.64-5.26-44.47
		c-3.43-4.9-7.26-9.55-11.19-14.07c-6.2-7.13-9.02-15.23-8.77-24.71c0.55-21.3,3.47-42.41,4.87-63.63
		c0.97-14.61,1.86-29.24-0.99-43.78c-4.91-25.09-9.86-50.16-14.63-75.28c-1.33-7.02-3.8-13.52-8-19.19
		c-12.21-16.47-18.2-35.29-21.91-55.14c-3-16.02-4.47-32.2-5.89-48.4c-1.2-13.63-7.65-23.89-19.1-31.06
		c-3.94-2.47-8.11-4.61-12.34-6.55c-17.29-7.95-35.64-12.93-53.7-18.68c-14.06-4.48-28.36-7.19-43.22-4.56
		c-1.58,0.28-3.3-0.1-4.94-0.29c-16.76-1.99-33.23-1.1-49.15,5.01c-4.18,1.6-8.22,1.75-12.63,0.57c-8.76-2.33-17.83-2.86-26.73-1.51
		c-4.48,0.68-8.56-0.24-12.83-0.4c-4.4-0.17-6.37-2.34-7.67-6.35c-2.71-8.33-3.9-16.81-3.9-25.51c-0.01-14.66,0.05-29.32-0.01-43.98
		c-0.03-7.3-0.45-14.56-1.15-21.87C1641.89,20.46,1638.12,10.44,1640.4,0z"/>
	<g id="purple">
		<path class="st1" d="M393.31,3691l3.44-12.63c2.06-7.56,2.91-15.46,3.8-23.82c0.47-4.38,0.96-8.9,1.63-13.43
			c4.5-30.11,8.95-61.27,13.23-92.6c2.1-15.35,4.1-31,6.03-46.13c1.62-12.7,3.3-25.84,5.03-38.77c2.82-21.03,5.78-42.38,8.65-63.03
			c1.29-9.29,2.58-18.59,3.86-27.88c1.16-8.43,2.32-16.85,3.48-25.28c2.5-18.25,5.09-37.12,7.7-55.68l1.05-7.52
			c3.69-26.34,7.51-53.58,11.47-80.36c5.49-37.14,11.37-76.72,17.6-116.33c3.97-25.23,8.14-50.84,12.18-75.61
			c3.16-19.4,6.43-39.46,9.58-59.19c3.11-19.51,6.18-39.38,9.15-58.6c2.37-15.31,4.81-31.14,7.27-46.71
			c2.82-17.89,5.68-35.77,8.54-53.65c4.3-26.9,8.75-54.71,12.98-82.08c5-32.31,9.71-65,14.5-98.44
			c3.73-26.06,7.47-52.58,11.08-78.22c3.04-21.6,6.08-43.2,9.16-64.8c4.12-28.92,8.53-59.27,13.48-92.77
			c0.92-6.25,0.85-12.71-0.21-19.75c-2.53-16.69-3.71-33.62-4.69-49.52c-0.68-11.04,1.89-21.63,7.66-31.47l0.5-0.84
			c1.14-1.94,2.27-3.88,3.42-5.8c-3.66-2.03-7.29-4.02-10.91-6c-9.81-5.37-19.96-10.93-29.78-16.85
			c-5.42-3.26-10.99-5.04-17.04-5.43c-19.24-1.26-37.02-8.89-54.36-23.35c-2.64-2.2-5.48-4.25-8.5-6.43
			c-6.52-4.71-13.27-9.57-18.9-16.61l-0.6-0.74c-2.06-2.54-4.63-5.71-5.92-10.38c-3.75-13.61-14.25-22.82-25.59-31.82
			c-8.7-6.9-18.13-14.19-28.19-20.71c-25.46-16.51-43.65-41.15-55.61-75.34c-4.56-13.03-9.87-26.88-16.25-42.34
			c-6.62-16.06-16.74-27.74-30.93-35.71l-3.85-2.16c-11.31-6.33-23-12.87-33.84-21l-0.78-0.58c-2.85-2.13-6.08-4.55-8.94-7.62
			c-5.81-6.23-8.59-13.65-7.81-20.88c0.77-7.23,5.05-13.9,12.05-18.77c3.08-2.14,6.33-3.75,9.19-5.17c1.4-0.7,2.73-1.36,3.97-2.04
			c0.76-0.42,1.53-0.82,2.3-1.23c1.75-0.92,3.41-1.79,4.6-2.68c-18.43-12.64-30.46-30.31-39.81-45.97
			c-11.84-19.83-18.25-40.79-19.06-62.29c-0.38-10.06,3.26-17.27,11.43-22.7c6.06-4.03,12.14-8.46,18.01-12.74
			c4.94-3.61,10.06-7.33,15.25-10.89c6.73-4.61,10.23-9.5,11.01-15.38c2.71-20.44,12.13-38.45,28.82-55.07
			c9.93-9.89,17.06-22.39,23.13-40.52c6.56-19.6,13.67-39.33,20.55-58.4c5.11-14.19,10.4-28.86,15.41-43.32
			c5.16-14.9,10.33-29.8,15.51-44.69c16.58-47.7,33.73-97.02,49.83-145.75c11.99-36.28,29.05-72.98,52.18-112.19
			c16.28-27.61,33.68-57.27,50.55-87.09c5.35-9.45,10.22-19.58,14.92-29.37c1.5-3.11,3-6.23,4.51-9.33
			c5.48-11.21,12.6-22.73,22.42-36.26c10.77-14.84,24.24-25.81,40.04-32.62c9.35-4.03,13.31-7.85,14.62-14.12
			c1.63-7.81,7.2-13.84,15.69-16.98c5.06-1.87,10.13-3.73,15.19-5.58c-18.33-18.28-39.24-40.12-57.48-64.73
			c-12.3-16.59-26.75-30.86-42.06-45.96c-3.11-3.07-6.22-6.14-9.31-9.23c-15.82-15.81-28.76-31.84-39.59-49.01
			c-16.25-25.79-19.74-53.5-10.66-84.73c2.97-10.22,6.14-20.58,9.42-30.78c2.9-9.02,1.61-15.01-4.44-20.67
			c-3.65-3.41-7.05-6.99-10.34-10.45c-1.55-1.63-3.09-3.25-4.66-4.86c-9.84-10.06-14.59-21.73-14.54-35.66
			c0.09-23.34,3.6-45.92,7.5-68.93c3.8-22.42,8.05-45.11,12.16-67.05c2.21-11.8,4.5-23.99,6.68-35.99
			c4.06-22.28,1.04-44.46-2.16-67.93l-0.31-2.26c-3.1-22.79-5.56-45.18-1.75-68.45c3.04-18.56,12.01-34.03,27.41-47.3
			c8.83-7.6,16.26-13.77,23.38-19.41c14.93-11.8,22.46-27.43,23.71-49.17c0.16-2.7,0.3-5.4,0.44-8.1
			c0.63-11.89,1.28-24.18,3.03-36.45c2.32-16.28,7.74-31.69,16.09-45.8c24.81-41.9,46.1-72.37,69.05-98.8
			c6.28-7.23,12.93-14.18,19.37-20.9c2.93-3.06,5.86-6.12,8.76-9.21l2.96-3.16h147.75l-6.29,14.08c-2.58,5.78-7.22,8.4-10.29,10.13
			c-0.64,0.36-1.24,0.7-1.67,0.99c-29.12,19.29-56.1,45.46-82.49,79.99c-15.27,19.99-28.5,40.94-39.42,58.79
			c-10.17,16.62-15.9,31.23-18.06,45.96c-0.98,6.7-1.23,13.48-1.51,20.66c-0.27,7.1-0.55,14.45-1.57,21.9
			c-2.27,16.44-7.14,37.4-24.91,53.74c-8.74,8.04-16.86,14.99-24.81,21.25c-14.03,11.05-21.34,25.17-22.34,43.15
			c-1.13,20.33,1.41,40.25,4.09,61.33c0.35,2.75,0.7,5.5,1.04,8.25c0.3,2.41,0.67,4.82,1.05,7.38c1.41,9.28,2.87,18.88,1.22,29.12
			c-2,12.47-4.3,25.05-6.53,37.21c-1.47,8.04-3,16.36-4.41,24.53c-1.02,5.91-2.15,11.85-3.24,17.6c-2.11,11.1-4.28,22.57-5.69,33.84
			c-1.12,8.98-2.52,18.01-3.88,26.73c-1.19,7.69-2.43,15.65-3.45,23.44c-2.4,18.34,1.49,30.53,12.64,39.52
			c4.4,3.55,8.08,7.69,11.77,11.97c9.04,10.49,11.51,21.58,7.34,32.95c-0.43,1.16-0.77,2.64-1.13,4.21
			c-0.34,1.49-0.73,3.17-1.26,4.9c-4.06,13.15-8.65,28.05-11.04,42.94c-0.85,5.29-0.77,10.28,0.24,15.23
			c5.75,28.16,23.01,49.84,47.16,73.72c2.25,2.22,4.51,4.44,6.76,6.65c12.96,12.71,26.37,25.84,37.79,40.8
			c12.82,16.8,26.72,33.23,42.49,50.23c18.56,20.01,39.83,39.08,63.23,56.67c0.17,0.13,0.35,0.24,0.52,0.36
			c2.11,1.41,7.71,5.15,7.57,13.28l-0.13,7.54l-7.28,1.96l-5.01,1.35c-3.75,1.02-7.53,2.04-11.31,3.02
			c-3.44,0.9-6.9,1.74-10.26,2.56c-10.7,2.6-20.81,5.06-30.34,9.19c-5.23,2.26-7.49,3.91-8.07,5.86
			c-4.14,14.04-14.05,20.37-22.22,24.31c-11.28,5.44-20.09,10.67-26.46,18.52c-11.62,14.32-20.38,27.88-26.78,41.45
			c-15.72,33.32-34.61,65.29-52.88,96.21c-4.63,7.84-9.42,15.94-14.07,23.93c-14.75,25.31-26.7,49.45-36.54,73.79
			c-8.99,22.24-17.61,46.88-26.37,75.33c-7.67,24.92-16.61,49.74-25.25,73.74c-6.21,17.24-12.63,35.07-18.49,52.7
			c-8.49,25.54-17.8,51.21-26.81,76.04c-4.83,13.31-9.82,27.08-14.62,40.63c-2.73,7.7-6.73,14.81-11.89,21.13
			c-3.55,4.35-8.28,10.05-13.37,15.57c-10.77,11.69-15.81,21.4-16.85,32.46c-1.32,14.02-8.71,25.3-22.59,34.51
			c-5.93,3.94-11.6,8.14-17.59,12.6c-4.19,3.11-8.52,6.33-12.91,9.42c-0.22,0.16-0.38,0.28-0.49,0.37
			c-0.01,0.06-0.01,0.12-0.02,0.19c-0.75,11.18,0.98,22.21,5.13,32.81c10.06,25.65,23.91,44.76,42.33,58.44
			c7.23,5.37,8.79,11.2,8.83,15.16c0.04,3.92-1.38,9.74-8.36,15.15c-3.06,2.37-6.34,4.15-9.23,5.72c-1.02,0.55-2.03,1.1-3.03,1.67
			c-1.28,0.74-2.52,1.37-3.72,1.99c-1.79,0.91-3.47,1.78-4.58,2.65c-2.23,1.76-2.89,3.06-2.93,3.55c-0.04,0.51,0.42,1.94,2.41,4.08
			c2.95,3.18,6.18,6.42,9.84,8.6c3.32,1.97,6.59,4.03,9.76,6.02c5.83,3.67,11.33,7.13,17.07,10.08
			c19.74,10.13,34.04,26.03,42.52,47.28c0.74,1.85,1.48,3.69,2.23,5.54c3.11,7.71,6.32,15.69,9.05,23.83
			c4.82,14.36,11.09,28.39,19.18,42.91c7.19,12.9,19.3,21.57,32.12,30.74c1.53,1.09,3.06,2.19,4.58,3.29l1.44,1.04
			c13.16,9.53,26.77,19.38,38.3,32.21c3.63,4.04,8.74,10.45,11.1,19.39c1.53,5.76,5.62,9.77,8.79,12.12
			c3.41,2.53,6.75,5.15,9.98,7.69c5.14,4.04,9.99,7.85,15.11,11.32c11.83,8.03,21.93,11.93,32.75,12.63
			c9.72,0.63,19.41,3.85,28.8,9.55c4.07,2.47,8.3,4.93,12.39,7.3c6.99,4.06,14.22,8.26,21.22,12.87c5.19,3.42,9.25,6.09,10.76,11.44
			c1.69,6-1.19,10.98-3.98,15.8c-5.31,9.17-8.63,17.09-7.59,25.93c0.39,3.35,0.75,6.71,1.12,10.07c0.55,5.09,1.11,10.35,1.78,15.46
			c1.99,15.2,3.82,35.34,0.26,56.35c-2.84,16.79-5.14,34.06-7.36,50.75c-0.66,4.94-1.32,9.89-1.99,14.83
			c-0.63,4.65-1.16,9.45-1.68,14.1c-0.86,7.76-1.74,15.79-3.16,23.76c-1.75,9.85-3.02,20.05-4.24,29.92
			c-0.85,6.86-1.73,13.96-2.78,20.98c-0.91,6.12-1.72,12.41-2.51,18.49c-1.31,10.15-2.66,20.64-4.55,30.99
			c-2.01,11.02-3.65,22.37-5.23,33.34c-1.15,7.99-2.34,16.25-3.68,24.4c-2.11,12.88-4.07,26.05-5.96,38.79
			c-1.09,7.34-2.18,14.69-3.31,22.02c-1.19,7.77-2.42,15.54-3.65,23.31c-1.05,6.63-2.1,13.26-3.13,19.89
			c-1.2,7.76-2.38,15.53-3.56,23.29c-1.36,8.93-2.71,17.86-4.1,26.78c-0.88,5.67-1.8,11.33-2.72,17
			c-1.29,7.93-2.61,16.13-3.81,24.17l-0.05,0.36c-2.86,19.25-5.82,39.17-9.06,58.71c-1.38,8.32-2.78,16.64-4.18,24.96
			c-3.59,21.33-7.31,43.39-10.6,65.1l-1.15,7.58c-2.45,16.26-4.99,33.07-7.88,49.56c-1.81,10.33-3.26,20.99-4.66,31.3
			c-1.76,12.97-3.59,26.37-6.17,39.6c-2.68,13.73-4.63,27.98-6.51,41.77c-0.79,5.79-1.61,11.77-2.47,17.67
			c-2.62,17.87-4.99,34.25-7.23,50.1c-1.9,13.44-3.8,27.11-5.63,40.34l-2.4,17.3c-1.27,9.14-2.58,18.6-3.82,27.89
			c-0.91,6.86-1.81,13.72-2.7,20.59c-1.35,10.38-2.74,21.11-4.2,31.67c-1.04,7.53-2.17,15.14-3.26,22.51
			c-1.29,8.73-2.63,17.75-3.81,26.61c-0.67,5-1.19,10.2-1.7,15.22c-0.85,8.41-1.72,17.11-3.34,25.74c-2.35,12.56-4,25.57-5.6,38.14
			c-0.98,7.68-1.99,15.61-3.15,23.45c-1.43,9.65-2.65,19.58-3.83,29.18c-1,8.17-2.04,16.63-3.21,24.94
			c-1.08,7.65-2.08,15.48-3.06,23.05c-1.81,14.14-3.69,28.76-6.17,43.16c-2.78,16.16-4.99,32.79-7.13,48.88
			c-0.94,7.08-1.92,14.41-2.93,21.62l-1.21,8.61H393.31z"/>
		<path class="st1" d="M658.53,29.81c-26.08,30.04-47.79,63.2-68,97.34c-7.67,12.95-12.64,27-14.79,42.12
			c-2.07,14.53-2.55,29.13-3.38,43.71c-1.31,22.71-9.24,42-27.49,56.44c-7.83,6.19-15.49,12.62-23.06,19.14
			c-12.75,10.99-21.28,24.31-24.07,41.34c-3.61,22.02-1.16,43.77,1.79,65.49c3.32,24.39,6.88,48.73,2.4,73.33
			c-6.25,34.31-12.99,68.54-18.82,102.92c-3.77,22.25-7.27,44.56-7.36,67.3c-0.04,11.55,3.91,20.67,11.69,28.63
			c4.89,5,9.58,10.22,14.68,14.99c9.43,8.82,10.93,19.21,7.13,31.03c-3.26,10.13-6.37,20.3-9.34,30.52
			c-7.82,26.88-5.8,52.31,9.51,76.61c10.93,17.34,23.79,32.87,38.19,47.27c18.13,18.13,36.97,35.57,52.33,56.3
			c17.5,23.61,37.66,44.89,58.47,65.57c2.79,2.77,6.07,5.14,7.93,8.71c-1.69,2.25-4.11,2.37-6.22,3.14
			c-7.5,2.73-14.99,5.46-22.47,8.23c-4.65,1.72-8.37,4.83-9.37,9.64c-2.41,11.53-10.66,17.04-20.45,21.26
			c-14.76,6.36-26.56,16.42-35.91,29.31c-8.02,11.05-15.51,22.46-21.53,34.78c-6.43,13.15-12.52,26.51-19.72,39.24
			c-16.56,29.26-33.56,58.28-50.63,87.24c-20.7,35.09-38.52,71.58-51.3,110.25c-21.07,63.78-43.43,127.11-65.39,190.58
			c-11.75,33.95-24.52,67.56-35.92,101.63c-5.6,16.72-13,31.93-25.55,44.43c-13.78,13.73-23.35,29.59-25.96,49.3
			c-1.29,9.75-7.18,16.77-15.27,22.31c-11.26,7.71-22.02,16.16-33.38,23.71c-5.39,3.58-7.21,7.64-6.97,14
			c0.78,20.81,7.1,39.88,17.65,57.54c9.93,16.63,21.07,32.25,37.62,43.36c6.87,4.61,6.52,10.25,0.08,15.37
			c-2.57,2.05-5.67,3.45-8.58,5.05c-4.08,2.24-8.47,4.02-12.27,6.66c-9.5,6.6-10.48,16.21-2.64,24.62c2.47,2.65,5.49,4.83,8.41,7.02
			c11.49,8.62,24.12,15.44,36.59,22.44c16.71,9.39,28.01,23.01,35.27,40.62c5.84,14.16,11.39,28.4,16.44,42.85
			c10.02,28.66,25.45,53.29,51.61,70.25c10.04,6.51,19.59,13.83,28.97,21.27c12.57,9.98,24.51,20.63,29.02,37
			c0.82,2.99,2.79,5.16,4.68,7.53c7.2,8.99,17.35,14.4,26,21.61c14.05,11.71,29.8,19.82,48.6,21.05c7.59,0.5,14.75,2.76,21.54,6.84
			c13.39,8.06,27.25,15.37,40.92,22.97c8.51,4.73,8.52,4.71,3.39,13.27c-1.37,2.29-2.71,4.59-4.06,6.88
			c-4.67,7.97-6.88,16.51-6.3,25.79c1.01,16.27,2.15,32.52,4.6,48.64c1.15,7.6,1.34,15.1,0.22,22.71
			c-4.57,30.9-9.07,61.8-13.47,92.72c-6.79,47.67-13.41,95.36-20.24,143.02c-4.71,32.87-9.44,65.74-14.51,98.55
			c-7,45.28-14.39,90.5-21.52,135.76c-5.53,35.1-10.83,70.23-16.42,105.32c-7.16,44.94-14.68,89.82-21.75,134.77
			c-6.09,38.71-11.85,77.47-17.58,116.23c-4.32,29.25-8.4,58.53-12.51,87.8c-3.78,26.97-7.45,53.95-11.17,80.93
			c-4.18,30.29-8.44,60.57-12.5,90.88c-3.79,28.29-7.2,56.64-11.07,84.92c-4.23,30.94-8.64,61.85-13.25,92.73
			c-1.91,12.8-2.26,25.83-5.68,38.4c29.33,0,58.67,0,88,0c3.32-23.61,6.08-47.31,10.11-70.8c3.76-21.89,6.08-43.96,9.18-65.92
			c2.54-18.01,4.38-36.2,7.06-54.2c3.07-20.63,4.98-41.42,8.81-61.96c2.49-13.32,3.15-26.98,4.95-40.45
			c2.19-16.41,4.81-32.76,7.08-49.16c2.4-17.39,4.57-34.81,6.89-52.22c1.53-11.49,3.14-22.97,4.73-34.45
			c2.36-17.06,4.71-34.11,7.12-51.16c2.37-16.72,4.79-33.44,7.24-50.15c2.93-19.98,5.2-40.1,9.07-59.9
			c4.58-23.43,6.68-47.2,10.79-70.7c3.3-18.89,6.11-37.92,8.99-56.91c4.57-30.13,9.82-60.14,14.8-90.2
			c3.25-19.58,6.17-39.25,9.09-58.91c2.04-13.77,4.4-27.48,6.54-41.24c2.6-16.68,5.08-33.38,7.66-50.07
			c2.23-14.4,4.57-28.79,6.78-43.19c3.11-20.3,5.96-40.64,9.28-60.91c3.16-19.28,5.43-38.69,8.94-57.92
			c2.97-16.27,4.56-32.79,7-49.16c2.54-17.03,4.04-34.2,7.06-51.18c2.2-12.38,3.08-24.98,4.77-37.46c2.99-21.99,5.7-44.03,9.4-65.9
			c3.03-17.92,2.01-35.6-0.32-53.38c-1.12-8.54-1.91-17.11-2.92-25.66c-1.39-11.91,3.12-22.16,8.87-32.1
			c4.83-8.34,4.4-8.59-3.62-13.87c-10.84-7.13-22.26-13.26-33.31-19.98c-7.69-4.68-15.71-7.57-24.25-8.12
			c-14.22-0.92-26.29-6.58-37.72-14.33c-8.8-5.98-16.89-12.92-25.43-19.25c-5.71-4.23-10.54-10.2-12.5-17.59
			c-1.57-5.93-4.76-10.68-8.88-15.27c-11.22-12.49-24.69-22.08-38.16-31.84c-14.76-10.69-30.36-20.72-39.57-37.27
			c-7.94-14.26-14.71-29.07-19.92-44.6c-3.27-9.76-7.27-19.28-11.09-28.85c-7.44-18.64-19.71-32.81-37.8-42.09
			c-9.44-4.84-18.23-10.97-27.37-16.4c-4.65-2.77-8.46-6.5-12.07-10.4c-7.29-7.86-6.74-15.67,1.66-22.29
			c2.84-2.24,6.34-3.63,9.5-5.45c3.74-2.16,7.73-4.01,11.12-6.63c6.09-4.71,5.98-9.7-0.3-14.37
			c-21.81-16.19-35.94-37.98-45.68-62.82c-4.64-11.82-6.66-24.27-5.8-37.12c0.25-3.75,1.73-5.97,4.74-8.08
			c10.33-7.26,20.21-15.19,30.73-22.17c10-6.63,17.02-15.07,18.16-27.11c1.46-15.48,9.36-27.33,19.45-38.29
			c4.5-4.89,8.78-9.98,12.98-15.13c4.44-5.43,7.83-11.43,10.2-18.13c13.75-38.85,28.37-77.4,41.36-116.49
			c14.05-42.26,30.56-83.65,43.67-126.22c7.91-25.71,16.57-51.17,26.66-76.13c10.5-25.98,23.09-50.91,37.17-75.08
			c22.94-39.37,47.07-78.07,66.55-119.37c7.41-15.71,17.12-30.01,28.05-43.48c7.98-9.84,18.84-15.9,29.89-21.23
			c8.33-4.01,14.27-8.97,16.97-18.13c1.9-6.45,7.68-9.61,13.69-12.21c13.52-5.85,27.91-8.56,42.04-12.24
			c5.45-1.42,10.88-2.91,16.25-4.36c0.05-3.24-2.33-4.14-4.11-5.48c-23.19-17.43-44.86-36.62-64.56-57.86
			c-15.12-16.31-29.57-33.23-43.11-50.96c-12.91-16.91-28.49-31.43-43.63-46.41c-22.48-22.23-43.27-46.23-49.92-78.83
			c-1.29-6.3-1.32-12.58-0.32-18.82c2.43-15.11,6.86-29.72,11.36-44.3c0.98-3.17,1.42-6.51,2.55-9.61
			c3.28-8.95,0.2-16.33-5.53-22.98c-3.26-3.78-6.61-7.6-10.47-10.71c-15.86-12.79-18.73-29.88-16.28-48.6
			c2.19-16.74,5.22-33.37,7.32-50.12c2.18-17.46,6.01-34.6,9.01-51.9c3.56-20.56,7.61-41.03,10.92-61.62
			c1.81-11.27-0.95-22.56-2.33-33.69c-2.94-23.73-6.52-47.36-5.19-71.37c1.15-20.71,9.68-37.49,26.13-50.45
			c8.34-6.57,16.38-13.55,24.23-20.76c14.12-12.98,19.24-29.37,21.78-47.74c1.96-14.2,1.02-28.46,3.09-42.64
			c2.66-18.24,10.01-34.34,19.42-49.74c12.5-20.44,25.48-40.64,40-59.64c24.13-31.58,51.48-60.1,84.91-82.25
			C809,4.9,812.76,3.67,814.4,0c-42.67,0-85.33,0-128,0C677.09,9.92,667.44,19.55,658.53,29.81z"/>
		<path class="st1" d="M2317.96,3691l-1.42-8.32c-0.6-3.54-1.23-7.09-1.85-10.63c-1.37-7.79-2.79-15.84-3.98-23.87
			c-3.61-24.49-8-49.68-13.03-74.89c-3.43-17.16-6.86-34.62-10.18-51.5c-2.95-15.01-5.91-30.03-8.89-45.04
			c-1.47-7.38-3.04-14.88-4.56-22.15c-2.83-13.53-5.75-27.52-8.19-41.45c-1.91-10.92-4.2-22.03-6.42-32.78
			c-2.53-12.24-5.14-24.91-7.25-37.56c-2.05-12.33-4.96-24.89-7.77-37.03c-1.5-6.49-3.05-13.2-4.48-19.86
			c-3-14.05-5.97-28.33-8.84-42.15c-6-28.89-12.21-58.77-19-87.93c-3.64-15.63-7.03-31.54-10.3-46.93
			c-3.24-15.21-6.59-30.94-10.16-46.3c-5.86-25.21-11.2-50.92-16.35-75.79c-2.86-13.78-5.81-28.02-8.82-42
			c-1.48-6.89-3.19-13.93-4.83-20.73c-1.89-7.79-3.84-15.85-5.52-23.91c-3.59-17.25-6.85-34.81-10.01-51.79l-1.47-7.92
			c-1.85-9.95,2.52-15.03,6.52-17.54c6.12-3.85,7.73-10.16,8.71-21.2c0.52-5.91,1.23-11.82,1.92-17.54
			c1.41-11.71,2.74-22.77,2.61-33.98c-0.17-14.6-1.62-27.05-4.43-38.06c-3.27-12.8-2.33-24.75-1.42-36.3
			c0.27-3.44,0.53-6.69,0.67-9.94c0.5-11.38,1.11-22.53,2.98-33.82c2.35-14.19,6.26-32.73,15.77-50.34
			c3.31-6.13,6.45-12.6,9.49-18.87c6.24-12.86,12.68-26.15,21.41-38.41c0.44-0.62,0.87-1.24,1.3-1.86c1.95-2.8,4.16-5.97,6.97-8.83
			c1.24-1.26,2.03-2.78,2.66-5.07c7.32-27,12.68-47.69,17.37-67.1c5.47-22.63,9.72-44.94,12.63-66.3c0.34-2.51,0.69-5.02,1.04-7.53
			c2.52-18.29,5.13-37.2,5.99-55.81c0.2-4.35,0.47-8.74,0.73-12.99c0.45-7.4,0.92-15.05,1.02-22.47c0.23-16.84-2.2-33.32-4.76-50.77
			l-0.59-4.02c-1.2-8.18-2.11-16.45-2.99-24.45c-0.59-5.33-1.19-10.84-1.87-16.21c-0.68-5.4-1.47-10.92-2.23-16.25
			c-0.99-6.93-2.01-14.1-2.84-21.23c-0.69-5.88-1.15-11.8-1.59-17.51c-0.34-4.39-0.7-8.93-1.15-13.32
			c-0.64-6.3-1.39-12.74-2.1-18.96c-1.27-10.99-2.58-22.35-3.43-33.65c-0.67-8.94-1.72-18.09-2.73-26.93
			c-0.57-5.01-1.16-10.19-1.69-15.32c-1.13-11.11-2.24-22.22-3.35-33.33c-1.56-15.65-3.17-31.82-4.83-47.71
			c-0.59-5.66-1.17-11.33-1.74-16.99c-1.89-18.65-3.85-37.94-6.48-56.72c-1.76-12.54-3.11-25.26-4.43-37.56
			c-1.38-12.94-2.81-26.32-4.69-39.34c-2.09-14.48-5.21-29.14-8.22-43.32c-2.18-10.26-4.43-20.87-6.31-31.46
			c-2.58-14.5-5.36-29.23-8.06-43.48c-1.9-10.06-3.87-20.47-5.75-30.73c-2.34-12.77-4.64-25.75-6.87-38.3
			c-1.38-7.79-2.76-15.58-4.16-23.37c-1.39-7.73-2.77-15.46-4.15-23.2c-3.61-20.27-7.35-41.23-11.22-61.79
			c-3.63-19.29-7.51-38.9-11.27-57.86c-1.78-8.97-3.55-17.94-5.31-26.91c-5.11-26.08-11.32-52.46-17.33-77.98
			c-4.51-19.16-9.17-38.98-13.36-58.61c-2.11-9.87-4.17-19.91-6.17-29.62c-5.48-26.59-11.15-54.08-18.09-80.67
			c-9.87-37.77-20.5-67.5-33.45-93.57c-16-32.19-38.34-58.13-68.31-79.29c-20.4-14.4-39.97-25.15-59.82-32.85
			c-8.04-3.12-16.78-4.94-25.99-5.43c-21.77-1.15-43.68-3.43-64.86-5.63l-1.99-0.21c-18.83-1.95-36.83-6.89-54.24-11.66
			c-7.02-1.92-14.29-3.91-21.41-5.65l-7.49-1.82l-0.15-7.7c-0.13-7.01,3.29-12.53,10.18-16.41c7.29-4.1,11.29-11.01,12.97-22.4
			c2.51-16.95,10.89-29.67,19.58-40.9c2.78-3.59,5.67-7.08,8.47-10.46c7.4-8.93,14.39-17.36,19.05-27.16
			c2.91-6.11,4.33-12.59,5.68-21.07c0.95-5.93,0.99-12.1,1.04-18.62c0.06-8.63,0.13-17.55,2.31-26.76
			c1.21-5.12,2.83-11.03,6.68-16.39c9.55-13.29,14.39-29.45,15.25-50.83c0.28-6.93,1.33-13.57,2.34-20c1.06-6.69,2.05-13,2.16-19.28
			c0.11-6.57,3.44-11.63,5.88-15.33c0.48-0.73,0.97-1.46,1.41-2.2c7.19-11.88,11.47-21.44,10.58-32.35
			c-0.59-7.26-2.8-13.19-6.94-18.68c-0.13-0.17-0.53-0.7-0.69-0.86c-20.79-18.47-20.68-41.61-17.46-63.86
			c1.24-8.55,1.65-17.2,2.09-26.36c0.25-5.11,0.5-10.4,0.91-15.65c1.94-24.88-3.19-48.91-8.63-74.34l-0.73-3.41
			c-1.68-7.84-3.42-15.94-4.72-24.11c-0.99-6.19-2.54-13.23-6.59-18.5c-14.85-19.35-19.96-41.86-23.58-61.45
			c-1.68-9.09-2.61-18.21-3.51-27.02c-0.53-5.22-1.08-10.61-1.78-15.82c-1.41-10.56-6.41-17.29-17.26-23.23
			c-12.32-6.74-25.62-10.97-39.71-15.45c-5.13-1.63-10.43-3.32-15.66-5.13c-13.4-4.64-27.28-5.27-39.1-5.27
			c-4.73,0-9.61,0.11-14.32,0.22c-4.83,0.11-9.83,0.23-14.79,0.23c-0.59,0-1.78,0-1.78,0c-4.15,0-9.05,1.56-14.13,3.3
			c-5.21,1.78-9.86,2.65-14.21,2.65c-2.37,0-4.7-0.26-6.93-0.77c-5.47-1.25-11.23-1.42-16.65-1.42c-1.55,0-3.1,0.01-4.64,0.03
			c-1.61,0.02-3.22,0.03-4.83,0.03c-0.86,0-1.71,0-2.57-0.02c-6.65-0.08-12.39-0.15-17.22-4.02c-5.13-4.1-6.38-10.39-7.59-16.47
			l-0.12-0.61c-1.66-8.34-3.38-16.96-3.07-26.31c0.31-9.41,0.19-19.11,0.07-28.49l-0.02-2.05c-0.03-2.07-0.04-4.14-0.05-6.21
			c-0.06-10.12-0.12-19.67-1.6-29.18c-2.61-16.8-4.04-34.86-4.5-56.83c-0.01-0.48-0.32-1.56-0.6-2.52c-0.54-1.85-1.2-4.16-1.34-6.93
			l-0.52-10.5h102.93l-2.65,12.13c-1.13,5.19-0.12,10.71,1.06,17.11c0.61,3.34,1.25,6.8,1.6,10.43c0.78,8.07,1.17,15.53,1.2,22.79
			c0.04,9.4,0.03,18.95,0.02,28.19c0,5.27-0.01,10.55-0.01,15.82c0,7.86,1.07,15.04,3.25,21.94c1.17,0.07,2.28,0.18,3.36,0.29
			c1.55,0.15,3.01,0.29,4.32,0.29c0.73,0,1.37-0.04,1.97-0.13c3.69-0.56,7.46-0.84,11.21-0.84c6.58,0,13.18,0.87,19.6,2.58
			c1.1,0.29,2.09,0.44,3.02,0.44c1.15,0,2.25-0.22,3.46-0.68c11.61-4.46,23.84-6.63,37.38-6.63c5.27,0,10.83,0.34,16.54,1.02
			c0.42,0.05,0.84,0.11,1.27,0.17c0.36,0.05,0.83,0.12,1.11,0.14c4.33-0.75,8.82-1.13,13.34-1.13c10.4,0,21.3,1.93,34.29,6.06
			c3.71,1.18,7.43,2.33,11.14,3.48c14.44,4.46,29.38,9.06,43.7,15.64c5.13,2.36,9.53,4.7,13.47,7.16
			c14.3,8.95,22.29,21.96,23.76,38.66c1.29,14.72,2.76,31.4,5.76,47.43c4.14,22.1,10.34,37.84,20.12,51.02
			c4.86,6.56,8.06,14.17,9.79,23.28c3.96,20.84,8.11,42.03,12.13,62.51l2.49,12.71c3.16,16.13,2.09,32.19,1.15,46.36
			c-0.56,8.4-1.35,16.86-2.12,25.04c-1.18,12.55-2.4,25.52-2.73,38.19c-0.18,7.04,1.83,12.72,6.32,17.89
			c4.99,5.73,8.63,10.33,11.83,14.9c11.57,16.54,13.77,35.18,6.36,53.88c-2.36,5.96-5.24,12.83-9.59,19.01
			c-4.87,6.92-6.31,15.32-7.15,23.36c-2.09,20-4.54,40.83-6.51,57.58c-0.68,5.79-3.09,10.71-4.84,13.91
			c-1.38,2.52-2.76,5.16-4.1,7.7c-2.35,4.49-4.79,9.13-7.48,13.67c-3.37,5.69-5.1,12.38-5.43,21.05c-0.12,3.13-0.22,6.26-0.33,9.39
			c-0.3,8.78-0.6,17.85-1.23,26.85c-0.84,11.97-5.17,23.82-13.22,36.24c-7.34,11.32-15.81,21.72-23.13,30.4
			c-7.66,9.08-15.07,19.14-18.1,31.45c11.03,1.06,22.21,2,33.06,2.92l9.25,0.78c4.72,0.4,9.45,0.78,14.17,1.15
			c9.09,0.72,18.49,1.46,27.77,2.41c8.56,0.88,17.15,3.38,27.83,8.09c44.15,19.47,78.85,44.15,106.09,75.43
			c17.29,19.86,31.52,43.66,43.49,72.76c13.91,33.81,24.95,71.15,35.8,121.07c3.04,13.98,6.04,27.96,9.04,41.95
			c9.02,42.08,18.35,85.6,28.63,128.1c8.55,35.36,15.24,71.61,21.71,106.66c1.64,8.91,3.29,17.81,4.96,26.71
			c2.02,10.72,4.06,21.44,6.1,32.16c6.62,34.73,13.47,70.65,19.31,106.18c8.15,49.56,18.04,99.1,25.74,136.72
			c7.49,36.6,11.7,73.54,15.7,111.32c2.55,24.06,5.4,48.51,8.15,72.17c2.27,19.48,4.61,39.62,6.78,59.46
			c1.38,12.66,2.58,25.51,3.73,37.94c1.46,15.8,2.98,32.14,4.89,48.1c2.12,17.63,3.86,35.54,5.54,52.86
			c2.67,27.45,5.43,55.83,9.73,83.43c3.75,24.08,6.47,48.61,9.1,72.34l1.12,10.11c1.24,11.1,0.23,21.86-0.74,32.27
			c-0.29,3.1-0.59,6.3-0.81,9.39c-4.48,61.5-13.08,116.75-26.3,168.89c-3.88,15.29-8.1,30.71-12.18,45.63l-2.05,7.51
			c-0.85,3.12-2.21,7.11-5.17,10.36c-12.27,13.43-20.33,29.58-28.87,46.67l-1.84,3.68c-4.08,8.14-8.04,16.57-11.87,24.73
			c-2.17,4.63-4.34,9.25-6.55,13.86c-2.77,5.78-3.66,12.57-4.61,19.75l-0.32,2.41c-2.5,18.54-4.09,37.72-4.88,58.65
			c-0.35,9.24,0.51,18.82,2.68,30.17c3.39,17.67,2.92,35.27,2.46,52.29c-0.09,3.17-0.17,6.35-0.23,9.52
			c-0.17,8.83-1.41,17.38-2.61,25.65c-0.83,5.71-1.61,11.11-2.06,16.55c-0.84,10.24-6.13,19.29-14.92,25.52
			c0.04,0.29,0.1,0.67,0.19,1.16c6.16,32.8,13.46,66,20.52,98.11c2.74,12.46,5.57,25.35,8.31,38.04
			c5.69,26.43,11.54,53.3,17.19,79.29c2.52,11.56,5.03,23.11,7.54,34.67c4.08,18.8,8.19,37.6,12.29,56.4
			c9.27,42.47,18.86,86.38,28.05,129.64c10.61,49.98,21.88,104.59,34.46,166.95c10.11,50.13,20.12,101.14,29.8,150.47l6.18,31.47
			c0.1,0.51,0.22,1.02,0.34,1.53c0.76,3.26,1.91,8.18-0.14,13.71l-2.42,6.52H2317.96z"/>
		<path class="st1" d="M2381.77,3671.17c-11.91-60.65-23.74-121.31-35.96-181.89c-11.23-55.67-22.65-111.3-34.44-166.85
			c-13.17-62.05-26.86-124-40.33-185.99c-8.25-37.99-16.57-75.97-24.74-113.97c-9.77-45.44-20.3-90.72-28.88-136.41
			c-0.92-4.9-0.62-8.04,3.68-11.03c6.25-4.37,10.28-10.62,10.91-18.31c1.14-13.91,4.37-27.57,4.63-41.57
			c0.38-19.95,1.74-39.96-2.06-59.74c-2.06-10.75-3.27-21.28-2.85-32.42c0.75-19.99,2.29-39.83,4.96-59.61
			c1.15-8.53,2-17.19,5.82-25.15c6.18-12.91,12.09-25.96,18.5-38.75c9.24-18.44,18.13-37.13,32.27-52.61
			c1.48-1.62,2.31-4.05,2.91-6.25c4.81-17.63,9.69-35.25,14.18-52.97c13.92-54.89,21.91-110.73,26.02-167.15
			c0.96-13.25,3.07-26.54,1.59-39.82c-3.06-27.38-5.92-54.81-10.16-82.02c-7.06-45.35-9.85-91.13-15.32-136.64
			c-3.44-28.65-5.5-57.46-8.63-86.14c-4.8-43.91-10.28-87.74-14.94-131.66c-3.92-36.98-8.07-73.79-15.55-110.37
			c-9.32-45.53-18.25-91.19-25.81-137.1c-7.6-46.18-16.72-92.11-25.37-138.12c-8.35-44.39-15.95-88.96-26.57-132.86
			c-13.67-56.53-25.38-113.47-37.72-170.28c-8.84-40.66-19.41-80.82-35.28-119.39c-10.44-25.38-23.68-49.2-41.79-70
			c-28.31-32.51-63.42-55.57-102.58-72.85c-7.93-3.5-16.16-6.4-24.82-7.29c-13.9-1.43-27.84-2.36-41.76-3.54
			c-15.24-1.3-30.49-2.53-45.71-4.03c-7.88-0.78-7.58-0.97-6.24-8.39c2.78-15.35,11.2-27.58,20.95-39.14
			c7.95-9.43,15.67-19.03,22.39-29.39c6.24-9.62,10.82-19.96,11.63-31.5c0.84-11.95,1.09-23.94,1.55-35.92
			c0.35-9.1,2.08-17.75,6.82-25.76c4.07-6.87,7.57-14.07,11.41-21.08c1.78-3.25,3.25-6.63,3.68-10.27
			c2.25-19.14,4.5-38.28,6.5-57.44c1.04-10.02,2.96-19.6,8.92-28.07c3.65-5.19,6.14-11.05,8.47-16.94
			c6.24-15.76,4.41-30.64-5.26-44.47c-3.43-4.9-7.26-9.55-11.19-14.07c-6.2-7.13-9.02-15.23-8.77-24.71
			c0.55-21.3,3.47-42.41,4.87-63.63c0.97-14.61,1.86-29.24-0.99-43.78c-4.91-25.09-9.86-50.16-14.63-75.28
			c-1.33-7.02-3.8-13.52-8-19.19c-12.21-16.47-18.2-35.29-21.91-55.14c-3-16.02-4.47-32.2-5.89-48.4
			c-1.2-13.63-7.65-23.89-19.1-31.06c-3.94-2.47-8.11-4.61-12.34-6.55c-17.29-7.95-35.64-12.93-53.7-18.68
			c-14.06-4.48-28.36-7.19-43.22-4.56c-1.58,0.28-3.3-0.1-4.94-0.29c-16.76-1.99-33.23-1.1-49.15,5.01
			c-4.18,1.6-8.22,1.75-12.63,0.57c-8.76-2.33-17.83-2.86-26.73-1.51c-4.48,0.68-8.56-0.24-12.83-0.4c-4.4-0.17-6.37-2.34-7.67-6.35
			c-2.71-8.33-3.9-16.81-3.9-25.51c-0.01-14.66,0.05-29.32-0.01-43.98c-0.03-7.3-0.45-14.56-1.15-21.87
			c-0.98-10.18-4.76-20.2-2.47-30.64c-26.67,0-53.33,0-80,0c0.17,3.33,1.88,6.29,1.95,9.73c0.39,18.58,1.53,37.16,4.38,55.51
			c1.91,12.29,1.62,24.52,1.76,36.8c0.12,10.33,0.28,20.67-0.06,30.98c-0.28,8.42,1.39,16.54,3,24.64
			c2.36,11.86,3.34,12.29,15.13,12.44c10.28,0.13,20.58-0.71,30.81,1.63c5.18,1.19,10.45,0.19,15.68-1.59
			c5.61-1.92,11.61-3.87,17.42-3.83c24.49,0.14,49.17-2.96,73.2,5.37c19.15,6.63,38.93,11.43,56.89,21.26
			c12.32,6.74,20.37,15.63,22.37,30.68c1.88,14.09,2.62,28.33,5.21,42.35c3.77,20.42,8.67,40.24,21.68,57.18
			c5.12,6.67,7.21,14.72,8.53,23.02c1.41,8.83,3.34,17.58,5.21,26.33c5.49,25.68,11.03,51.32,8.96,77.88
			c-1.11,14.22-1.04,28.59-3.07,42.67c-2.98,20.61-2.8,39.84,14.26,55c0.74,0.66,1.37,1.46,1.97,2.26
			c5.34,7.08,8.19,14.92,8.92,23.89c1.19,14.55-4.86,26.57-11.99,38.35c-2.42,4-5.77,7.87-5.85,12.52
			c-0.22,13.34-3.98,26.22-4.5,39.51c-0.8,20.19-5,39.41-17.12,56.27c-2.67,3.72-3.97,8.21-5.07,12.86
			c-3.49,14.73-0.84,29.79-3.21,44.64c-1.33,8.34-2.91,16.19-6.53,23.79c-7.11,14.94-18.7,26.59-28.65,39.44
			c-8.41,10.88-15.5,22.07-17.59,36.25c-1.77,11.99-6.31,23.09-17.96,29.65c-2.34,1.32-5.17,3.15-5.09,7.5
			c24.71,6.02,48.81,14.43,74.32,17.07c22.09,2.29,44.17,4.62,66.35,5.8c10.02,0.53,19.75,2.48,29.08,6.09
			c22.15,8.59,42.59,20.32,61.98,34.01c30.77,21.73,54.66,49.14,71.49,83.01c15.18,30.55,25.6,62.68,34.17,95.49
			c9.56,36.58,16.49,73.76,24.37,110.73c9.75,45.69,21.73,90.89,30.72,136.76c5.54,28.28,11.26,56.52,16.59,84.84
			c5.33,28.32,10.28,56.7,15.38,85.06c3.69,20.54,7.26,41.1,11.03,61.63c4.54,24.77,9.41,49.47,13.82,74.26
			c4.47,25.11,10.92,49.79,14.58,75.1c3.7,25.59,5.54,51.35,9.13,76.94c3.45,24.59,5.67,49.35,8.26,74.06
			c2.83,27.01,5.42,54.05,8.18,81.07c1.45,14.17,3.37,28.29,4.44,42.52c1.32,17.49,3.73,34.89,5.51,52.35
			c1.04,10.22,1.54,20.5,2.72,30.7c1.45,12.49,3.49,24.91,5.07,37.39c1.71,13.48,2.87,27.03,4.83,40.46
			c2.74,18.71,5.72,37.37,5.46,56.37c-0.16,11.96-1.2,23.87-1.75,35.78c-0.99,21.6-4.2,42.94-7.1,64.23
			c-3.08,22.57-7.44,45.05-12.82,67.3c-5.45,22.56-11.37,44.98-17.44,67.37c-0.97,3.57-2.47,6.71-5.18,9.47
			c-2.77,2.82-4.95,6.23-7.26,9.48c-12.43,17.48-20.13,37.5-30.24,56.23c-8.01,14.83-11.96,30.68-14.7,47.22
			c-1.8,10.87-2.38,21.88-2.86,32.63c-0.63,14.28-3.31,28.6,0.45,43.33c3.31,12.99,4.58,26.72,4.74,40.41
			c0.21,17.68-3.02,35.02-4.57,52.51c-0.94,10.7-2.67,22.08-13.34,28.79c-2.74,1.73-2.49,4.69-2.01,7.24
			c3.7,19.86,7.33,39.73,11.45,59.51c3.11,14.93,7.13,29.66,10.34,44.57c8.43,39.2,16.05,78.58,25.13,117.62
			c7.21,31,13.24,62.23,20.46,93.23c10.07,43.24,18.61,86.83,27.88,130.26c4.08,19.12,9.13,38.08,12.33,57.34
			c3.92,23.56,9.55,46.75,13.65,70.26c3.71,21.21,8.5,42.24,12.7,63.36c6.4,32.17,12.65,64.36,19.07,96.53
			c5,25.02,9.39,50.14,13.12,75.39c1.69,11.46,3.85,22.85,5.8,34.27c18.67,0,37.33,0,56,0
			C2383.65,3677.64,2382.39,3674.36,2381.77,3671.17z"/>
	</g>
	<g id="rose">
		<path class="st2" d="M2198.4,3681c-3-18.67-5.95-37.36-9.02-56.02c-4.96-30.13-9.96-60.26-15.01-90.38
			c-5.55-33.07-11.2-66.12-16.75-99.19c-4.17-24.88-7.83-49.85-12.46-74.65c-6.58-35.25-13.85-70.38-20.83-105.56
			c-8.08-40.71-15.9-81.48-24.34-122.12c-12.36-59.5-25.11-118.92-37.84-178.35c-9.26-43.2-18.75-86.34-28.15-129.51
			c-8.06-37-16.14-73.99-24.19-110.99c-1.44-6.64-0.95-8.19,5.13-10.97c5.16-2.36,10.13-5,14.99-7.9c7-4.18,11.2-10.42,12.39-18.41
			c2.79-18.76,4.7-37.57,4.34-56.61c-0.19-10.02-0.77-19.97-2.62-29.77c-3.33-17.57-2.09-35.11-0.21-52.64
			c0.68-6.27,1.31-12.59,1.85-18.82c1.24-14.32,6.72-27.01,12.81-39.56c9.87-20.36,19.29-41,33.71-58.78
			c5.24-6.46,5.73-14.82,7.9-22.4c8.13-28.44,14.85-57.26,19.52-86.47c3.04-18.99,5.91-38.05,7.07-57.32
			c0.74-12.25,2.46-24.45,3.49-36.68c1.58-18.75-3.05-37.02-4.68-55.53c-1.19-13.54-3.46-26.99-5.09-40.49
			c-2.57-21.41-5.13-42.83-7.46-64.28c-1.72-15.84-2.99-31.74-4.61-47.59c-1.72-16.84-3.66-33.65-5.45-50.48
			c-1.54-14.53-2.91-29.08-4.52-43.61c-2.45-22.1-5.1-44.17-7.54-66.27c-2.26-20.46-4.39-40.94-6.51-61.42
			c-1.75-16.88-5.38-33.43-8.86-49.98c-9.44-44.85-17.19-90.01-25.45-135.07c-9.28-50.62-18.24-101.29-28.51-151.73
			c-11.27-55.34-25.37-110.05-36.46-165.42c-6.6-32.95-14.25-65.61-24.86-97.51c-6.62-19.92-14.96-39.12-25.88-57.19
			c-12.95-21.44-29.91-39.14-49.8-53.99c-17.92-13.38-37.01-24.91-58.17-32.64c-8.82-3.22-17.86-4.75-27.31-5.14
			c-39.64-1.65-78.58-7.59-116.77-18.75c-14.29-4.18-28.59-8.69-43.63-10.19c-10.67-1.06-21.3-0.55-31.93-0.67
			c-7.22-0.08-13.63-1.34-19.69-5.67c-6.48-4.63-13.53-8.49-20.49-12.4c-4.45-2.49-4.89-5.75-3.2-10.07
			c3.86-9.92,10.22-18.03,18.66-24.24c6.74-4.96,10.73-11.7,14.3-18.81c2.53-5.04,4.47-10.38,6.58-15.63
			c3.79-9.43,9.05-17.74,17.24-24.06c5.53-4.27,10.59-9.17,16.3-13.17c6.1-4.27,10.51-9.89,11.55-16.88
			c3.11-20.81,14.96-36.58,28.03-51.91c9.38-11,16.91-23.03,19.51-37.67c1.24-6.97,0.92-13.96,0.82-20.92
			c-0.19-13.56,1.64-26.36,9.52-37.98c7.46-11,9.97-23.59,10.83-36.78c0.78-11.91,2.56-23.77,4.15-35.62
			c0.94-7.01,3.67-13.38,7.58-19.34c5.4-8.22,8.37-17.12,8.45-27.22c0.08-9.96-2.97-18.68-9.56-25.52
			c-10.16-10.54-14.52-22.23-13.17-36.98c1.18-12.89,2.53-25.77,3.53-38.68c1.24-15.93,1.65-31.85-1.84-47.69
			c-3.5-15.88-6.47-31.89-9.39-47.89c-1.82-9.93-4.8-19.12-10.85-27.51c-11.44-15.88-14.29-34.73-17.27-53.51
			c-1.62-10.18-1.58-20.5-3.45-30.67c-2.14-11.6-9.01-19.06-18.79-24.31c-14.16-7.6-29.61-11.88-44.82-16.75
			c-4.75-1.52-9.59-2.75-14.39-4.09c-16.63-4.65-32.21-0.71-47.6,5.54c-12.31,5-24.46,10.34-37.64,13.04
			c-19.13,3.91-27.85-0.32-34.75-18.55c-2.83-7.48-4.59-15.26-4.49-23.39c0.15-12.33-0.12-24.66,0.1-36.99
			c0.21-11.7-1.93-23.14-3.21-34.68c-1.35-12.21-1.9-24.5-2.86-36.76c-1.14-14.6-2.87-29.08-7.91-42.98
			c-1.64-4.52-4-8.25-7.89-11.21c-7.75-5.89-14.3-12.92-19.09-21.51c-8.15-14.63-21.03-22.59-36.98-26.52
			c-20.04-4.94-40.3-8.23-60.82-10.38c-8.29-0.87-16.53-1.63-24.84-1.81c-1.71-0.04-3.3-0.38-4.44-1.81c-38,0-76,0-114,0
			c-7.7,3.63-16.2,2.13-24.27,3.81c-17.77,3.69-34.61,9.56-50.3,18.64c-4.7,2.72-8.36,6.68-10.77,11.56
			c-3.61,7.32-9.92,10.33-17.47,11.68c-19.61,3.51-39.27,6.76-58.79,10.7c-16.36,3.3-31.83,9.55-47.19,15.96
			c-29.07,12.13-55.84,28.16-80.13,48.21c-20.11,16.6-37.81,35.58-53.05,56.69c-14.22,19.69-28.07,39.62-39.61,61.12
			c-8.78,16.35-11.25,33.9-12.35,51.91c-0.44,7.29-0.73,14.56-1.43,21.86c-1.65,17.13-9.89,30.04-22.68,40.68
			c-5.12,4.26-10.05,8.76-15.44,12.65c-16.11,11.63-22.91,27.97-24.37,47.07c-1.05,13.69,1.06,27.2,2.7,40.73
			c1.59,13.18,3.69,26.32,4.6,39.55c0.47,6.86-0.7,13.95-1.92,20.79c-5.42,30.39-11.49,60.67-16.59,91.12
			c-2.79,16.67-5.26,33.42-5.4,50.5c-0.08,10.21,3.47,18.06,10.11,25.07c3.44,3.63,6.82,7.35,10.61,10.58
			c8.15,6.94,9.5,15.74,7.16,25.39c-1.72,7.1-3.79,14.16-6.33,21.01c-10.84,29.23-5.1,55.68,13.47,79.76
			c10.76,13.96,22.54,26.99,35.75,38.86c12.36,11.1,22.98,24.04,33.22,37.18c42.35,54.38,92.95,98.73,155.74,128.34
			c12.06,5.69,24.77,9.68,37.03,14.84c0.56,3.13-1.98,3.98-3.74,5.15c-35.27,23.44-71.95,44.43-110.47,62.07
			c-14.55,6.66-30.5,9.3-45.7,14.13c-5.7,1.81-11.43,3.56-17.05,5.59c-7.76,2.8-14.36,6.65-16.28,15.83
			c-1.29,6.16-6.71,8.91-12.07,10.99c-17.98,6.98-30.07,20.41-39.93,36.24c-3.87,6.21-7.69,12.52-10.76,19.14
			c-18.38,39.67-42.28,76.25-63.66,114.23c-14.58,25.89-26.61,52.86-36.73,80.79c-9.3,25.66-16.71,51.93-25.81,77.65
			c-21.41,60.53-42.91,121.02-64.26,181.56c-2.32,6.59-7.79,10.7-11.54,16.15c-3.19,4.64-6.79,9.14-10.9,12.97
			c-7.73,7.2-11.78,16.13-13.16,26.25c-1.7,12.41-7.72,21.49-18.33,28.15c-7.87,4.94-14.83,11.36-22.8,16.12
			c-6.13,3.66-7.68,8.21-7.24,14.82c0.72,10.81,3.66,21,7.94,30.75c8.54,19.44,19.81,36.9,37.46,49.62c6.94,5,6.47,10.25-0.82,14.85
			c-4.5,2.84-9.34,5.12-13.9,7.86c-11.72,7.05-9.47,16.34-1.35,23.58c7.98,7.12,17.25,12.82,26.86,17.15
			c24.33,10.99,36.04,31.32,44.19,55.06c4.32,12.57,9.3,24.93,14.42,37.2c7.74,18.54,22.26,31.14,38.11,42.52
			c8.64,6.2,17.17,12.58,25.61,19.07c8.04,6.19,14.48,13.78,18.35,23.27c3.36,8.23,8.39,14.93,15.88,19.93
			c5.52,3.69,10.72,7.89,15.93,12.03c12.22,9.71,26.33,13.85,41.67,14.47c15.02,0.61,29.93-0.03,44.54-4.06
			c2.8-0.77,5.51-2.03,8.61-0.22c8.91,5.19,17.95,10.17,27,15.13c3.84,2.1,4.25,4.69,1.79,8.1c-1.56,2.16-3.04,4.38-4.46,6.63
			c-4,6.34-6.02,13.16-6.01,20.77c0.02,15.34,1.35,30.54,3.97,45.62c1.76,10.13-0.89,19.92-2.2,29.73
			c-4.18,31.25-8.95,62.41-13.59,93.6c-3.71,24.95-7.67,49.86-11.33,74.81c-3.62,24.63-6.8,49.32-10.55,73.93
			c-4.94,32.48-10.32,64.89-15.37,97.36c-3.72,23.94-7.13,47.93-10.84,71.88c-3.41,21.97-7.04,43.91-10.55,65.87
			c-4.4,27.53-8.78,55.06-13.18,82.59c-3.83,23.92-7.88,47.81-11.46,71.77c-3.14,21.01-5.71,42.1-8.63,63.14
			c-2.33,16.77-4.87,33.5-7.19,50.27c-2.32,16.77-4.42,33.56-6.74,50.33c-2.41,17.42-5.05,34.81-7.43,52.24
			c-2.29,16.77-4.3,33.58-6.6,50.35c-2.34,17.1-4.98,34.15-7.32,51.25c-2.38,17.43-4.45,34.9-6.82,52.33
			c-2.82,20.72-5.77,41.42-8.73,62.12c-3,21.02-6.07,42.04-9.12,63.06c-3.1,21.34-6.24,42.68-9.32,64.03
			c-2.94,20.37-5.77,40.76-8.78,61.11c-2.14,14.44-4.67,28.83-6.73,43.28c-2.2,15.47-3.35,31.02-1.06,46.58
			c1.54,10.5,6.75,18.27,16.42,23.55c21.03,11.47,43.77,17.56,66.94,22.34c17.55,3.62,35.23,6.65,52.84,9.98
			c2.28,0.43,4.56,0.92,6.78,1.59c10.58,3.17,10.56,3.2,10.67,14.55c0.01,1.33,0.15,2.66,0.23,3.99c14,0,28,0,42,0
			c2.79-15.15,1.61-30.5,2.21-45.75c0.5-12.66-0.24-13.17-12.26-15.88c-0.97-0.22-1.98-0.22-2.96-0.41
			c-20.57-3.97-41.22-7.59-61.69-12.04c-17.24-3.75-33.95-9.25-49.63-17.67c-7.13-3.84-12.62-8.83-14.43-16.84
			c-1.97-8.74-3.36-17.64-2.78-26.64c1.29-19.9,5.29-39.45,8.1-59.15c6.29-44.01,12.97-87.97,19.33-131.97
			c4.42-30.54,8.56-61.13,12.82-91.69c4.45-31.87,8.97-63.73,13.34-95.61c4.24-30.9,8.23-61.84,12.49-92.74
			c5.62-40.74,11.65-81.43,17.02-122.2c5.03-38.18,11.34-76.15,17.15-114.21c6.16-40.35,12.87-80.61,19.22-120.93
			c6.96-44.25,13.45-88.59,20.77-132.78c7.7-46.49,13.86-93.21,20.93-139.79c6.13-40.35,12.11-80.73,17.71-121.15
			c1.36-9.82,3.95-19.63,2.8-29.71c-1.13-9.89-2.37-19.76-3.53-29.64c-1.62-13.84-1.4-27.3,8.15-38.81c1.5-1.8,2.44-3.88,3.11-6.18
			c7.31-25.21,14.51-50.45,22.24-75.53c1.7-5.5-0.06-7.52-4.56-9.81c-18.67-9.5-37.22-19.24-55.69-29.12
			c-3.52-1.88-6.81-2.34-10.48-1.26c-12.94,3.81-26.2,4.33-39.57,4c-13.92-0.35-27.03-3.22-38.46-11.72
			c-7.21-5.36-14.59-10.49-21.69-15.98c-4.25-3.28-7.78-7.54-9.4-12.63c-2.53-7.93-7.5-13.94-13.2-19.65
			c-10.89-10.92-24.04-18.93-36.25-28.12c-14.21-10.7-24.57-24.15-30.86-40.75c-4.13-10.87-8.38-21.71-12.23-32.68
			c-7.11-20.26-18.59-36.59-38.76-45.93c-6.3-2.92-12.04-7.05-17.95-10.78c-2.81-1.77-5.58-3.69-8.06-5.89
			c-8.01-7.12-7.32-15.72,1.73-21.29c3.96-2.43,8.29-4.25,12.29-6.61c6.75-3.99,9.51-9.36,0.99-15.14
			c-9.16-6.2-16.35-14.46-22.45-23.76c-10.74-16.38-18.49-33.68-19.47-53.63c-0.19-3.94,0.89-5.99,3.95-8.14
			c10.07-7.08,19.84-14.58,29.88-21.7c5.51-3.91,9.08-9.09,9.84-15.6c1.69-14.57,8.49-26.27,18.64-36.47
			c3.27-3.28,5.82-7.27,8.96-10.69c3.65-3.98,6.26-8.4,8.08-13.53c24.56-69.19,49.42-138.28,72.46-208
			c11.6-35.1,24.04-69.81,42.53-101.97c22.88-39.8,46.29-79.27,67.1-120.25c9.48-18.66,22.74-34.49,43.42-42.15
			c4.66-1.73,7.99-4.88,9.31-9.7c2.07-7.53,7.2-11.58,14.42-13.65c3.5-1,6.85-2.52,10.33-3.59c14.29-4.39,28.91-7.89,42.84-13.21
			c24.91-9.51,48.04-22.75,70.98-36.27c32.43-19.11,63.36-40.48,93.94-62.39c2.68-1.92,5.81-3.54,5.53-7.61
			c-0.3-4.36,0.68-8.58,1.3-12.86c0.66-4.58-0.34-7.13-6.11-7.63c-13.24-1.14-26.3-3.83-39.2-7.14
			c-71.81-18.38-129.63-58.93-178.33-113.41c-22.6-25.29-43.13-52.37-68.05-75.64c-10.68-9.97-19.5-21.83-26.4-34.89
			c-6.32-11.96-9.73-24.39-8-38.25c1.5-12.03,4.72-23.61,9.09-34.63c5.72-14.43,1.75-25.06-9.31-34.34
			c-1.02-0.85-2.17-1.56-3.13-2.48c-8.88-8.47-14.29-18.27-12.12-31.11c0.5-2.93,0.05-6.01,0.43-8.97
			c3.76-29.32,8.43-58.51,14.56-87.41c5.9-27.85,9.17-55.53,3.59-83.93c-2.29-11.66-3.12-23.68-3.03-35.73
			c0.14-20.27,6.95-36.97,23.6-49.27c5.88-4.34,11.5-9.09,16.96-13.96c8.4-7.48,14.23-16.46,16.31-27.84
			c2.46-13.45,2.58-27.07,3.78-40.61c1.01-11.39,3.83-22.22,9.01-32.42c10.59-20.86,24.36-39.66,37.73-58.74
			c9-12.85,19.29-24.64,30.31-35.7c24.67-24.75,53.25-44.1,85.06-58.49c19.4-8.78,39.16-16.65,60.35-20.29
			c15.74-2.7,31.39-5.86,47.13-8.52c7-1.18,12.68-3.83,15.89-10.48c3.04-6.32,8.36-10.22,14.29-13.45
			c7.92-4.32,16.24-7.67,24.84-10.34c25.09-7.8,51.1-8.5,76.99-9.4c26.63-0.93,53.24,0.64,79.76,2.98
			c25.84,2.28,51.55,5.38,76.66,12.47c13.17,3.72,23.62,10.36,30.29,22.47c4.07,7.39,9.4,13.67,16.17,18.77
			c6.1,4.6,9.35,11.03,11.4,18.26c3.37,11.89,4.7,24.09,5.6,36.33c0.98,13.24,2.35,26.44,3.65,39.65
			c1.43,14.46,2.92,28.89,1.54,43.68c-1.48,15.85,0.07,31.85,9.12,46.13c5.26,8.29,11.81,11.49,21.75,9.79
			c13.59-2.32,26.29-6.98,38.85-12.31c15.27-6.47,30.98-10.76,47.52-5.97c14.67,4.25,29.14,9.26,43.6,14.21
			c4.05,1.39,7.83,3.65,11.64,5.69c10.55,5.64,16,14.57,16.96,26.43c0.53,6.61,1.14,13.22,1.98,19.8
			c2.67,20.88,6.38,41.4,19.72,58.77c3.26,4.25,4.7,9.49,5.73,14.78c2.53,13.03,5.1,26.05,7.73,39.06c3.03,15,5.8,29.99,4.3,45.44
			c-1.09,11.23-1.64,22.51-2.84,33.72c-1.88,17.51-2.3,33.84,11.96,48.07c11.09,11.06,11.53,25.65,4.51,39.91
			c-2.06,4.18-4.38,8.22-6.6,12.32c-2.07,3.81-3.95,7.64-4.42,12.08c-1.43,13.2-3.25,26.35-4.41,39.57
			c-0.8,9.06-2.38,17.64-7.68,25.33c-8.65,12.53-11.67,26.58-10.58,41.65c0.14,1.99,0.09,4-0.01,6
			c-0.62,12.49-3.31,24.38-10.84,34.69c-5.1,6.98-10.05,14.12-15.74,20.6c-8.78,10-14.97,21.08-17.28,34.26
			c-1.62,9.23-5.95,16.91-13.94,22.07c-16.85,10.87-28.25,25.72-34.36,44.9c-2,6.29-5.04,12.88-10.46,16.75
			c-14.83,10.58-28.47,23.17-46.03,29.42c-5.59,1.99-10.02,4.91-12.72,10.32c-3.29,6.58-6.87,12.84-13.78,16.6
			c-3.26,1.78-3.29,4.83-0.13,7.21c1.85,1.39,3.93,2.51,5.93,3.69c21.77,12.86,43.92,25.1,65.16,38.78
			c12.08,7.78,24.37,11.41,38.51,10.38c13.73-1,27.17,0.89,40.43,4.75c12.13,3.53,24.56,6.01,36.65,9.67
			c24.72,7.48,50.15,9.84,75.72,11.52c16.25,1.07,32.56,1.79,47.69,9.01c9.01,4.3,17.85,8.88,26.44,13.98
			c38.56,22.93,66.09,55.05,82.38,97.01c8.44,21.74,15.54,43.85,20.73,66.52c8.15,35.61,15.23,71.47,23.64,107.01
			c15.75,66.59,28.82,133.71,40.78,201.07c7.42,41.83,15.3,83.58,23.21,125.32c3.89,20.56,9.26,40.88,12.25,61.56
			c4.13,28.55,6.71,57.32,9.85,86c3,27.37,5.91,54.76,8.8,82.15c3.77,35.62,7.56,71.24,11.19,106.88
			c2.72,26.73,5.95,53.4,9.54,80.03c3.72,27.55,6.32,54.91,3.56,83.02c-4.49,45.72-11.5,90.85-23.27,135.21
			c-3.96,14.93-6.41,30.66-18.45,42.18c-1.62,1.55-2.48,3.91-3.64,5.93c-8.63,15.01-16.05,30.63-23.39,46.3
			c-2.24,4.79-4.93,9.41-5.85,14.78c-3.7,21.65-5.88,43.44-5.91,65.42c-0.01,3.34,0.33,6.59,1.11,9.87
			c2.91,12.33,4.12,25.01,3.93,37.55c-0.23,14.9-2.23,29.79-3.79,44.64c-0.87,8.32-4.55,15.25-12.15,19.52
			c-4.63,2.6-9.3,5.16-14.04,7.55c-2.16,1.08-4.27,2.07-4.76,4.67c-2.71,14.45-10.15,28.6-2.97,43.72
			c17.67,82.13,35.26,164.29,53.04,246.4c15.67,72.38,32.38,144.54,46.58,217.22c15.16,77.59,32.33,154.8,45.44,232.79
			c9.07,53.94,18.05,107.9,27.12,161.84c7.81,46.46,15.57,92.93,23.68,139.34c1.07,6.1,0.72,11.16-3.5,15.74
			C2163.73,3681,2181.07,3681,2198.4,3681z"/>
		<path class="st2" d="M1514.2,3568.54c-0.65-5.27-3.36-6.01-7.34-5.38c-6.63,1.04-13.28,1.08-19.92,0.75
			c-26.99-1.33-53.41-6.46-79.75-12.1c-29.58-6.33-59-13.47-88.94-18.02c-9.85-1.5-19.76-3.15-29.73-1.17
			c-10.34,2.05-14.43,6.58-14.27,17.02c0.12,8.02-1.22,15.88-1.51,23.84c-0.66,17.92-1.84,35.83-2.28,53.76
			c-0.44,17.93-2.92,35.78-2.06,53.76c7.33,0,14.67,0,22,0c3.82-21.9,9.94-43.29,14.64-64.99c2.74-12.63,5.73-25.21,8.79-37.78
			c1.9-7.82,2.33-8.03,10.01-6.46c21.43,4.4,42.88,8.72,64.26,13.34c27.87,6.03,55.71,12.2,84.06,15.57c4,0.48,5.94,1.73,6.13,5.97
			c1.1,24.85,3.88,49.58,6.12,74.34c14.67,0,29.33,0,44,0c0.85-6.06-1.1-11.87-1.85-17.75
			C1522.55,3631.66,1518.12,3600.13,1514.2,3568.54z"/>
	</g>
	<g id="green">
		<path class="st3" d="M949.33,13.86c-46.02,18.53-87.2,44.33-121.72,80.23c-28.12,29.25-50.3,62.86-71.15,97.42
			c-10.73,17.78-15.94,37.15-16.41,57.91c-0.2,8.63-1.02,17.26-1.73,25.87c-1.54,18.82-8.98,34.56-24.14,46.37
			c-6.04,4.71-11.56,10.08-17.68,14.68c-14.32,10.75-22.92,24.78-25.39,42.53c-1.06,7.61-1.12,15.26-0.9,22.92
			c0.49,16.99,3.41,33.72,5.44,50.54c1.75,14.56,3.11,29.1,0.43,43.69c-5.53,30.08-11.46,60.09-16.47,90.26
			c-3.64,21.94-7.72,43.84-7.74,66.3c-0.01,10.52,3.59,18.73,10.54,25.96c3.7,3.84,7.35,7.75,11.31,11.31
			c9.77,8.78,12.39,18.98,7.9,31.5c-4.04,11.26-7.85,22.66-10.1,34.47c-3.47,18.13-2.73,35.79,6.4,52.4
			c4.33,7.88,8.84,15.65,14.39,22.78c8.62,11.05,17.99,21.42,28.01,31.2c17.17,16.77,34.1,33.74,48.33,53.2
			c9.65,13.19,20.82,25.15,32.04,36.97c26.94,28.4,56.84,53.28,89.96,74.23c2.45,1.55,5.54,2.46,6.75,5.64
			c-1.12,2.38-3.54,2.79-5.55,3.7c-15.21,6.88-30.92,12.3-47.24,15.88c-15.96,3.5-31.61,7.97-46.75,14.19
			c-5.26,2.16-9.37,5.48-10.73,11c-2.06,8.32-7.7,12.72-15.05,16.03c-10.38,4.67-19.85,10.62-27.65,19.26
			c-10.62,11.76-18.6,25.16-25.85,39.04c-10.49,20.07-20.16,40.55-31.77,60.04c-15,25.18-29.85,50.45-44.06,76.08
			c-20.29,36.57-33.64,75.99-46.72,115.56c-24.23,73.33-50.75,145.87-76.12,218.81c-6.15,17.67-14.1,33.49-27.27,46.78
			c-10.51,10.61-18.12,22.88-19.75,38.22c-1.09,10.32-6.99,17.75-15.16,23.64c-8.1,5.85-15.72,12.58-24.42,17.32
			c-10.21,5.57-13,13.27-10.77,23.86c0.48,2.27,0.77,4.58,1.32,6.83c7.08,28.97,21.07,53.71,44.61,72.58
			c1.82,1.46,3.6,2.97,5.32,4.54c3.35,3.06,2.88,6.38,0.62,9.85c-1.72,2.65-4.36,4.05-7.02,5.44c-4.13,2.16-8.43,4.04-12.39,6.47
			c-10.57,6.5-11.54,16.14-2.52,24.71c2.4,2.28,5.14,4.26,7.95,6.01c9.61,5.99,19.07,12.28,29.04,17.6
			c15.73,8.4,26.56,20.84,33.3,37.13c1.91,4.61,3.99,9.16,5.74,13.83c5.85,15.58,11.17,31.36,18.21,46.47
			c4.11,8.82,9.37,16.79,16.21,23.81c12.19,12.51,27,21.64,40.81,32.05c14.22,10.73,27.83,21.83,33.17,39.96
			c1.26,4.26,4.82,7.31,8.12,9.93c9.37,7.46,18.98,14.63,28.77,21.53c9.45,6.66,20.3,9.79,31.71,11.18
			c5.94,0.72,11.81,1.64,17.2,4.65c13.96,7.79,28.05,15.34,42.01,23.13c6.73,3.75,6.76,3.97,2.55,10.37
			c-4.99,7.59-9.29,15.28-9.4,24.8c-0.18,16.68,1.48,33.2,3.75,49.68c0.92,6.65,1.03,13.22,0.02,19.86
			c-2.41,15.76-4.71,31.53-7,47.3c-3.91,26.96-7.78,53.93-11.65,80.9c-4.82,33.54-9.55,67.09-14.46,100.62
			c-4.28,29.26-8.65,58.51-13.17,87.73c-4.82,31.19-9.88,62.34-14.82,93.51c-5.14,32.49-10.23,64.98-15.4,97.46
			c-3.45,21.65-7.06,43.27-10.5,64.92c-5.26,33.15-10.6,66.28-15.58,99.47c-5.07,33.84-9.83,67.73-14.55,101.62
			c-3.8,27.31-7.22,54.68-10.99,82c-4.22,30.6-8.86,61.15-12.93,91.77c-4.86,36.56-10.39,73.03-14.86,109.65
			c-4.5,36.92-10.18,73.71-15.4,110.54c-4.2,29.61-8.46,59.22-12.73,88.82c-4.56,31.57-9.03,63.16-13.89,94.68
			c-0.68,4.42,0.46,6.58,3.93,8.93c12.2,8.25,25.5,14.4,38.62,20.93c3.51,1.75,7.66,2.51,10.12,6.05c57.33,0,114.67,0,172,0
			c-0.08-1.33-0.22-2.66-0.23-3.99c-0.1-11.35-0.09-11.38-10.67-14.55c-2.22-0.67-4.5-1.16-6.78-1.59
			c-17.61-3.32-35.29-6.36-52.84-9.98c-23.17-4.78-45.92-10.86-66.94-22.34c-9.66-5.27-14.87-13.05-16.42-23.55
			c-2.29-15.57-1.13-31.12,1.06-46.58c2.05-14.45,4.59-28.84,6.73-43.28c3.01-20.36,5.84-40.74,8.78-61.11
			c3.08-21.35,6.22-42.68,9.32-64.03c3.05-21.02,6.12-42.03,9.12-63.06c2.95-20.7,5.91-41.4,8.73-62.12
			c2.37-17.43,4.44-34.9,6.82-52.33c2.33-17.1,4.97-34.15,7.32-51.25c2.3-16.77,4.31-33.58,6.6-50.35
			c2.38-17.43,5.02-34.82,7.43-52.24c2.32-16.77,4.42-33.56,6.74-50.33c2.32-16.77,4.87-33.5,7.19-50.27
			c2.92-21.04,5.49-42.13,8.63-63.14c3.58-23.96,7.63-47.85,11.46-71.77c4.4-27.53,8.78-55.06,13.18-82.59
			c3.51-21.96,7.15-43.89,10.55-65.87c3.71-23.94,7.12-47.93,10.84-71.88c5.05-32.46,10.43-64.88,15.37-97.36
			c3.74-24.61,6.93-49.3,10.55-73.93c3.66-24.95,7.62-49.86,11.33-74.81c4.64-31.18,9.4-62.35,13.59-93.6
			c1.31-9.81,3.96-19.6,2.2-29.73c-2.62-15.08-3.95-30.29-3.97-45.62c-0.01-7.61,2.02-14.43,6.01-20.77
			c1.42-2.25,2.9-4.47,4.46-6.63c2.46-3.42,2.05-6-1.79-8.1c-9.05-4.95-18.09-9.94-27-15.13c-3.1-1.81-5.81-0.55-8.61,0.22
			c-14.61,4.03-29.52,4.67-44.54,4.06c-15.34-0.62-29.46-4.77-41.67-14.47c-5.21-4.14-10.4-8.34-15.93-12.03
			c-7.49-5-12.52-11.7-15.88-19.93c-3.87-9.48-10.31-17.08-18.35-23.27c-8.43-6.49-16.96-12.86-25.61-19.07
			c-15.86-11.38-30.38-23.98-38.11-42.52c-5.12-12.27-10.11-24.63-14.42-37.2c-8.15-23.74-19.86-44.07-44.19-55.06
			c-9.6-4.34-18.88-10.04-26.86-17.15c-8.11-7.24-10.37-16.53,1.35-23.58c4.56-2.74,9.41-5.02,13.9-7.86
			c7.29-4.6,7.76-9.85,0.82-14.85c-17.65-12.72-28.92-30.18-37.46-49.62c-4.28-9.75-7.22-19.94-7.94-30.75
			c-0.44-6.61,1.11-11.16,7.24-14.82c7.97-4.76,14.93-11.18,22.8-16.12c10.61-6.66,16.63-15.74,18.33-28.15
			c1.38-10.12,5.43-19.04,13.16-26.25c4.11-3.82,7.71-8.33,10.9-12.97c3.75-5.45,9.22-9.56,11.54-16.15
			c21.35-60.55,42.86-121.04,64.26-181.56c9.1-25.72,16.51-51.99,25.81-77.65c10.12-27.92,22.15-54.9,36.73-80.79
			c21.39-37.98,45.29-74.56,63.66-114.23c3.07-6.62,6.89-12.94,10.76-19.14c9.86-15.83,21.96-29.25,39.93-36.24
			c5.36-2.08,10.78-4.83,12.07-10.99c1.92-9.18,8.53-13.03,16.28-15.83c5.62-2.03,11.35-3.78,17.05-5.59
			c15.2-4.84,31.14-7.47,45.7-14.13c38.52-17.63,75.2-38.62,110.47-62.07c1.77-1.17,4.31-2.02,3.74-5.15
			c-12.26-5.16-24.97-9.15-37.03-14.84c-62.79-29.61-113.39-73.96-155.74-128.34c-10.24-13.14-20.86-26.08-33.22-37.18
			c-13.21-11.87-24.99-24.9-35.75-38.86c-18.56-24.08-24.3-50.53-13.47-79.76c2.54-6.85,4.61-13.91,6.33-21.01
			c2.34-9.66,0.99-18.45-7.16-25.39c-3.79-3.23-7.18-6.96-10.61-10.58c-6.64-7.01-10.19-14.85-10.11-25.07
			c0.13-17.07,2.6-33.82,5.4-50.5c5.1-30.44,11.17-60.72,16.59-91.12c1.22-6.84,2.39-13.93,1.92-20.79
			c-0.91-13.23-3.01-26.37-4.6-39.55c-1.64-13.53-3.74-27.04-2.7-40.73c1.46-19.1,8.26-35.44,24.37-47.07
			c5.38-3.89,10.32-8.4,15.44-12.65c12.79-10.64,21.04-23.55,22.68-40.68c0.7-7.3,0.99-14.57,1.43-21.86
			c1.1-18.01,3.57-35.56,12.35-51.91c11.54-21.49,25.39-41.43,39.61-61.12c15.24-21.11,32.94-40.09,53.05-56.69
			c24.29-20.05,51.05-36.08,80.13-48.21c15.36-6.41,30.84-12.66,47.19-15.96c19.52-3.94,39.18-7.2,58.79-10.7
			c7.56-1.35,13.87-4.36,17.47-11.68c2.41-4.88,6.07-8.84,10.77-11.56c15.69-9.08,32.52-14.95,50.3-18.64
			c8.07-1.68,16.57-0.18,24.27-3.81c-68.67,0-137.33,0-206,0C973.15,5.73,960.99,9.17,949.33,13.86z"/>
		<path class="st3" d="M2263.02,3677.27c-6.26-37.36-12.51-74.73-18.68-112.11c-7.09-42.95-14.29-85.88-23.09-128.53
			c-6.25-30.28-12.48-60.57-18.39-90.91c-10.93-56.12-21.79-112.25-33.95-168.12c-8.27-38.01-16.48-76.04-24.7-114.07
			c-11.72-54.27-23.4-108.54-35.13-162.81c-8.57-39.64-17.85-79.13-25.19-119.03c-0.86-4.69-0.14-7.43,3.44-10.25
			c6.04-4.75,8.96-11.04,9.85-18.86c1.25-10.89,2.61-21.77,3.8-32.68c2.38-21.75,1.22-43.15-3.53-64.41
			c-0.96-4.3-1.16-8.53-1.15-12.88c0.03-19.34,2.22-38.52,4.37-57.69c1.49-13.31,4.45-26.18,11.48-37.86
			c2.22-3.69,3.59-7.87,5.51-11.75c10.02-20.29,19.22-41.08,34.45-58.3c1.87-2.11,2.27-4.79,3.01-7.32
			c7.41-25.56,13.87-51.37,19.37-77.41c4.74-22.45,8.05-45.1,11.01-67.86c3.35-25.75,6.54-51.57,6.54-77.45
			c0-25.23-5.87-50.11-8.51-75.22c-2.19-20.82-5.57-41.5-7.29-62.39c-1.75-21.2-4.14-42.36-6.36-63.52
			c-2.43-23.13-5.01-46.25-7.47-69.38c-2.36-22.14-4.56-44.3-6.99-66.44c-2.97-27.09-6.09-54.17-9.18-81.25
			c-2.03-17.83-2.88-35.91-6.42-53.44c-8.5-42.03-16.91-84.07-24.66-126.25c-8.17-44.47-16.54-88.9-24.36-133.43
			c-8.23-46.84-17.48-93.46-28.02-139.83c-9.22-40.53-18.48-81.04-26.87-121.77c-7.71-37.47-16.31-74.76-29.14-110.92
			c-8.17-23-17.99-45.21-31.76-65.43c-24.95-36.61-59.74-61.2-99.21-79.82c-9.95-4.69-20.32-8.71-31.36-9.73
			c-19.88-1.84-39.81-3.03-59.71-4.65c-8.6-0.7-17.2-1.32-25.62-3.59c-12.53-3.37-25.07-6.72-37.74-9.52
			c-23.97-5.3-47.07-14.9-72.13-14.93c-0.41,0-0.82-0.81-1.38-1.41c4.91-16.52,12.22-31.42,27.6-41.11
			c3.92-2.47,7.16-5.98,10.92-8.73c7.88-5.77,13.03-13.18,14.73-22.9c3.02-17.25,11.09-31.87,22.9-44.67
			c4.27-4.64,7.89-9.88,11.79-14.86c11.7-14.95,17.85-31.62,17.07-50.91c-0.78-19.28,2.35-37.75,13.75-54.12
			c4.01-5.76,6.56-12.28,7.3-19.43c1.36-13.22,3.36-26.39,4.27-39.64c0.93-13.52,3.5-26.3,11.45-37.6c1.32-1.88,2.16-4.12,3.14-6.23
			c8.28-17.82,6.02-34.2-6.64-49.22c-3.22-3.82-6.31-7.76-9.2-11.82c-2.54-3.56-4.42-7.54-4.43-12.02
			c-0.01-7.32-0.08-14.67,0.42-21.97c1.05-15.26,2.87-30.47,3.59-45.74c0.55-11.61,1.27-23.33-0.96-34.89
			c-3.78-19.59-7.75-39.14-11.51-58.73c-1.89-9.84-3.86-19.52-10.23-27.77c-9.81-12.7-14.25-27.65-17.52-43.1
			c-3.31-15.67-3.73-31.67-5.93-47.46c-1.65-11.88-6.81-21.38-17.41-27.68c-6.05-3.59-12.29-6.75-18.86-9.13
			c-15.65-5.67-31.41-11.05-47.52-15.28c-10.02-2.63-20.16-4.28-30.56-1.7c-2.52,0.62-5.42,0.73-7.93,0.15
			c-17.11-3.91-32.99,0.52-48.65,6.73c-9.28,3.68-18.49,7.53-28.08,10.43c-4.25,1.29-7.07,0.23-9.58-2.98
			c-4.36-5.59-7.54-11.79-9.26-18.66c-2.28-9.05-3.7-18.21-3.76-27.59c-0.16-23.62,1.2-47.27-2.6-70.78
			c-1.05-6.53-1.58-13.19-1.99-19.85c-0.91-14.58-2.14-29.17-4.2-43.63c-2.12-14.93-5.57-29.6-18.8-39.42
			c-0.45-0.33-0.52-1.17-0.76-1.78c-58.67,0-117.33,0-176,0c1.14,1.43,2.73,1.77,4.44,1.81c8.31,0.18,16.55,0.94,24.84,1.81
			c20.53,2.15,40.79,5.44,60.82,10.38c15.95,3.94,28.83,11.89,36.98,26.52c4.79,8.59,11.33,15.62,19.09,21.51
			c3.9,2.96,6.25,6.69,7.89,11.21c5.03,13.9,6.76,28.38,7.91,42.98c0.96,12.25,1.52,24.55,2.86,36.76
			c1.28,11.55,3.42,22.98,3.21,34.68c-0.22,12.33,0.05,24.66-0.1,36.99c-0.1,8.14,1.66,15.92,4.49,23.39
			c6.9,18.23,15.62,22.46,34.75,18.55c13.18-2.7,25.33-8.04,37.64-13.04c15.4-6.25,30.98-10.19,47.6-5.54
			c4.8,1.34,9.64,2.57,14.39,4.09c15.21,4.87,30.66,9.15,44.82,16.75c9.78,5.25,16.65,12.71,18.79,24.31
			c1.87,10.18,1.84,20.49,3.45,30.67c2.98,18.78,5.83,37.62,17.27,53.51c6.05,8.39,9.03,17.58,10.85,27.51
			c2.93,16,5.9,32.01,9.39,47.89c3.49,15.84,3.07,31.75,1.84,47.69c-1,12.91-2.35,25.79-3.53,38.68
			c-1.35,14.75,3.01,26.44,13.17,36.98c6.59,6.84,9.65,15.55,9.56,25.52c-0.08,10.1-3.05,19-8.45,27.22
			c-3.91,5.95-6.64,12.33-7.58,19.34c-1.59,11.85-3.37,23.7-4.15,35.62c-0.86,13.18-3.37,25.78-10.83,36.78
			c-7.88,11.62-9.71,24.42-9.52,37.98c0.1,6.96,0.42,13.94-0.82,20.92c-2.59,14.63-10.13,26.67-19.51,37.67
			c-13.07,15.33-24.91,31.1-28.03,51.91c-1.05,7-5.46,12.61-11.55,16.88c-5.71,4-10.77,8.9-16.3,13.17
			c-8.18,6.32-13.44,14.63-17.24,24.06c-2.11,5.25-4.05,10.59-6.58,15.63c-3.57,7.11-7.55,13.85-14.3,18.81
			c-8.44,6.21-14.8,14.32-18.66,24.24c-1.68,4.32-1.25,7.57,3.2,10.07c6.97,3.9,14.02,7.76,20.49,12.4
			c6.06,4.34,12.47,5.59,19.69,5.67c10.64,0.12,21.27-0.4,31.93,0.67c15.04,1.5,29.34,6.01,43.63,10.19
			c38.19,11.16,77.13,17.1,116.77,18.75c9.45,0.39,18.49,1.92,27.31,5.14c21.16,7.72,40.25,19.26,58.17,32.64
			c19.89,14.86,36.85,32.55,49.8,53.99c10.92,18.07,19.25,37.27,25.88,57.19c10.6,31.89,18.26,64.55,24.86,97.51
			c11.09,55.37,25.19,110.08,36.46,165.42c10.27,50.44,19.24,101.11,28.51,151.73c8.26,45.07,16.01,90.23,25.45,135.07
			c3.48,16.56,7.11,33.11,8.86,49.98c2.12,20.48,4.25,40.95,6.51,61.42c2.44,22.1,5.09,44.17,7.54,66.27
			c1.61,14.53,2.98,29.08,4.52,43.61c1.79,16.83,3.73,33.64,5.45,50.48c1.62,15.86,2.89,31.75,4.61,47.59
			c2.33,21.44,4.88,42.86,7.46,64.28c1.62,13.51,3.9,26.95,5.09,40.49c1.62,18.5,6.26,36.78,4.68,55.53
			c-1.03,12.24-2.75,24.43-3.49,36.68c-1.16,19.27-4.03,38.33-7.07,57.32c-4.67,29.2-11.39,58.02-19.52,86.47
			c-2.17,7.58-2.66,15.94-7.9,22.4c-14.43,17.78-23.84,38.42-33.71,58.78c-6.09,12.55-11.56,25.24-12.81,39.56
			c-0.54,6.24-1.17,12.56-1.85,18.82c-1.89,17.54-3.13,35.07,0.21,52.64c1.86,9.8,2.43,19.75,2.62,29.77
			c0.36,19.04-1.55,37.85-4.34,56.61c-1.19,8-5.39,14.24-12.39,18.41c-4.85,2.89-9.82,5.54-14.99,7.9
			c-6.08,2.78-6.58,4.32-5.13,10.97c8.05,37,16.14,73.99,24.19,110.99c9.4,43.17,18.89,86.31,28.15,129.51
			c12.73,59.42,25.48,118.85,37.84,178.35c8.44,40.64,16.26,81.41,24.34,122.12c6.99,35.18,14.25,70.31,20.83,105.56
			c4.63,24.79,8.29,49.77,12.46,74.65c5.54,33.07,11.2,66.12,16.75,99.19c5.05,30.12,10.05,60.25,15.01,90.38
			c3.07,18.66,6.02,37.35,9.02,56.02c22,0,44,0,66,0C2263.93,3679.76,2263.23,3678.55,2263.02,3677.27z"/>
		<path class="st4" d="M1472.15,3600.69c-28.35-3.37-56.19-9.55-84.06-15.57c-21.38-4.62-42.83-8.94-64.26-13.34
			c-7.67-1.58-8.1-1.36-10.01,6.46c-3.05,12.56-6.05,25.14-8.79,37.78c-4.7,21.7-10.82,43.09-14.64,64.99c13.33,0,26.67,0,40,0
			c-0.64-8.44,2.25-16.36,3.65-24.49c2.24-13.06,4.44-26.13,6.81-39.17c1.77-9.73,4.74-11.73,14.39-9.78
			c3.24,0.65,6.48,1.54,9.54,2.79c26.5,10.78,54.26,17.41,81.83,24.6c3.66,0.96,3.76,2.8,4.01,5.51
			c1.22,13.52,2.51,27.03,3.78,40.55c10,0,20,0,30,0c-2.24-24.77-5.02-49.49-6.12-74.34
			C1478.09,3602.42,1476.16,3601.17,1472.15,3600.69z"/>
	</g>
	<g id="blue">
		<path class="st5" d="M482.9,3691l1.6-11.39c1-7.14,1.97-14.43,2.91-21.48c2.17-16.27,4.41-33.09,7.25-49.63
			c2.41-13.99,4.25-28.4,6.04-42.33c0.98-7.63,1.99-15.52,3.09-23.29c1.15-8.14,2.17-16.5,3.17-24.59
			c1.19-9.73,2.43-19.79,3.9-29.69c1.13-7.63,2.13-15.46,3.09-23.04c1.64-12.86,3.33-26.16,5.78-39.29c1.46-7.8,2.25-15.7,3.1-24.07
			c0.52-5.18,1.06-10.54,1.77-15.86c1.2-9,2.55-18.09,3.85-26.89c1.08-7.32,2.21-14.88,3.23-22.31c1.45-10.48,2.84-21.18,4.18-31.52
			c0.89-6.89,1.79-13.77,2.71-20.65c1.25-9.35,2.56-18.83,3.84-28l2.4-17.29c1.83-13.24,3.73-26.94,5.63-40.41
			c2.25-15.88,4.62-32.29,7.25-50.19c0.85-5.8,1.66-11.74,2.45-17.48c1.92-14.06,3.91-28.61,6.7-42.89
			c2.47-12.66,4.26-25.78,5.98-38.46c1.43-10.49,2.9-21.34,4.78-32.04c2.84-16.26,5.36-32.95,7.8-49.1l1.15-7.59
			c3.32-21.88,7.04-44.02,10.65-65.43c1.4-8.3,2.8-16.6,4.18-24.91c3.22-19.43,6.18-39.31,9.03-58.53l0.03-0.21
			c1.21-8.18,2.56-16.44,3.85-24.43c0.91-5.62,1.82-11.24,2.7-16.87c1.38-8.9,2.74-17.81,4.09-26.71
			c1.18-7.78,2.37-15.57,3.57-23.35c1.03-6.66,2.08-13.31,3.14-19.96c1.23-7.74,2.45-15.47,3.64-23.22
			c1.12-7.31,2.21-14.62,3.29-21.93c1.9-12.81,3.87-26.05,6.01-39.08c1.3-7.96,2.48-16.13,3.62-24.02
			c1.61-11.16,3.27-22.7,5.35-34.08c1.8-9.84,3.11-20.06,4.39-29.96c0.8-6.18,1.62-12.57,2.56-18.88c1.01-6.78,1.87-13.75,2.71-20.5
			c1.26-10.13,2.55-20.59,4.4-30.96c1.3-7.32,2.11-14.67,2.97-22.45c0.53-4.77,1.07-9.71,1.74-14.6c0.67-4.92,1.32-9.84,1.98-14.77
			c2.24-16.87,4.56-34.31,7.46-51.45c3.11-18.39,1.43-36.6-0.38-50.42c-0.7-5.33-1.28-10.71-1.84-15.91
			c-0.35-3.3-0.71-6.59-1.1-9.89c-1.78-15.2,4.13-27.88,10.15-38.28c0.03-0.04,0.05-0.09,0.09-0.15c-0.17-0.11-0.33-0.22-0.5-0.33
			c-6.59-4.33-13.57-8.39-20.33-12.31c-4.18-2.42-8.5-4.93-12.73-7.51c-6.7-4.07-13.14-6.26-19.7-6.68
			c-14.37-0.93-27.94-6.03-42.69-16.04c-5.69-3.86-11.05-8.07-16.23-12.14c-3.12-2.45-6.35-4.99-9.54-7.35
			c-8.22-6.1-13.82-14.07-16.21-23.06c-0.99-3.72-2.98-7.06-6.65-11.15c-10.1-11.25-22.27-20.05-35.15-29.38l-1.44-1.04
			c-1.49-1.08-2.99-2.15-4.49-3.22c-14.05-10.06-28.59-20.46-37.96-37.28c-8.69-15.6-15.45-30.74-20.67-46.28
			c-2.54-7.58-5.64-15.27-8.64-22.72c-0.75-1.87-1.51-3.74-2.25-5.6c-6.73-16.86-17.55-28.93-33.07-36.9
			c-6.52-3.35-12.66-7.21-18.6-10.95c-3.06-1.92-6.22-3.92-9.32-5.76c-5.84-3.47-10.32-7.91-14.29-12.2
			c-7-7.55-8.04-14.63-7.69-19.24c0.36-4.59,2.47-11.38,10.49-17.71c2.64-2.08,5.41-3.5,7.85-4.75c1.02-0.52,1.99-1.02,2.85-1.51
			c1.14-0.66,2.31-1.29,3.47-1.92c1.95-1.06,3.8-2.06,5.38-3.13c-21.02-15.91-36.74-37.66-48.03-66.45
			c-5.24-13.36-7.42-27.3-6.47-41.44c0.44-6.56,3.37-11.67,8.96-15.59c4.18-2.93,8.4-6.07,12.48-9.1
			c5.94-4.42,12.09-8.98,18.47-13.21c8.76-5.81,12.99-11.89,13.73-19.72c1.88-19.93,12.77-34.05,22.05-44.12
			c4.73-5.14,9.22-10.55,12.6-14.68c3.75-4.59,6.54-9.54,8.52-15.14c4.82-13.63,9.83-27.43,14.67-40.78
			c8.96-24.7,18.22-50.25,26.63-75.53c5.94-17.86,12.4-35.81,18.65-53.16c8.56-23.78,17.42-48.37,24.95-72.85
			c8.93-29,17.74-54.16,26.94-76.94c10.2-25.24,22.57-50.22,37.8-76.37c4.68-8.04,9.49-16.17,14.14-24.03
			c18.04-30.53,36.69-62.09,52.01-94.57c7.1-15.04,16.69-29.93,29.33-45.52c9.22-11.37,21.46-18.22,33.31-23.94
			c6.97-3.36,10.15-6.6,11.72-11.95c3.45-11.7,14.16-16.33,19.31-18.56c11.09-4.8,22.51-7.58,33.55-10.26
			c2.9-0.71,5.88-1.43,8.8-2.18c-20.52-16.18-39.35-33.47-56.09-51.51c-16.21-17.48-30.51-34.38-43.72-51.69
			c-10.55-13.82-22.86-25.88-35.89-38.66c-2.28-2.23-4.56-4.47-6.83-6.71c-21.56-21.32-45.18-47.14-52.69-83.94
			c-1.48-7.26-1.61-14.8-0.39-22.4c2.61-16.28,7.43-31.89,11.68-45.67c0.32-1.02,0.59-2.21,0.88-3.48c0.46-2.01,0.98-4.28,1.84-6.63
			c1.34-3.67,1.23-7.28-3.71-13.01c-3.18-3.69-6.07-6.95-9.17-9.46c-16.72-13.48-23.23-32.35-19.91-57.69
			c1.05-8.02,2.3-16.1,3.52-23.91c1.33-8.58,2.71-17.46,3.8-26.15c1.49-11.89,3.73-23.68,5.89-35.08
			c1.08-5.67,2.19-11.54,3.18-17.28c1.43-8.27,2.96-16.63,4.44-24.72c2.21-12.06,4.49-24.52,6.46-36.78
			c1.15-7.16-0.02-14.83-1.25-22.95c-0.39-2.58-0.8-5.24-1.13-7.92c-0.34-2.73-0.69-5.46-1.03-8.19
			c-2.68-21.05-5.45-42.82-4.22-64.97c1.32-23.71,11.39-43.14,29.93-57.75c7.55-5.95,15.28-12.58,23.65-20.27
			c10.34-9.51,15.91-21.99,18.64-41.75c0.89-6.47,1.14-13.01,1.4-19.93c0.28-7.39,0.57-15.03,1.7-22.79
			c2.55-17.5,9.16-34.5,20.78-53.51c11.19-18.29,24.76-39.78,40.59-60.5c27.76-36.33,56.33-63.97,87.33-84.52
			c1.02-0.68,2.01-1.24,2.89-1.73c0.65-0.37,1.59-0.9,2.02-1.22l2.49-5.57H984.4l4.54,18.91c-7.83,3.99-15.9,6.88-23.71,9.69
			c-4.22,1.52-8.21,2.95-12.16,4.54c-47.61,19.17-86.29,44.64-118.24,77.88c-28.54,29.69-50.42,63.52-69.8,95.66
			c-9.63,15.97-14.53,33.3-14.98,52.98c-0.17,7.58-0.81,15.13-1.42,22.43l-0.34,4.03c-1.84,22.44-11.24,40.42-27.95,53.44
			c-2.59,2.02-5.1,4.19-7.76,6.49c-3.2,2.76-6.5,5.62-10.07,8.3c-12.39,9.3-19.42,21.05-21.49,35.91
			c-1.04,7.47-0.99,14.94-0.81,21.26c0.34,11.89,1.92,23.57,3.59,35.93c0.6,4.48,1.23,9.11,1.78,13.7
			c1.79,14.83,3.28,30.66,0.34,46.7c-1.69,9.23-3.43,18.45-5.16,27.67c-3.85,20.45-7.82,41.6-11.27,62.42
			c-0.36,2.15-0.72,4.3-1.08,6.45c-3.35,19.95-6.51,38.79-6.53,58.23c-0.01,7.57,2.38,13.44,7.75,19.02l1.51,1.57
			c3.15,3.29,6.13,6.4,9.28,9.23c12.77,11.47,16.45,26.1,10.64,42.32c-4.36,12.16-7.68,22.42-9.69,32.97
			c-3.48,18.22-1.79,32.74,5.34,45.7c4.6,8.37,8.66,15.22,13.52,21.45c8.09,10.38,17.21,20.54,27.11,30.2
			c17.69,17.28,34.78,34.44,49.41,54.45c9.1,12.44,19.52,23.66,31.22,35.99c26.71,28.15,56.33,52.6,88.05,72.66
			c0.27,0.17,0.71,0.41,1.17,0.66c2.56,1.38,7.33,3.96,9.58,9.88l1.51,3.98l-1.82,3.85c-2.6,5.5-7.4,7.35-9.7,8.23
			c-0.26,0.1-0.52,0.19-0.77,0.31c-16.34,7.4-32.9,12.96-49.22,16.54c-17.03,3.73-31.77,8.2-45.09,13.67
			c-4.23,1.74-4.63,3.37-4.82,4.15c-3.35,13.56-13.39,19.48-20.65,22.75c-10.5,4.73-18.23,10.08-24.34,16.85
			c-10.65,11.8-18.32,25.31-24.41,36.97c-3.07,5.87-6.13,11.91-9.09,17.74c-7.17,14.14-14.59,28.76-22.95,42.79
			c-13.34,22.4-28.99,48.93-43.91,75.81c-19.13,34.49-31.62,70.44-45.97,113.85c-16.18,48.98-33.66,98.38-50.56,146.15
			c-8.44,23.85-17.16,48.52-25.61,72.81c-7.66,22.01-16.79,37.59-29.62,50.54c-10.31,10.4-15.68,20.65-16.91,32.24
			c-1.28,12.08-7.76,22.4-19.25,30.7c-2.37,1.71-4.7,3.5-7.16,5.39c-5.71,4.4-11.62,8.94-18.32,12.6c-5.85,3.19-7.2,6.23-5.77,13.02
			c0.22,1.06,0.41,2.13,0.6,3.19c0.21,1.2,0.41,2.34,0.65,3.32c6.99,28.59,20.45,50.55,41.15,67.15c2.13,1.71,4.03,3.33,5.81,4.96
			c6.68,6.1,7.53,14.58,2.26,22.68c-3.17,4.87-7.56,7.17-10.77,8.85c-1.46,0.76-2.94,1.5-4.42,2.23c-2.64,1.3-5.14,2.53-7.37,3.9
			c-2.74,1.68-3.81,3.24-3.89,4.07c-0.09,0.84,0.65,2.62,3.02,4.87c1.68,1.59,3.76,3.15,6.35,4.77c2.25,1.41,4.49,2.82,6.74,4.24
			c7.4,4.69,14.39,9.11,21.72,13.02c17.38,9.28,30.11,23.45,37.83,42.13c0.64,1.55,1.31,3.1,1.97,4.65
			c1.31,3.06,2.66,6.22,3.89,9.49c1.4,3.72,2.77,7.45,4.13,11.19c4.22,11.52,8.59,23.44,13.78,34.58
			c3.83,8.22,8.51,15.11,14.31,21.06c8.2,8.42,17.75,15.24,27.86,22.46c3.88,2.77,7.89,5.63,11.81,8.59
			c15.89,11.99,30.66,24.46,36.74,45.11c0.44,1.5,3.36,3.82,4.76,4.94c8.97,7.14,18.49,14.27,28.3,21.18
			c7.16,5.05,15.79,8.04,27.15,9.43c6.73,0.82,13.88,1.95,20.86,5.85c7.01,3.91,14.19,7.84,21.14,11.64
			c6.84,3.74,13.92,7.61,20.87,11.49c4.35,2.42,8.84,4.93,10.22,10.54c1.37,5.6-1.45,9.9-4.18,14.06
			c-4.86,7.4-7.69,12.95-7.76,19.42c-0.15,13.88,0.98,28.75,3.66,48.2c1.11,8.02,1.11,15.46,0,22.74
			c-2.43,15.89-4.79,32.09-6.99,47.22c-3.49,24.09-6.95,48.19-10.41,72.29l-1.23,8.6c-1.58,11-3.15,22-4.72,33
			c-3.17,22.17-6.44,45.1-9.74,67.65c-4.74,32.36-9.05,61.08-13.18,87.81c-3.15,20.37-6.46,41.06-9.65,61.07
			c-1.73,10.83-3.46,21.65-5.17,32.48c-2.06,13.02-4.11,26.04-6.16,39.07c-3.07,19.47-6.14,38.94-9.24,58.41
			c-1.66,10.45-3.37,20.9-5.07,31.34c-1.79,11-3.65,22.39-5.43,33.58c-1.02,6.41-2.04,12.83-3.06,19.24
			c-4.18,26.26-8.5,53.42-12.51,80.15c-4.8,32.04-9.28,63.76-14.53,101.52c-1.97,14.16-3.87,28.59-5.71,42.55
			c-1.7,12.92-3.46,26.29-5.28,39.44c-1.79,12.97-3.68,26.13-5.51,38.85c-2.49,17.33-5.07,35.24-7.41,52.87
			c-1.88,14.16-3.9,28.53-5.84,42.42c-3.08,22-6.27,44.74-9,67.13c-3.26,26.72-7.19,53.76-10.98,79.91
			c-1.49,10.27-2.98,20.55-4.44,30.83c-4.37,30.87-8.87,62.04-12.74,88.84l-2.4,16.64c-3.66,25.42-7.44,51.7-11.42,77.55
			c9.66,6.48,20.04,11.59,31.03,17c2,0.99,4.01,1.97,6.01,2.97c0.58,0.29,1.35,0.6,2.17,0.93c3.27,1.32,8.2,3.32,11.71,8.37
			l10.89,15.7H482.9z"/>
		<path class="st5" d="M806.04,6.86c-33.43,22.15-60.77,50.67-84.91,82.25c-14.52,19.01-27.5,39.21-40,59.64
			c-9.41,15.39-16.76,31.49-19.42,49.74c-2.07,14.18-1.14,28.44-3.09,42.64c-2.53,18.37-7.66,34.76-21.78,47.74
			c-7.85,7.22-15.89,14.19-24.23,20.76c-16.45,12.96-24.98,29.74-26.13,50.45c-1.33,24.02,2.25,47.64,5.19,71.37
			c1.38,11.13,4.14,22.41,2.33,33.69c-3.3,20.59-7.36,41.07-10.92,61.62c-2.99,17.3-6.82,34.44-9.01,51.9
			c-2.1,16.75-5.13,33.38-7.32,50.12c-2.45,18.73,0.41,35.81,16.28,48.6c3.86,3.11,7.21,6.93,10.47,10.71
			c5.73,6.65,8.81,14.03,5.53,22.98c-1.14,3.1-1.58,6.44-2.55,9.61c-4.5,14.59-8.94,29.2-11.36,44.3c-1,6.24-0.97,12.52,0.32,18.82
			c6.65,32.61,27.44,56.6,49.92,78.83c15.15,14.98,30.72,29.5,43.63,46.41c13.54,17.73,27.99,34.66,43.11,50.96
			c19.7,21.24,41.37,40.43,64.56,57.86c1.78,1.34,4.16,2.23,4.11,5.48c-5.37,1.44-10.8,2.94-16.25,4.36
			c-14.13,3.69-28.53,6.39-42.04,12.24c-6.01,2.6-11.78,5.76-13.69,12.21c-2.7,9.16-8.65,14.11-16.97,18.13
			c-11.05,5.33-21.9,11.38-29.89,21.23c-10.93,13.48-20.64,27.77-28.05,43.48c-19.49,41.3-43.61,80-66.55,119.37
			c-14.08,24.17-26.67,49.1-37.17,75.08c-10.09,24.97-18.74,50.42-26.66,76.13c-13.1,42.58-29.62,83.97-43.67,126.22
			c-13,39.09-27.62,77.64-41.36,116.49c-2.37,6.7-5.76,12.7-10.2,18.13c-4.2,5.14-8.49,10.24-12.98,15.13
			c-10.09,10.96-17.99,22.81-19.45,38.29c-1.14,12.04-8.16,20.48-18.16,27.11c-10.52,6.98-20.39,14.91-30.73,22.17
			c-3,2.11-4.48,4.33-4.74,8.08c-0.86,12.85,1.17,25.3,5.8,37.12c9.74,24.83,23.87,46.63,45.68,62.82c6.29,4.67,6.39,9.65,0.3,14.37
			c-3.39,2.62-7.38,4.47-11.12,6.63c-3.17,1.83-6.67,3.22-9.5,5.45c-8.4,6.62-8.95,14.43-1.66,22.29c3.61,3.89,7.41,7.63,12.07,10.4
			c9.15,5.44,17.93,11.56,27.37,16.4c18.09,9.28,30.36,23.45,37.8,42.09c3.82,9.57,7.81,19.09,11.09,28.85
			c5.21,15.53,11.98,30.34,19.92,44.6c9.22,16.54,24.81,26.57,39.57,37.27c13.47,9.75,26.95,19.35,38.16,31.84
			c4.12,4.58,7.31,9.34,8.88,15.27c1.96,7.39,6.79,13.36,12.5,17.59c8.54,6.33,16.63,13.28,25.43,19.25
			c11.43,7.76,23.49,13.41,37.72,14.33c8.54,0.55,16.56,3.44,24.25,8.12c11.05,6.72,22.47,12.85,33.31,19.98
			c8.03,5.28,8.45,5.53,3.62,13.87c-5.75,9.94-10.27,20.19-8.87,32.1c1,8.55,1.8,17.13,2.92,25.66c2.33,17.79,3.35,35.46,0.32,53.38
			c-3.7,21.87-6.4,43.91-9.4,65.9c-1.7,12.47-2.57,25.08-4.77,37.46c-3.02,16.98-4.52,34.14-7.06,51.18
			c-2.44,16.37-4.03,32.89-7,49.16c-3.51,19.24-5.78,38.64-8.94,57.92c-3.32,20.27-6.17,40.61-9.28,60.91
			c-2.21,14.4-4.55,28.79-6.78,43.19c-2.58,16.69-5.07,33.39-7.66,50.07c-2.14,13.75-4.49,27.47-6.54,41.24
			c-2.92,19.65-5.84,39.32-9.09,58.91c-4.99,30.06-10.24,60.07-14.8,90.2c-2.88,18.99-5.68,38.02-8.99,56.91
			c-4.11,23.5-6.22,47.27-10.79,70.7c-3.87,19.8-6.14,39.92-9.07,59.9c-2.45,16.71-4.87,33.42-7.24,50.15
			c-2.42,17.05-4.76,34.11-7.12,51.16c-1.59,11.48-3.2,22.96-4.73,34.45c-2.32,17.4-4.49,34.83-6.89,52.22
			c-2.26,16.4-4.88,32.75-7.08,49.16c-1.8,13.47-2.46,27.12-4.95,40.45c-3.84,20.54-5.75,41.33-8.81,61.96
			c-2.67,18-4.52,36.19-7.06,54.2c-3.1,21.96-5.41,44.03-9.18,65.92c-4.04,23.49-6.8,47.19-10.11,70.8c40.67,0,81.33,0,122,0
			c-2.46-3.54-6.61-4.3-10.12-6.05c-13.12-6.53-26.41-12.68-38.62-20.93c-3.47-2.35-4.62-4.5-3.93-8.93
			c4.86-31.52,9.34-63.11,13.89-94.68c4.27-29.6,8.54-59.21,12.73-88.82c5.22-36.84,10.9-73.62,15.4-110.54
			c4.47-36.62,10-73.09,14.86-109.65c4.07-30.62,8.71-61.17,12.93-91.77c3.77-27.32,7.19-54.68,10.99-82
			c4.71-33.89,9.48-67.78,14.55-101.62c4.97-33.19,10.32-66.32,15.58-99.47c3.43-21.65,7.05-43.27,10.5-64.92
			c5.17-32.48,10.26-64.98,15.4-97.46c4.93-31.17,9.99-62.32,14.82-93.51c4.52-29.22,8.89-58.47,13.17-87.73
			c4.91-33.53,9.64-67.08,14.46-100.62c3.87-26.97,7.74-53.94,11.65-80.9c2.29-15.77,4.59-31.54,7-47.3
			c1.01-6.64,0.9-13.21-0.02-19.86c-2.27-16.47-3.94-33-3.75-49.68c0.1-9.52,4.41-17.21,9.4-24.8c4.21-6.41,4.18-6.62-2.55-10.37
			c-13.96-7.79-28.05-15.34-42.01-23.13c-5.39-3.01-11.26-3.93-17.2-4.65c-11.41-1.39-22.25-4.52-31.71-11.18
			c-9.79-6.9-19.4-14.07-28.77-21.53c-3.3-2.63-6.87-5.67-8.12-9.93c-5.34-18.13-18.95-29.23-33.17-39.96
			c-13.81-10.42-28.62-19.54-40.81-32.05c-6.84-7.02-12.1-14.99-16.21-23.81c-7.05-15.11-12.36-30.9-18.21-46.47
			c-1.75-4.67-3.83-9.22-5.74-13.83c-6.74-16.29-17.57-28.73-33.3-37.13c-9.97-5.32-19.43-11.61-29.04-17.6
			c-2.81-1.75-5.56-3.73-7.95-6.01c-9.02-8.57-8.05-18.21,2.52-24.71c3.96-2.43,8.26-4.31,12.39-6.47c2.66-1.39,5.3-2.79,7.02-5.44
			c2.26-3.47,2.73-6.79-0.62-9.85c-1.72-1.57-3.5-3.08-5.32-4.54c-23.54-18.87-37.53-43.61-44.61-72.58
			c-0.55-2.25-0.84-4.56-1.32-6.83c-2.23-10.58,0.55-18.28,10.77-23.86c8.7-4.75,16.32-11.48,24.42-17.32
			c8.16-5.89,14.06-13.32,15.16-23.64c1.63-15.35,9.24-27.62,19.75-38.22c13.18-13.3,21.13-29.11,27.27-46.78
			c25.37-72.93,51.89-145.48,76.12-218.81c13.07-39.57,26.43-78.99,46.72-115.56c14.21-25.62,29.07-50.9,44.06-76.08
			c11.61-19.5,21.28-39.97,31.77-60.04c7.25-13.88,15.24-27.28,25.85-39.04c7.81-8.65,17.28-14.59,27.65-19.26
			c7.36-3.31,13-7.71,15.05-16.03c1.36-5.53,5.47-8.84,10.73-11c15.14-6.22,30.79-10.69,46.75-14.19
			c16.32-3.58,32.03-8.99,47.24-15.88c2.01-0.91,4.43-1.32,5.55-3.7c-1.2-3.17-4.3-4.09-6.75-5.64
			c-33.12-20.95-63.02-45.83-89.96-74.23c-11.22-11.83-22.39-23.78-32.04-36.97c-14.23-19.46-31.16-36.43-48.33-53.2
			c-10.02-9.79-19.39-20.15-28.01-31.2c-5.56-7.13-10.06-14.89-14.39-22.78c-9.13-16.61-9.86-34.27-6.4-52.4
			c2.26-11.8,6.06-23.2,10.1-34.47c4.49-12.52,1.87-22.72-7.9-31.5c-3.96-3.56-7.62-7.46-11.31-11.31
			c-6.96-7.24-10.56-15.44-10.54-25.96c0.02-22.46,4.1-44.36,7.74-66.3c5-30.17,10.94-60.18,16.47-90.26
			c2.68-14.59,1.32-29.13-0.43-43.69c-2.03-16.82-4.95-33.55-5.44-50.54c-0.22-7.66-0.16-15.32,0.9-22.92
			c2.47-17.74,11.07-31.77,25.39-42.53c6.12-4.59,11.64-9.97,17.68-14.68c15.15-11.81,22.59-27.56,24.14-46.37
			c0.71-8.61,1.53-17.24,1.73-25.87c0.47-20.76,5.68-40.13,16.41-57.91c20.85-34.56,43.03-68.17,71.15-97.42
			c34.52-35.9,75.69-61.7,121.72-80.23C960.99,9.17,973.15,5.73,984.4,0c-56.67,0-113.33,0-170,0C812.76,3.67,809,4.9,806.04,6.86z"
			/>
		<path class="st5" d="M2257.5,3691l-2.45-6.45c-0.09-0.23-0.19-0.46-0.3-0.69c-0.5-1.13-1.25-2.83-1.6-4.95
			c-6.33-37.79-12.53-74.8-18.69-112.13c-7.2-43.64-14.38-86.28-23.02-128.14c-6.67-32.34-12.66-61.51-18.41-91.02l-1.73-8.91
			c-10.17-52.21-20.68-106.19-32.17-159c-8.16-37.49-16.39-75.61-24.35-112.48l-0.35-1.61c-5.44-25.17-10.87-50.35-16.3-75.53
			c-6.27-29.09-12.55-58.18-18.83-87.27c-2.29-10.61-4.68-21.4-6.99-31.84c-6.32-28.58-12.86-58.12-18.26-87.5
			c-0.99-5.38-1.33-13.3,7.09-19.92c3.62-2.85,5.45-6.48,6.09-12.14c0.51-4.47,1.04-8.94,1.57-13.41c0.75-6.3,1.52-12.82,2.22-19.22
			c2.25-20.54,1.12-41.11-3.35-61.14c-1.24-5.55-1.4-10.73-1.39-15.07c0.03-19.53,2.21-38.94,4.32-57.71l0.12-1.08
			c1.22-10.84,3.87-26.98,12.85-41.9c1-1.66,1.88-3.72,2.8-5.9c0.71-1.66,1.44-3.37,2.3-5.13c1.2-2.43,2.39-4.88,3.58-7.32
			c8.84-18.14,17.99-36.9,32.2-53.02c0.16-0.39,0.4-1.3,0.58-1.98c0.15-0.56,0.29-1.11,0.45-1.66c7.31-25.2,13.76-51.01,19.19-76.69
			c4.92-23.3,8.26-46.99,10.88-67.09c3.53-27.13,6.46-51.59,6.45-76.16c0-15.53-2.32-30.84-4.77-47.05
			c-1.34-8.84-2.72-17.99-3.68-27.13c-0.9-8.58-2.04-17.33-3.13-25.8c-1.55-12-3.16-24.42-4.18-36.81
			c-1.38-16.69-3.19-33.69-4.94-50.14c-0.47-4.39-0.93-8.78-1.39-13.16c-1.37-13.08-2.82-26.39-4.22-39.26
			c-1.09-10.03-2.18-20.07-3.25-30.1c-0.96-8.98-1.89-17.95-2.82-26.93c-1.34-12.95-2.73-26.33-4.17-39.47
			c-2.41-21.93-4.95-44.23-7.42-65.8l-1.76-15.41c-0.63-5.55-1.16-11.16-1.66-16.58c-1.17-12.52-2.27-24.35-4.63-36
			c-7.69-38.01-16.57-82.27-24.69-126.42c-2.15-11.71-4.32-23.42-6.48-35.13c-5.96-32.22-12.12-65.54-17.89-98.38
			c-8.49-48.3-17.88-95.18-27.92-139.34l-1.64-7.23c-8.54-37.53-17.36-76.34-25.27-114.74c-7.26-35.27-15.77-72.96-28.77-109.59
			c-9.22-25.96-18.94-46.03-30.6-63.14c-21.57-31.66-51.83-55.94-95.21-76.41c-8.12-3.83-17.79-7.87-28.01-8.82
			c-11.88-1.1-24.04-1.98-35.8-2.84c-7.8-0.57-15.86-1.15-23.8-1.8l-1.11-0.09c-8.54-0.69-17.36-1.41-26.3-3.81
			c-11.48-3.09-24.5-6.59-37.3-9.42c-7.7-1.7-15.29-3.83-22.64-5.88c-16.15-4.52-31.41-8.79-47.35-8.81
			c-3.46-0.01-6.41-1.59-8.79-4.69l-3.82-4.03l1.65-5.54c4.54-15.27,12.26-34.38,31.85-46.72c1.61-1.01,3.3-2.48,5.09-4.04
			c1.63-1.42,3.32-2.88,5.25-4.3c6.17-4.52,9.6-9.78,10.79-16.56c3.18-18.17,11.72-34.9,25.39-49.73c2.65-2.88,5.1-6.12,7.69-9.56
			c1.18-1.57,2.37-3.14,3.58-4.69c10.71-13.69,15.6-28.19,14.95-44.34c-0.98-24.12,4.11-43.83,15.54-60.24
			c3.15-4.52,5.02-9.48,5.56-14.74c0.51-4.98,1.12-9.99,1.71-14.83c0.98-8.05,1.98-16.38,2.54-24.47
			c0.85-12.31,3.12-28.28,13.25-42.67c0.44-0.62,0.97-1.83,1.48-2.99c0.25-0.57,0.5-1.13,0.76-1.69
			c6.62-14.24,4.96-26.49-5.22-38.56c-3.54-4.2-6.8-8.39-9.7-12.46c-4.22-5.92-6.27-11.75-6.28-17.81l0-2.06
			c-0.01-6.71-0.03-13.65,0.45-20.62c0.44-6.37,1.02-12.79,1.57-19c0.78-8.72,1.59-17.74,2-26.52l0.09-1.94
			c0.51-10.72,1-20.84-0.88-30.59c-1.79-9.25-3.61-18.49-5.44-27.73c-2.01-10.16-4.08-20.66-6.07-31.01
			c-1.6-8.35-3.26-16.99-8.32-23.54c-11.44-14.8-16.22-32.14-19.39-47.14c-2.17-10.26-3.15-20.54-4.1-30.48
			c-0.56-5.84-1.14-11.87-1.94-17.67c-1.36-9.78-5.25-16.09-12.61-20.46c-6.15-3.65-11.76-6.37-17.16-8.33
			c-13.75-4.98-30.04-10.65-46.66-15c-7.04-1.84-12.32-2.67-17.12-2.67c-3.01,0-5.79,0.33-8.5,1c-2.21,0.55-4.5,0.83-6.81,0.83
			c-2,0-3.93-0.21-5.76-0.63c-3.6-0.82-7.18-1.22-10.94-1.22c-11.34,0-22.43,3.79-31.79,7.5c-1.41,0.56-2.82,1.12-4.23,1.69
			c-7.91,3.16-16.1,6.43-24.64,9.02c-2.14,0.65-4.14,0.96-6.13,0.96c-3.87,0-9.48-1.28-14.23-7.37
			c-5.34-6.84-9.06-14.37-11.08-22.37c-2.67-10.61-4-20.41-4.07-29.97c-0.04-5.45,0.01-10.95,0.05-16.27
			c0.14-18.34,0.28-35.66-2.52-52.99c-1.15-7.1-1.69-14.2-2.1-20.82c-1.05-16.84-2.36-30.45-4.12-42.84
			c-2.14-15.02-5.37-25.75-14.86-32.79c-2.96-2.2-3.86-5.15-4.21-6.39L1465.56-10h104.36l0.47,9.5c0.02,0.45,0.32,1.47,0.58,2.38
			c0.58,2.03,1.31,4.55,1.38,7.64c0.44,21.07,1.79,38.28,4.27,54.18c1.7,10.97,1.77,21.73,1.83,32.13c0.01,2.03,0.02,4.06,0.05,6.09
			l0.03,2.04c0.12,9.6,0.24,19.53-0.08,29.39c-0.23,7.05,1.19,14.19,2.7,21.75l0.12,0.61c0.36,1.83,0.68,3.26,0.94,4.27
			c1.45,0.09,3.38,0.11,4.51,0.13c0.78,0.01,1.55,0.01,2.33,0.01c1.55,0,3.1-0.02,4.64-0.03c1.61-0.02,3.22-0.03,4.83-0.03
			c6.59,0,13.71,0.23,21.11,1.93c0.78,0.18,1.58,0.26,2.47,0.26c2.12,0,4.65-0.51,7.74-1.57c6.74-2.3,13.38-4.37,20.51-4.37
			l1.86,0.01c4.73,0,9.61-0.11,14.32-0.23c4.83-0.11,9.83-0.23,14.79-0.23c13.48,0,29.45,0.76,45.65,6.37
			c4.99,1.73,10.16,3.37,15.17,4.97c14.37,4.57,29.23,9.3,43.25,16.97c16.49,9.02,25.22,21.14,27.48,38.13
			c0.73,5.51,1.3,11.06,1.85,16.43c0.9,8.81,1.75,17.13,3.28,25.43c4.08,22.08,8.81,38.63,19.78,52.91
			c6.77,8.81,9.09,18.86,10.47,27.54c1.22,7.64,2.9,15.48,4.52,23.06l0.73,3.43c5.49,25.71,11.17,52.3,9.01,80.08
			c-0.39,4.96-0.63,10.09-0.87,15.06c-0.44,9.23-0.9,18.77-2.28,28.27c-2.88,19.86-2.04,34.5,11.01,46.1
			c1.42,1.27,2.45,2.58,3.31,3.71c6.43,8.53,10,18.05,10.91,29.09c1.48,18.04-6.14,32.35-13.4,44.34c-0.58,0.95-1.2,1.9-1.82,2.85
			c-0.95,1.44-2.53,3.85-2.58,4.66c-0.13,7.67-1.28,14.99-2.4,22.06c-0.97,6.13-1.88,11.92-2.11,17.68
			c-1.01,25.48-7.05,45.09-18.99,61.71c-1.55,2.16-2.51,5.29-3.46,9.33c-1.66,7-1.71,14.43-1.77,22.29
			c-0.05,6.98-0.1,14.2-1.29,21.63c-1.28,8.02-3.01,17.34-7.37,26.5c-5.73,12.05-13.86,21.85-21.72,31.33
			c-2.82,3.4-5.48,6.61-8.05,9.93c-7.02,9.08-13.78,19.19-15.61,31.59c-1.93,13.04-6.54,23.04-14.02,30.29
			c1.82,0.49,3.62,0.99,5.41,1.48c17.4,4.77,33.83,9.27,51.02,11.05l1.99,0.21c20.94,2.17,42.59,4.42,63.86,5.55
			c11.33,0.6,22.15,2.87,32.16,6.76c21.4,8.3,42.38,19.8,64.13,35.16c32.29,22.8,57.41,51.98,74.68,86.73
			c13.58,27.32,24.66,58.27,34.89,97.41c7.08,27.1,12.8,54.85,18.33,81.69c1.99,9.67,4.06,19.67,6.15,29.48
			c4.14,19.43,8.78,39.14,13.27,58.2c6.05,25.7,12.3,52.27,17.48,78.72c1.76,8.96,3.53,17.92,5.3,26.87
			c3.76,19.01,7.66,38.66,11.3,58.04c3.89,20.65,7.63,41.66,11.25,61.97c1.38,7.72,2.75,15.45,4.14,23.17
			c1.4,7.8,2.79,15.61,4.17,23.41c2.22,12.52,4.52,25.47,6.85,38.18c1.87,10.21,3.83,20.59,5.73,30.62
			c2.71,14.3,5.5,29.09,8.1,43.69c1.83,10.26,4.04,20.71,6.19,30.81c3.08,14.5,6.26,29.49,8.44,44.61
			c1.94,13.39,3.39,26.96,4.79,40.08c1.29,12.14,2.63,24.68,4.35,36.9c2.68,19.16,4.66,38.64,6.57,57.48
			c0.57,5.64,1.14,11.29,1.73,16.93c1.67,15.94,3.28,32.15,4.84,47.82c1.1,11.1,2.21,22.19,3.34,33.28
			c0.51,5.01,1.1,10.13,1.66,15.08c1.03,9.03,2.1,18.37,2.8,27.7c0.82,10.91,2.11,22.07,3.35,32.86c0.73,6.29,1.48,12.79,2.13,19.23
			c0.47,4.63,0.84,9.29,1.19,13.8c0.43,5.53,0.88,11.25,1.52,16.76c0.8,6.88,1.81,13.91,2.78,20.72c0.77,5.41,1.57,11.01,2.28,16.57
			c0.7,5.53,1.32,11.12,1.91,16.53c0.86,7.82,1.75,15.91,2.9,23.74l0.59,4c2.57,17.46,5.22,35.5,4.97,53.95
			c-0.11,7.9-0.59,15.79-1.05,23.42c-0.25,4.17-0.52,8.49-0.71,12.69c-0.9,19.52-3.57,38.89-6.15,57.62c-0.34,2.5-0.69,5-1.03,7.5
			c-3,22.03-7.38,45.01-13.01,68.3c-4.74,19.59-10.13,40.45-17.51,67.64c-1.52,5.6-4.04,10.14-7.7,13.86
			c-1.63,1.66-3.18,3.88-4.82,6.24c-0.47,0.68-0.95,1.36-1.42,2.03c-7.75,10.9-13.56,22.87-19.71,35.55
			c-3.13,6.46-6.37,13.13-9.88,19.64c-8.1,15-11.54,31.45-13.63,44.1c-1.69,10.19-2.26,20.69-2.73,31.44
			c-0.16,3.59-0.44,7.17-0.71,10.63c-0.82,10.38-1.59,20.19,0.86,29.79c3.21,12.57,4.86,26.56,5.05,42.77
			c0.14,12.53-1.33,24.76-2.75,36.6c-0.67,5.56-1.36,11.31-1.85,16.91c-0.77,8.71-2.16,24.46-15.27,34.49l1.26,6.76
			c3.14,16.88,6.38,34.33,9.93,51.37c1.61,7.74,3.52,15.64,5.38,23.28c1.68,6.92,3.41,14.09,4.95,21.23
			c3.02,14.04,5.98,28.33,8.85,42.14c5.13,24.75,10.44,50.34,16.25,75.32c3.62,15.55,6.99,31.37,10.24,46.67
			c3.26,15.29,6.62,31.11,10.22,46.56c6.84,29.4,13.08,59.39,19.1,88.4c2.87,13.79,5.83,28.05,8.81,42.04
			c1.39,6.49,2.92,13.12,4.4,19.53c2.88,12.45,5.86,25.31,8.01,38.26c2.04,12.27,4.62,24.74,7.11,36.8
			c2.25,10.89,4.57,22.16,6.53,33.38c2.38,13.6,5.27,27.42,8.06,40.8c1.53,7.31,3.11,14.87,4.59,22.34
			c2.99,15.02,5.95,30.05,8.9,45.08c3.32,16.87,6.75,34.3,10.17,51.44c5.1,25.53,9.54,51.06,13.21,75.88
			c1.14,7.75,2.54,15.66,3.89,23.31c0.63,3.58,1.26,7.16,1.87,10.74l1.99,11.68H2257.5z"/>
		<path class="st5" d="M2320.6,3646.73c-3.73-25.24-8.12-50.36-13.12-75.39c-6.42-32.16-12.67-64.36-19.07-96.53
			c-4.2-21.13-9-42.15-12.7-63.36c-4.11-23.51-9.73-46.7-13.65-70.26c-3.21-19.26-8.25-38.22-12.33-57.34
			c-9.27-43.43-17.81-87.02-27.88-130.26c-7.22-31-13.25-62.23-20.46-93.23c-9.08-39.04-16.7-78.42-25.13-117.62
			c-3.21-14.91-7.23-29.65-10.34-44.57c-4.12-19.77-7.74-39.65-11.45-59.51c-0.48-2.55-0.73-5.52,2.01-7.24
			c10.67-6.71,12.4-18.09,13.34-28.79c1.54-17.49,4.77-34.83,4.57-52.51c-0.16-13.69-1.42-27.42-4.74-40.41
			c-3.76-14.73-1.08-29.04-0.45-43.33c0.48-10.75,1.06-21.76,2.86-32.63c2.74-16.54,6.7-32.39,14.7-47.22
			c10.11-18.73,17.81-38.75,30.24-56.23c2.31-3.25,4.49-6.66,7.26-9.48c2.71-2.75,4.21-5.9,5.18-9.47
			c6.07-22.39,11.99-44.81,17.44-67.37c5.38-22.25,9.74-44.73,12.82-67.3c2.9-21.29,6.11-42.63,7.1-64.23
			c0.55-11.92,1.59-23.82,1.75-35.78c0.26-19-2.72-37.66-5.46-56.37c-1.96-13.44-3.13-26.99-4.83-40.46
			c-1.58-12.48-3.61-24.9-5.07-37.39c-1.19-10.2-1.68-20.48-2.72-30.7c-1.78-17.46-4.19-34.86-5.51-52.35
			c-1.07-14.23-2.99-28.34-4.44-42.52c-2.76-27.02-5.35-54.06-8.18-81.07c-2.59-24.71-4.81-49.47-8.26-74.06
			c-3.59-25.59-5.42-51.35-9.13-76.94c-3.66-25.31-10.11-49.99-14.58-75.1c-4.41-24.79-9.28-49.5-13.82-74.26
			c-3.77-20.53-7.34-41.09-11.03-61.63c-5.09-28.36-10.05-56.75-15.38-85.06c-5.33-28.32-11.05-56.56-16.59-84.84
			c-8.99-45.87-20.98-91.07-30.72-136.76c-7.89-36.97-14.81-74.14-24.37-110.73c-8.57-32.8-18.99-64.94-34.17-95.49
			c-16.83-33.87-40.73-61.28-71.49-83.01c-19.38-13.69-39.82-25.41-61.98-34.01c-9.33-3.62-19.05-5.56-29.08-6.09
			c-22.18-1.18-44.26-3.5-66.35-5.8c-25.51-2.65-49.61-11.06-74.32-17.07c-0.08-4.36,2.75-6.18,5.09-7.5
			c11.64-6.56,16.18-17.66,17.96-29.65c2.1-14.18,9.18-25.37,17.59-36.25c9.94-12.85,21.54-24.49,28.65-39.44
			c3.61-7.59,5.2-15.45,6.53-23.79c2.37-14.85-0.28-29.91,3.21-44.64c1.1-4.65,2.4-9.14,5.07-12.86
			c12.11-16.86,16.31-36.08,17.12-56.27c0.53-13.29,4.28-26.17,4.5-39.51c0.08-4.65,3.43-8.52,5.85-12.52
			c7.13-11.77,13.18-23.8,11.99-38.35c-0.73-8.97-3.58-16.81-8.92-23.89c-0.6-0.8-1.23-1.6-1.97-2.26
			c-17.06-15.17-17.25-34.4-14.26-55c2.04-14.08,1.97-28.45,3.07-42.67c2.07-26.56-3.48-52.2-8.96-77.88
			c-1.87-8.75-3.8-17.5-5.21-26.33c-1.32-8.3-3.41-16.35-8.53-23.02c-13.01-16.94-17.9-36.76-21.68-57.18
			c-2.59-14.02-3.34-28.25-5.21-42.35c-2.01-15.05-10.06-23.94-22.37-30.68c-17.96-9.83-37.74-14.62-56.89-21.26
			c-24.04-8.33-48.71-5.22-73.2-5.37c-5.82-0.03-11.81,1.91-17.42,3.83c-5.23,1.79-10.5,2.78-15.68,1.59
			c-10.23-2.34-20.53-1.5-30.81-1.63c-11.79-0.15-12.77-0.58-15.13-12.44c-1.61-8.1-3.28-16.22-3-24.64
			c0.34-10.32,0.18-20.66,0.06-30.98c-0.15-12.28,0.15-24.51-1.76-36.8c-2.85-18.34-3.99-36.92-4.38-55.51
			c-0.07-3.44-1.78-6.4-1.95-9.73c-26.67,0-53.33,0-80,0c0.24,0.6,0.31,1.45,0.76,1.78c13.23,9.82,16.68,24.49,18.8,39.42
			c2.05,14.45,3.29,29.05,4.2,43.63c0.41,6.66,0.94,13.32,1.99,19.85c3.8,23.51,2.44,47.17,2.6,70.78
			c0.06,9.38,1.49,18.55,3.76,27.59c1.73,6.87,4.91,13.07,9.26,18.66c2.5,3.21,5.32,4.27,9.58,2.98c9.59-2.9,18.79-6.75,28.08-10.43
			c15.66-6.21,31.54-10.64,48.65-6.73c2.51,0.57,5.42,0.47,7.93-0.15c10.4-2.58,20.54-0.93,30.56,1.7
			c16.11,4.22,31.87,9.61,47.52,15.28c6.57,2.38,12.81,5.54,18.86,9.13c10.6,6.3,15.76,15.8,17.41,27.68
			c2.2,15.79,2.62,31.79,5.93,47.46c3.26,15.45,7.7,30.39,17.52,43.1c6.37,8.25,8.34,17.93,10.23,27.77
			c3.76,19.59,7.73,39.14,11.51,58.73c2.23,11.56,1.51,23.28,0.96,34.89c-0.72,15.27-2.54,30.48-3.59,45.74
			c-0.5,7.3-0.43,14.65-0.42,21.97c0.01,4.48,1.89,8.46,4.43,12.02c2.9,4.06,5.99,8,9.2,11.82c12.66,15.03,14.92,31.4,6.64,49.22
			c-0.98,2.11-1.81,4.35-3.14,6.23c-7.96,11.3-10.52,24.08-11.45,37.6c-0.91,13.25-2.91,26.42-4.27,39.64
			c-0.74,7.16-3.29,13.67-7.3,19.43c-11.4,16.37-14.53,34.85-13.75,54.12c0.78,19.29-5.36,35.96-17.07,50.91
			c-3.9,4.98-7.52,10.22-11.79,14.86c-11.81,12.81-19.88,27.43-22.9,44.67c-1.7,9.72-6.85,17.13-14.73,22.9
			c-3.76,2.75-7,6.26-10.92,8.73c-15.38,9.69-22.69,24.59-27.6,41.11c0.56,0.59,0.97,1.41,1.38,1.41
			c25.07,0.03,48.16,9.63,72.13,14.93c12.66,2.8,25.21,6.16,37.74,9.52c8.42,2.26,17.02,2.89,25.62,3.59
			c19.9,1.62,39.84,2.8,59.71,4.65c11.04,1.02,21.41,5.04,31.36,9.73c39.47,18.62,74.26,43.21,99.21,79.82
			c13.77,20.21,23.6,42.43,31.76,65.43c12.84,36.16,21.43,73.44,29.14,110.92c8.38,40.72,17.65,81.23,26.87,121.77
			c10.54,46.37,19.79,92.99,28.02,139.83c7.82,44.53,16.19,88.96,24.36,133.43c7.75,42.17,16.15,84.22,24.66,126.25
			c3.55,17.53,4.39,35.6,6.42,53.44c3.09,27.08,6.21,54.16,9.18,81.25c2.43,22.14,4.63,44.29,6.99,66.44
			c2.46,23.13,5.04,46.25,7.47,69.38c2.22,21.16,4.6,42.32,6.36,63.52c1.73,20.89,5.1,41.57,7.29,62.39
			c2.64,25.11,8.51,49.99,8.51,75.22c0,25.88-3.18,51.7-6.54,77.45c-2.96,22.76-6.27,45.42-11.01,67.86
			c-5.5,26.04-11.96,51.85-19.37,77.41c-0.73,2.53-1.14,5.21-3.01,7.32c-15.23,17.21-24.43,38-34.45,58.3
			c-1.92,3.88-3.29,8.06-5.51,11.75c-7.03,11.69-9.99,24.55-11.48,37.86c-2.15,19.18-4.34,38.35-4.37,57.69
			c-0.01,4.34,0.19,8.58,1.15,12.88c4.75,21.25,5.91,42.66,3.53,64.41c-1.2,10.91-2.56,21.78-3.8,32.68
			c-0.9,7.82-3.81,14.12-9.85,18.86c-3.58,2.81-4.3,5.56-3.44,10.25c7.34,39.9,16.62,79.39,25.19,119.03
			c11.73,54.26,23.41,108.54,35.13,162.81c8.21,38.03,16.42,76.05,24.7,114.07c12.16,55.87,23.02,112,33.95,168.12
			c5.91,30.35,12.14,60.63,18.39,90.91c8.8,42.65,16,85.58,23.09,128.53c6.17,37.38,12.42,74.74,18.68,112.11
			c0.22,1.29,0.91,2.49,1.38,3.73c20.67,0,41.33,0,62,0C2324.45,3669.58,2322.3,3658.19,2320.6,3646.73z"/>
		<path class="st6" d="M1321.13,3691l-0.7-9.25c-0.56-7.44,0.99-14.25,2.36-20.25c0.53-2.33,1.03-4.53,1.4-6.68l1.47-8.56
			c1.72-10.06,3.5-20.46,5.36-30.7c0.84-4.62,3.39-18.67,18.7-18.67c2.18,0,4.56,0.28,7.5,0.87c4.21,0.85,7.92,1.94,11.32,3.32
			c22.67,9.22,46.99,15.5,70.52,21.58c3.36,0.87,6.71,1.73,10.07,2.61c10.4,2.72,11.17,11.32,11.43,14.14l0.01,0.14
			c0.9,9.99,1.84,19.97,2.78,29.95l2.02,21.5H1321.13z"/>
		<path class="st6" d="M1446.61,3634.95c-27.57-7.2-55.33-13.82-81.83-24.6c-3.05-1.24-6.3-2.13-9.54-2.79
			c-9.65-1.95-12.62,0.05-14.39,9.78c-2.37,13.04-4.56,26.11-6.81,39.17c-1.4,8.14-4.29,16.05-3.65,24.49c41.33,0,82.67,0,124,0
			c-1.27-13.52-2.56-27.03-3.78-40.55C1450.38,3637.75,1450.28,3635.9,1446.61,3634.95z"/>
	</g>
</g>
</svg>
