<?xml version="1.0" encoding="utf-8"?>
<!-- Generator: Adobe Illustrator 24.1.3, SVG Export Plug-In . SVG Version: 6.00 Build 0)  -->
<svg version="1.1" id="shadows" xmlns="http://www.w3.org/2000/svg" xmlns:xlink="http://www.w3.org/1999/xlink" x="0px" y="0px"
	 viewBox="0 0 2500 3681" style="enable-background:new 0 0 2500 3681;" xml:space="preserve">
<style type="text/css">
	.st0{display:none;fill:#FFFFFF;}
	.st1{fill:#953D74;}
	.st2{fill:#953D75;}
	.st3{fill:#2C427C;}
	.st4{fill:#9B9808;}
	.st5{fill:#AF232E;}
</style>
<g>
	<path class="st0" d="M1573.91,0c308.68,0,617.37,0,926.09,0c0,1226.93,0,2453.87,0,3681c-833.2,0-1666.45,0-2500,0
		C0,2454.13,0,1227.07,0,0c269.78,0,539.79,0,809.81,0c-6.71,7.3-14.43,13.52-20.68,21.39c-21.13,26.62-40.04,54.69-57.52,83.8
		c-7.87,13.1-16.07,25.89-21.55,40.35c-6.54,17.27-6.91,34.99-6.64,53.01c0.43,29.12-11.09,53.46-30.67,74.45
		c-9.36,10.03-20.46,18.01-30.96,26.68c-8.29,6.84-13.57,15.27-15.89,25.7c-3.97,17.87-7.36,35.77-6.48,54.24
		c0.56,11.63-1.74,23.57,1.17,34.86c3.78,14.66,3.06,29.67,5.33,44.41c0.43,2.82,1.83,5.6,1,8.73c-4.96,18.72-2.52,38.22-6.75,57.26
		c-3.71,16.69-5.37,34.01-8.49,50.97c-4.68,25.42-8.65,50.97-13.84,76.28c-2.07,10.08-0.52,18.97,3.48,27.9
		c5.69,12.67,14.98,22.7,24.3,32.66c7.13,7.61,10.76,15.66,6.79,26.24c-3.37,8.98-6.05,18.23-8.78,27.43
		c-5.89,19.87-5.94,40.02-1.85,60.15c3.1,15.26,10.95,28.64,19.62,41.18c21.03,30.44,44.53,58.85,72.38,83.49
		c6.18,5.46,11.3,12.14,16.18,18.89c3.27,4.51,2.52,8.64-0.39,12.86c-1.75,2.54-4.23,4.13-6.81,5.72
		c-7.67,4.72-14.87,10.03-21.31,16.43c-18.85,18.77-32.67,41.19-45.61,64.03c-12.12,21.39-23.46,43.22-36.22,64.27
		c-23.43,38.65-45.55,77.96-63.73,119.5c-18.65,42.63-34.39,86.34-49.2,130.32c-11.54,34.26-22.34,68.8-34.26,102.94
		c-15.21,43.57-31.38,86.8-46.51,130.39c-7.29,21-17.21,39.91-32.23,56.66c-13.73,15.32-25.75,32.27-29.93,53.29
		c-2.02,10.18-8.47,16.97-17.06,22.2c-8.82,5.37-17.57,10.87-25.65,17.34c-5.62,4.5-10.31,10.05-10.76,17.32
		c-1.14,18.36-0.58,36.54,8.38,53.48c7.48,14.14,16.13,27.52,24.97,40.8c5.02,7.54,11.43,13.74,18.39,19.53
		c7.62,6.35,7.05,11.98-1.19,17.63c-2.74,1.88-5.7,3.43-8.5,5.22c-5.12,3.29-9.37,7.55-12.48,12.73c-3.74,6.23-3.8,12.58,0.5,18.7
		c2.7,3.85,5.87,7.23,9.76,9.91c6.86,4.71,13.74,9.38,20.56,14.15c10.88,7.61,23.36,12.78,33.08,22.19
		c17.3,16.75,29.7,36.57,37.7,59.19c4.2,11.88,7.82,23.97,12.34,35.72c7.14,18.55,17.62,34.97,32.87,48.06
		c19.18,16.46,38.3,32.98,57.53,49.37c7.85,6.69,13.4,6.01,18.68-2.82c6.34-10.59,13.07-20.85,21.02-30.3
		c0.63,0.17,1.36,0.2,1.89,0.53c11.54,7.27,14.34,6.84,21.11-4.3c5.31-8.74,11.19-17.03,17.75-24.85c4.39,1.13,6.6,5.24,10.2,7.51
		c7.27,4.58,9.57,4.66,14.67-2.04c6.55-8.59,12.62-17.54,18.89-26.34c2.14,0.19,3.46,1.79,5.08,2.91
		c8.55,5.95,10.94,5.58,16.79-2.93c4.14-6.03,7.82-12.36,12.56-18c8.42-10.01,18.28-18.25,29.03-25.67
		c8.67-5.98,8.69-10.55,1.13-17.93c-0.71-0.7-1.46-1.36-2.23-2c-8.46-6.95-16.87-13.99-25.42-20.83
		c-17.57-14.05-31.3-30.7-36.82-53.08c-1.59-6.45-4.02-12.61-6.59-18.73c-9.49-22.59-22.61-41.99-45-53.89
		c-6.43-3.42-12.34-7.86-18.27-12.12c-2.39-1.72-4.51-4.01-6.21-6.43c-3.47-4.93-3.29-7.95,0.83-12.47c2.67-2.93,5.84-5.42,8.87-8
		c10.79-9.2,10.93-12.07,0.95-22.3c-0.23-0.24-0.47-0.47-0.71-0.7c-17.36-16.9-27.89-37.73-35.13-60.53
		c-2.69-8.46-0.92-15.46,5.19-21.88c5.38-5.65,11.87-9.68,18.32-13.77c9.73-6.17,16.39-14.32,18.69-25.83
		c1.53-7.64,5.23-14.36,9.87-20.52c4.39-5.84,8.93-11.57,13.59-17.19c6.42-7.74,11.56-16.1,15.06-25.63
		c11.89-32.4,24.11-64.67,35-97.44c13.83-41.58,28.37-82.93,42.68-124.35c8.35-24.17,18.2-47.73,29.33-70.73
		c12.46-25.76,26.63-50.58,41.84-74.81c11.67-18.6,20.35-38.89,32.59-57.18c8.18-12.24,16.4-24.66,28.9-32.64
		c9.38-5.99,18.02-12.47,25.27-20.81c3.87-4.45,8.54-7.04,14.25-8.53c23.55-6.14,46.36-14.42,67.65-26.26
		c22.94-12.77,45.47-26.29,68.18-39.47c24.19-14.04,47.14-30.04,70.81-44.9c7.35-4.62,12.67-10.68,14.54-19.35
		c2.06-9.54-0.89-15.3-9.82-18.76c-3.09-1.2-6.34-2.04-9.58-2.76c-29.6-6.61-58.29-15.92-86.35-27.52
		c-49.47-20.44-89.65-53.07-123.65-93.56c-18.2-21.67-37.41-42.31-56.68-62.97c-13.41-14.37-25.31-30.05-33.58-48.05
		c-6.2-13.52-8.73-27.56-5.24-42.52c2.34-10.03,4.69-20.04,8.05-29.75c2.89-8.35,2.03-15.59-3.98-22.15c-2.7-2.94-5.3-5.96-7.89-9
		c-8.69-10.19-14.7-21.07-12.16-35.39c5.89-33.27,12.71-66.38,17.21-99.9c2.18-16.25,3.92-32.71,1.46-48.71
		c-3.27-21.27-2.67-42.46-2.58-63.7c0.08-17.45,6.47-32.36,21.06-43.03c5.65-4.13,10.92-8.73,15.66-13.89
		c12.01-13.05,21.03-27.62,21.02-46c0-8.7,1.24-17.21,2.25-25.77c1.57-13.3,4.61-26.3,11.97-37.67
		c14.62-22.59,27.89-46.03,44.45-67.42c26.18-33.82,58.03-60.02,97.26-77.28c34.58-15.21,70.45-25.69,107.94-30.53
		c7.43-0.96,13.72-3.56,19.41-8.99c6.91-6.59,13.3-13.98,22.27-18.27c9.07-4.34,18.61-7.18,28.3-9.44
		c11.65-2.72,23.83-2.79,35.4-5.02c20.24-3.9,40.42-3.06,60.68-3.33c2.98-0.04,6.08-0.09,8.92,0.64c17.2,4.41,34.99,3.77,52.43,6.11
		c9.87,1.32,19.57,4.04,29.55,4.25c10.74,0.22,21.16,2.29,31.49,4.75c12.88,3.07,24.51,8.51,32.44,19.84
		c5.54,7.91,11.63,15.38,18.04,22.61c4.5,5.08,7.43,11.2,8.57,17.77c3,17.3,6.86,34.62,7.81,52.08c1.27,23.2,4.39,46.35,3.14,69.71
		c-0.6,11.29,2.68,22.35,4.14,33.53c0.34,2.62,1.84,4.9,3.37,7.15c7.46,10.94,18,13.97,30.53,12.44
		c13.7-1.67,26.34-6.69,38.94-11.94c10.5-4.37,21.31-8.45,32.82-6.83c20.1,2.83,39.62,8.37,58.7,15.24
		c9.54,3.44,15.63,10.71,19.25,20.26c5.24,13.84,5.7,28.53,8.02,42.87c2.29,14.12,4.14,28.37,11.98,40.71
		c7.46,11.74,10.96,24.77,14.11,38.04c3.38,14.26,4.05,28.92,6.55,43.25c3.7,21.25,3.95,42.12-0.08,63.25
		c-2.71,14.17-1.65,27.33,8.76,39.23c9.59,10.96,11.51,24.41,6.36,38.42c-2.06,5.6-3.72,11.38-6.26,16.75
		c-4.37,9.25-5.64,18.88-6.13,29.01c-0.81,16.62-3.46,33.14-11.4,48.03c-6.62,12.41-9.09,25.71-9.57,39.29
		c-0.42,11.92-3.29,22.88-8.17,33.55c-5.16,11.28-11.91,21.55-19.77,31.1c-5.1,6.2-9.95,12.62-11.91,20.5
		c-4.12,16.54-13.38,29.37-26.75,39.68c-7.98,6.16-14.6,13.56-18.23,23.29c-7.77,20.81-21.44,37.05-41.04,47.04
		c-17.51,8.93-32.84,19.79-44.35,35.78c-0.19,0.27-0.47,0.47-0.7,0.71c-7.82,8.07-7.76,9.45,0.9,16.18c1.3,1.01,2.79,1.79,4.22,2.64
		c22.31,13.22,44.66,26.37,66.91,39.68c6.13,3.66,12.62,6.2,19.71,6.19c27.94-0.05,54.69,6.81,81.18,14.39
		c30.19,8.64,60.84,14.22,92.13,15.45c12.85,0.5,24.99,1.96,36.71,7.49c20.49,9.65,40.81,19.52,58.27,34.28
		c17.82,15.05,30.66,34.03,41.9,54.11c11.21,20.03,20.61,40.95,28.66,62.48c3.43,9.16,5.72,18.4,5.45,28.17
		c-0.22,7.71,0.61,15.25,2.54,22.73c5.29,20.55,10.64,41.09,15.62,61.71c10.9,45.08,19.73,90.6,28.55,136.13
		c7.94,40.97,15.87,81.95,24.13,122.85c6.11,30.22,12.44,60.39,17.71,90.79c4.59,26.43,8.28,52.99,12.4,79.49
		c2.09,13.44,3.19,26.96,4.86,40.42c1.43,11.53,4.27,22.92,4.68,34.47c0.51,14.65,3.81,28.9,5.13,43.44
		c1.41,15.46,3.28,30.99,4.73,46.45c1.93,20.46,4.82,40.81,6.4,61.3c0.38,4.93,1.65,9.8,1.32,14.81c-0.6,9.07,1.5,17.86,2.95,26.69
		c0.69,4.21,2.09,8.55,6.22,10.85c5.22,2.91,10.39,6.16,15.99,8.04c11.11,3.73,21.69,8.43,31.82,14.27
		c3.71,2.14,7.45,4.37,12.01,2.45c2.74,2.52,6.16,3.89,9.58,4.98c12.28,3.91,24.15,8.65,35.02,15.67c2.82,1.82,6,2.69,9.34,2.93
		c5.37,5.47,11.55,9.88,18.16,13.73c12.86,7.5,25.73,14.98,38.54,22.55c9.29,5.49,10.55,5.09,15.02-5.32
		c3.29,1.01,5.95,3.13,8.13,5.58c12.34,13.93,27.55,23.93,43.64,32.91c10.44,5.83,21.06,11.37,31.02,18.09
		c6.64,4.48,12.54,1.11,13.09-6.97c0.18-2.6-0.17-5.39-0.97-7.88c-3.11-9.65-3.98-19.51-3.5-29.55c0.45-9.38-0.67-18.52-3.29-27.58
		c-1.75-6.06-2.4-12.35-2.14-18.75c0.38-9.33-0.82-18.5-2.24-27.77c-2.79-18.31-1.73-37.09-6.3-55.24
		c-0.24-0.94-0.07-1.99-0.03-2.99c0.28-8-0.05-15.96-1.97-23.77c-1.83-7.5-2.36-15.1-2.04-22.78c0.12-3.01-0.06-5.99-1.1-8.86
		c-7-19.37-2.92-40.36-8.76-59.89c1.78-19.14-5.78-37.16-6.51-56.19c-0.75-19.75-5.33-39.34-8.25-58.99
		c-4.34-29.15-10.96-57.96-16.22-86.98c-3.37-18.6-6.83-37.16-10.72-55.66c-5.52-26.27-10.9-52.58-15.47-79.07
		c-5.65-32.67-12.67-65.11-19.14-97.64c-8.54-42.92-16.98-85.87-25.74-128.75c-6.25-30.58-12.63-61.14-21.07-91.24
		c-5.64-20.11-11.03-40.32-15.48-60.71c-3.1-14.19-8.39-28.17-6.91-43.11c1.56-15.73-2.81-30.39-8.34-44.7
		c-15.36-39.76-33.3-78.13-57.37-113.66c-18.41-27.17-40.19-50.34-68.13-67.52c-17-10.45-34.3-20.39-52.62-28.48
		c-20.05-8.85-40.84-14.12-62.84-13.68c-13.07,0.26-25.97-0.38-38.57-4.09c-3.26-0.96-6.6-1.06-9.91-0.84
		c-9.17,0.6-17.83-2.12-26.5-4.26c-8.36-2.06-11.22-8.07-7.92-15.87c9.2-21.79,13.71-44.38,12.11-68.04
		c-0.61-9.08,2.2-16.99,7.27-24.32c3.8-5.48,7.34-11.18,9.13-17.64c6.29-22.73,12.3-45.52,11.63-69.42
		c-0.26-9.21,2.16-17.75,6.5-25.79c5.55-10.29,10.49-20.94,12.02-32.54c1.97-14.9,2.7-29.92-6.14-43.41
		c-2.73-4.18-5.11-8.72-8.49-12.31c-8.94-9.5-11.28-20.48-9.76-33.11c1.79-14.81,0.59-29.83,4.76-44.56
		c1.92-6.78,1.66-14.88,0.03-21.82c-5.88-25.03-0.69-51.28-8.89-75.96c-0.2-0.61,0.03-1.34-0.1-1.99
		c-3.82-18.49-6.32-37.36-14.88-54.54c-4.44-8.91-9.52-17.54-13.51-26.65c-5.35-12.23-6.53-25.46-8.93-38.51
		c-3.35-18.26-4.8-36.83-9.15-54.92c-5.03-20.92-15.55-37.02-36.49-45.17c-10.9-4.25-22.52-5.9-33.4-9.92
		c-20.57-7.59-41.56-11.5-63.56-10.33c-9.08,0.48-17.81,1.54-26.18,5.32c-20.97,9.48-42.38,17.48-65.49,20.11
		c-7.11,0.81-13.91,1.45-20.09-3.09c-10.53-7.75-16.7-17.51-16.38-31.2c0.43-18.65,0.1-37.32,0.12-55.98c0-4.34,0.3-8.76-1.05-12.9
		C1573.13,38.4,1577.35,18.85,1573.91,0z"/>
	<g id="Purple">
		<path class="st1" d="M2367.21,2174.36c-3.11-9.65-3.98-19.51-3.5-29.55c0.45-9.38-0.67-18.52-3.29-27.58
			c-1.75-6.06-2.4-12.35-2.14-18.75c0.38-9.33-0.82-18.5-2.24-27.77c-2.79-18.31-1.73-37.09-6.3-55.24
			c-0.24-0.94-0.07-1.99-0.03-2.99c0.28-8-0.05-15.96-1.97-23.77c-1.83-7.5-2.36-15.1-2.04-22.78c0.12-3.01-0.06-5.99-1.1-8.86
			c-7-19.37-2.92-40.36-8.76-59.89c1.78-19.14-5.78-37.16-6.51-56.19c-0.75-19.75-5.33-39.34-8.25-58.99
			c-4.34-29.15-10.96-57.96-16.22-86.98c-3.37-18.6-6.83-37.16-10.72-55.66c-5.52-26.27-10.9-52.58-15.47-79.07
			c-5.65-32.67-12.67-65.11-19.14-97.64c-8.54-42.92-16.98-85.87-25.74-128.75c-6.25-30.58-12.63-61.14-21.07-91.24
			c-5.64-20.11-11.03-40.32-15.48-60.71c-3.1-14.19-8.39-28.17-6.91-43.11c1.56-15.73-2.81-30.39-8.34-44.7
			c-15.36-39.76-33.3-78.13-57.37-113.66c-18.41-27.17-40.19-50.34-68.13-67.52c-17-10.45-34.3-20.39-52.62-28.48
			c-20.05-8.85-40.84-14.12-62.84-13.68c-13.07,0.26-25.97-0.38-38.57-4.09c-3.26-0.96-6.6-1.06-9.91-0.84
			c-9.17,0.6-17.83-2.12-26.5-4.26c-8.36-2.06-11.22-8.07-7.92-15.87c9.2-21.79,13.71-44.38,12.11-68.04
			c-0.61-9.08,2.2-16.99,7.27-24.32c3.8-5.48,7.34-11.18,9.13-17.64c6.29-22.73,12.3-45.52,11.63-69.42
			c-0.26-9.21,2.16-17.75,6.5-25.79c5.55-10.29,10.49-20.94,12.02-32.54c1.97-14.9,2.7-29.92-6.14-43.41
			c-2.73-4.18-5.11-8.72-8.49-12.31c-8.94-9.5-11.28-20.48-9.76-33.11c1.79-14.81,0.59-29.83,4.76-44.56
			c1.92-6.78,1.66-14.88,0.03-21.82c-5.88-25.03-0.69-51.28-8.89-75.96c-0.2-0.61,0.03-1.34-0.1-1.99
			c-3.82-18.49-6.32-37.36-14.88-54.54c-4.44-8.91-9.52-17.54-13.51-26.65c-5.35-12.23-6.53-25.46-8.93-38.51
			c-3.35-18.26-4.8-36.83-9.15-54.92c-5.03-20.92-15.55-37.02-36.49-45.17c-10.91-4.25-22.52-5.9-33.4-9.92
			c-20.57-7.59-41.56-11.5-63.56-10.33c-9.08,0.48-17.81,1.54-26.18,5.32c-20.97,9.48-42.38,17.48-65.49,20.11
			c-7.11,0.81-13.91,1.45-20.09-3.09c-10.53-7.75-16.7-17.51-16.38-31.2c0.43-18.65,0.1-37.32,0.12-55.98c0-4.34,0.3-8.76-1.05-12.9
			c-6.05-18.63-1.83-38.18-5.27-57.03c-14.67,0-29.34,0-44.01,0c1.33,6.49,3.2,12.92,3.9,19.47c2.46,23.04,7.47,45.86,6.21,69.22
			c-0.51,9.47,2.39,18.39,4.41,27.43c0.88,3.95,1.39,7.81,1.38,11.81c-0.03,17.32,0.42,34.66-0.16,51.96
			c-0.42,12.55,5.8,20.94,15.22,27.37c7.42,5.06,16.09,2.99,24.28,1.83c17.94-2.54,34.6-9.21,51.05-16.42
			c7.74-3.39,15.8-4.38,24.2-5.01c24.79-1.87,48.12,3.98,71.21,11.85c4.71,1.6,9.6,2.65,14.32,4.21
			c19.51,6.47,31.96,19.42,36.9,39.63c5.28,21.6,8.68,43.47,11.36,65.53c1.6,13.21,6.08,25.9,13.32,37.21
			c11.43,17.85,15.67,37.9,18.32,58.36c1.07,8.28,3.71,16.15,4.94,24.37c0.55,3.63,1.12,7.21,1.03,10.85
			c-0.43,15.66,0.71,31.13,3.65,46.57c1.56,8.2-1.3,16.47-2.38,24.64c-1.9,14.29-0.73,28.57-0.92,42.84
			c-0.07,5.01,3.19,9.32,6.19,13.38c2.57,3.47,5.16,6.95,7.44,10.61c4.3,6.89,7.07,14.19,6.35,22.63
			c-0.79,9.23,0.68,18.52-1.69,27.8c-1.76,6.89-4.81,13.17-7.81,19.35c-4.17,8.59-6.26,17.28-6.68,26.73
			c-0.98,21.63-4.96,42.74-11.58,63.39c-1.98,6.18-5.64,11.33-8.91,16.65c-4.02,6.52-6.06,13.21-5.63,20.76
			c1.29,22.33-3.31,43.53-11.97,64.03c-6.43,15.21-16.36,28.07-26.86,40.54c-3.88,4.61-7.7,9.2-10.17,14.72
			c-4.6,10.3-0.89,19.22,9.98,22.64c10.44,3.28,21.11,5.82,31.7,8.58c19.94,5.2,40.69,5.58,60.78,9.96
			c2.23,0.49,4.66,0.29,6.98,0.16c37.36-2.01,70.55,10.39,101.77,29.47c12.75,7.79,25.55,15.46,37.39,24.75
			c13.28,10.42,23.99,23.03,33.58,36.58c16.33,23.09,31.03,47.11,42.32,73.25c6.99,16.19,14,32.33,19.86,48.94
			c3.21,9.11,5.38,18.55,4.62,28.31c-1.37,17.63,3.81,34.24,8.03,50.91c11.81,46.58,25.47,92.73,33.69,140.15
			c5.77,33.33,13.66,66.22,19.81,99.44c5.37,29,10.89,57.97,16.76,86.87c7.66,37.67,14.71,75.46,22.5,113.11
			c5.9,28.5,11.1,57.21,15.82,85.98c2.36,14.36,4.4,28.83,6.45,43.2c1.86,13.06,6.13,25.89,5.33,39.35
			c-0.15,2.56,1.06,5.17,1.36,7.79c2.29,19.72,5.61,39.34,6.44,59.21c0.16,3.74,1.24,7.19,1.89,10.76
			c4.31,23.48,5.22,47.39,8.58,70.9c2.86,20.03,1.64,40.46,6.85,60.17c0.66,2.52,0.62,5.29,0.5,7.93
			c-0.48,10.71,0.65,21.22,3.34,31.59c0.41,1.59,0.75,3.29,0.65,4.91c-0.84,14.72,0.77,29.17,4.46,43.41c3.3,1,5.96,3.12,8.13,5.57
			c12.34,13.93,27.55,23.93,43.64,32.91c10.44,5.83,21.06,11.37,31.02,18.09c6.64,4.48,12.54,1.11,13.09-6.97
			C2368.36,2179.63,2368.01,2176.84,2367.21,2174.36z"/>
		<path class="st2" d="M789.12,21.4c-21.13,26.62-40.04,54.69-57.52,83.8c-7.87,13.1-16.07,25.89-21.55,40.35
			c-6.54,17.27-6.91,34.99-6.64,53.01c0.43,29.12-11.09,53.46-30.67,74.45c-9.36,10.03-20.46,18.01-30.96,26.68
			c-8.29,6.84-13.57,15.27-15.89,25.7c-3.97,17.87-7.36,35.77-6.48,54.24c0.56,11.63-1.74,23.57,1.17,34.86
			c3.78,14.66,3.06,29.67,5.33,44.41c0.43,2.82,1.83,5.6,1,8.73c-4.96,18.72-2.52,38.22-6.75,57.26
			c-3.71,16.69-5.37,34.01-8.49,50.97c-4.68,25.42-8.65,50.97-13.84,76.28c-2.07,10.08-0.52,18.97,3.48,27.9
			c5.69,12.67,14.98,22.7,24.3,32.66c7.13,7.61,10.76,15.66,6.79,26.24c-3.37,8.98-6.05,18.23-8.78,27.43
			c-5.89,19.87-5.94,40.02-1.85,60.15c3.1,15.26,10.95,28.64,19.62,41.18c21.03,30.44,44.53,58.85,72.38,83.49
			c6.18,5.46,11.3,12.14,16.18,18.89c3.27,4.51,2.52,8.64-0.39,12.86c-1.75,2.54-4.23,4.13-6.81,5.72
			c-7.67,4.72-14.87,10.03-21.31,16.43c-18.85,18.77-32.67,41.19-45.61,64.03c-12.12,21.39-23.46,43.22-36.22,64.27
			c-23.43,38.65-45.55,77.96-63.73,119.5c-18.65,42.63-34.39,86.34-49.2,130.32c-11.54,34.26-22.34,68.8-34.26,102.94
			c-15.21,43.57-31.38,86.8-46.51,130.39c-7.29,21-17.21,39.91-32.23,56.66c-13.73,15.32-25.75,32.27-29.93,53.29
			c-2.02,10.18-8.47,16.97-17.06,22.2c-8.82,5.37-17.57,10.87-25.65,17.34c-5.62,4.5-10.31,10.05-10.76,17.32
			c-1.14,18.36-0.58,36.54,8.39,53.48c7.48,14.14,16.13,27.52,24.97,40.8c5.02,7.54,11.43,13.74,18.39,19.53
			c7.62,6.35,7.05,11.98-1.19,17.63c-2.74,1.88-5.7,3.43-8.5,5.22c-5.12,3.29-9.37,7.55-12.48,12.73c-3.74,6.23-3.8,12.58,0.5,18.7
			c2.7,3.85,5.87,7.23,9.76,9.91c6.86,4.71,13.74,9.38,20.56,14.15c10.88,7.61,23.36,12.78,33.08,22.19
			c17.3,16.75,29.7,36.57,37.7,59.19c4.2,11.88,7.82,23.97,12.34,35.72c7.14,18.55,17.62,34.97,32.87,48.06
			c19.18,16.46,38.3,32.98,57.53,49.37c7.85,6.69,13.4,6.01,18.68-2.82c6.34-10.59,13.07-20.85,21.02-30.3
			c-0.56-1.18-0.82-2.72-1.73-3.48c-12.72-10.68-25.33-21.51-38.37-31.8c-19.39-15.31-33.08-34.62-40.87-57.88
			c-4.53-13.54-8.71-27.15-14.88-40.08c-10.82-22.7-25.56-41.82-48.12-54.06c-10.84-5.89-21.18-12.74-30.61-20.55
			c-12.96-10.72-14.85-20-1.85-32.27c3.72-3.51,8.14-5.69,12.23-8.51c7.32-5.06,8.14-10.39,1.46-16.23
			c-11.76-10.28-20.18-22.93-27.97-36.14c-8.26-14.01-17.37-27.68-18.66-44.63c-1.82-23.97-2.83-31.74,19.55-46.69
			c4.7-3.14,9.61-5.99,14.19-9.31c7.98-5.79,14.47-12.54,15.89-23.1c0.56-4.18,2.59-8.23,4.33-12.16
			c6.41-14.47,16.43-26.53,26.4-38.57c5.95-7.18,12.51-14.06,15.98-22.75c6.78-16.97,12.92-34.19,19.12-51.38
			c9.24-25.61,18.35-51.26,27.4-76.93c8.17-23.17,16.36-46.33,24.2-69.61c8.69-25.77,16.42-51.87,25.61-77.45
			c10.22-28.46,20.99-56.7,33.48-84.32c11.93-26.39,25.14-52.04,39.61-77.07c9.98-17.27,20.32-34.34,30.21-51.67
			c13.84-24.26,26.4-49.25,42.87-71.97c9.84-13.57,20.44-26.35,35.22-34.76c8.57-4.87,16.05-10.55,21-19.3
			c4.15-7.33,10.7-11.66,18.8-13.76c6.74-1.75,13.44-3.68,20.21-5.32c11.48-2.78,18.92-10.61,6.3-22.41
			c-9.92-9.27-18.85-19.63-27.69-30.04c-10.33-12.16-19.11-25.63-30.58-36.78c-24.86-24.17-48.5-49.35-68.03-78.15
			c-10.6-15.62-19.07-32.15-20.57-51.19c-1.59-20.07,0.29-40.03,8.7-58.54c6.95-15.3,3.36-27.29-8.16-38.33
			c-7-6.71-12.48-14.72-16.97-23.3c-3.58-6.83-5.63-14.14-4.29-21.92c1.68-9.79,3.31-19.59,4.88-29.4
			c5-31.39,11.2-62.58,16.62-93.91c3.14-18.14,3.45-36.32,4.59-54.43c0.93-14.69-1.11-29.79-4.58-44.38
			c-0.63-2.64-0.94-5.22-0.94-7.89c-0.04-24.58-1.04-49.16,5.61-73.31c2.59-9.41,7.22-17.1,14.06-23.57
			c4.08-3.86,8.96-6.86,13.34-10.42c20.4-16.6,35.67-36.58,41.72-62.78c2.22-9.6,1.52-19.27,1.13-28.84
			c-0.79-18.9,4.12-36.55,12.87-52.6c12.23-22.43,25.81-44.19,40.45-65.2c12.55-18.02,26.04-35.22,40.83-51.56
			c16.39-18.12,34.22-34.26,54.03-48.47c9.5-6.81,20.43-11,29.9-17.74c-37.34,0-74.68,0-112.02,0
			C803.1,7.3,795.37,13.52,789.12,21.4z"/>
	</g>
	<g id="Blue">
		<path class="st3" d="M2265.4,2142.45c-2.09,0-4.55-1.22-8.63-3.64c-11.11-6.57-22.45-13.18-33.42-19.57l-5.11-2.98
			c-7.42-4.33-13.43-8.87-18.36-13.89l-0.53-0.54l0.38-0.66c4.32-7.56,2.57-15.55,0.88-23.27c-0.09-0.42-0.26-0.87-0.43-1.34
			c-0.33-0.87-0.66-1.77-0.61-2.76c0.53-11.11-0.95-22.27-2.38-33.06c-0.62-4.7-1.27-9.55-1.74-14.35
			c-0.37-3.74-0.67-7.54-0.96-11.22c-0.33-4.11-0.67-8.37-1.1-12.55c-0.69-6.69-1.53-13.48-2.35-20.05
			c-1.64-13.17-3.33-26.79-3.87-40.32c-0.09-2.25-0.53-4.57-0.96-6.81c-0.37-1.93-0.75-3.92-0.93-5.92
			c-0.73-8.5-1.84-17.12-2.91-25.45c-1.3-10.09-2.64-20.53-3.33-30.9c-0.48-7.19-1.56-14.49-2.62-21.54
			c-1.02-6.83-2.07-13.9-2.58-20.9c-1-13.79-3.46-27.61-5.83-40.97c-2.02-11.34-4.1-23.06-5.3-34.75
			c-1.53-14.99-4.61-30.11-7.58-44.73c-0.88-4.35-1.77-8.69-2.61-13.04c-5.95-30.58-12.13-61.65-18.11-91.69
			c-2.15-10.79-4.29-21.57-6.43-32.36c-1.66-8.35-3.4-16.83-5.08-25.04c-3.63-17.7-7.38-35.99-10.53-54.09
			c-3.89-22.36-8.47-44.97-12.9-66.84c-2.89-14.28-5.88-29.05-8.66-43.61c-6.33-33.24-15.06-66.54-23.5-98.74l-1.51-5.77
			c-0.62-2.36-1.25-4.72-1.88-7.08c-5.13-19.2-10.42-39.05-9.33-59.79c0.38-7.13-2.03-14.21-4.36-21.06l-0.62-1.82
			c-15.64-46.39-36.26-85.71-63.05-120.21c-14.23-18.34-32.93-33.58-58.85-47.97l-2.35-1.3c-16.06-8.93-32.66-18.16-51.19-21.87
			l-0.27-0.05c-7.68-1.54-15.62-3.13-23.56-3.13c-0.86,0-1.72,0.02-2.58,0.06c-1.15,0.05-2.34,0.08-3.54,0.08
			c-7.32,0-14.64-0.96-21.72-1.89c-3.78-0.5-7.68-1.01-11.53-1.37c-23.62-2.19-46.54-8.53-68.72-14.66l-1.47-0.41
			c-18.48-5.11-40.42-10.75-63.03-13.87c-4.42-0.61-7.71-3.18-9.79-7.65c-2.05-4.41,1.13-7.43,3.45-9.64l0.15-0.14
			c3.45-3.29,7.07-6.5,10.57-9.61c2.86-2.54,5.82-5.16,8.66-7.8c11.94-11.11,18.91-23.11,21.32-36.69
			c1.32-7.47,5.03-14.56,11.66-22.33c10.02-11.73,20.16-24.75,26.49-40.49c5.52-13.72,11.05-30.14,10.31-47.92
			c-0.56-13.27,2.26-24.27,8.88-34.64c6.56-10.29,8.6-22.55,10.56-34.4c0.23-1.4,0.46-2.79,0.7-4.18c0.3-1.77,0.62-3.54,0.93-5.31
			c1.68-9.46,3.42-19.23,3.29-29.06c-0.08-6.41,2.45-12.21,5.21-17.52c6.75-13.01,9.79-26.37,9.29-40.84
			c-0.3-8.77-1.54-18.74-8.5-26.26c-14.56-15.74-13.67-34.97-10.87-51.71c3.66-21.92,3.5-40.33-0.51-57.94
			c-0.4-1.74-0.38-3.61-0.33-5.22c0.62-21.37-4.12-42.37-8.69-62.68c-0.51-2.27-1.03-4.55-1.53-6.82
			c-1.46-6.55-3.47-11.94-6.16-16.48c-11.44-19.32-18.04-39.06-20.18-60.36c-1.31-13.02-3.6-26.43-7.02-41.01
			c-4.4-18.77-14.77-30.8-31.7-36.77c-20.29-7.15-36.19-11.67-51.55-14.65c-6.68-1.29-13.34-1.95-19.78-1.95
			c-14.42,0-28.47,3.3-41.75,9.8c-10.81,5.29-22.97,9.02-38.27,11.74c-2.4,0.43-4.78,0.64-7.05,0.64
			c-17.31,0-28.63-12.12-28.84-30.87c-0.13-11.63-0.13-22.1,0.01-32.02c0.15-10.76-0.1-23.5-3.11-36.41
			c-1.24-5.33-1.07-11.01-0.9-16.51l0.05-1.66c0.25-8.69-0.88-17.42-1.97-25.85c-0.29-2.23-0.58-4.46-0.84-6.7l-0.5-4.26
			c-1.17-9.91-2.38-20.16-3.98-30.21c-2.94-18.38-9-32.19-19.09-43.46c-5.2-5.81-10.07-12.06-14.78-18.11
			c-2.1-2.7-4.28-5.5-6.45-8.21l-1.3-1.63h66.91l0.16,0.8c0.42,2.03,0.89,4.09,1.36,6.08c1.02,4.39,2.07,8.93,2.56,13.48
			c0.71,6.65,1.65,13.41,2.56,19.94c2.24,16.1,4.56,32.75,3.66,49.45c-0.4,7.38,1.36,14.6,3.07,21.58c0.45,1.86,0.9,3.71,1.32,5.58
			c0.95,4.27,1.41,8.21,1.41,12.03c-0.01,5.5,0.03,11.1,0.07,16.51c0.08,11.63,0.17,23.66-0.23,35.48
			c-0.37,10.95,4.33,19.38,14.79,26.51c3.07,2.1,6.58,3.07,11.04,3.07c3.23,0,6.59-0.51,9.85-1.01c0.9-0.14,1.79-0.27,2.68-0.4
			c18.39-2.6,35.86-9.8,50.79-16.35c8.25-3.61,16.99-4.52,24.53-5.09c3.11-0.23,6.29-0.35,9.46-0.35c23.1,0,44.38,6.19,62.15,12.25
			c2.41,0.82,4.92,1.51,7.35,2.17c2.29,0.63,4.66,1.27,6.96,2.04c20,6.64,32.64,20.21,37.55,40.34
			c4.62,18.93,8.24,39.79,11.38,65.65c1.62,13.29,6.05,25.67,13.17,36.79c12,18.73,16.07,40.22,18.47,58.77
			c0.56,4.32,1.57,8.63,2.55,12.79c0.88,3.76,1.8,7.64,2.39,11.56l0.09,0.62c0.51,3.38,1.04,6.88,0.94,10.41
			c-0.43,15.83,0.79,31.42,3.63,46.35c1.15,6.05-0.03,12.13-1.17,18.02c-0.44,2.28-0.9,4.65-1.21,6.94
			c-1.3,9.83-1.15,19.85-0.99,29.54c0.07,4.32,0.14,8.78,0.08,13.18c-0.06,4.59,2.94,8.65,5.85,12.58l0.42,0.57
			c2.45,3.31,4.99,6.74,7.21,10.3c5.09,8.16,7.16,15.55,6.5,23.25c-0.29,3.38-0.27,6.84-0.25,10.19c0.03,5.8,0.06,11.8-1.46,17.77
			c-1.79,7-4.89,13.38-7.88,19.54c-4,8.24-6.16,16.86-6.58,26.33c-0.96,21.15-4.87,42.56-11.63,63.65
			c-1.68,5.23-4.53,9.75-7.3,14.13c-0.58,0.91-1.15,1.83-1.72,2.74c-4.15,6.73-5.89,13.14-5.48,20.17
			c1.23,21.3-2.71,42.38-12.04,64.47c-6.12,14.49-15.23,26.79-27.01,40.8c-3.72,4.42-7.56,8.98-10.02,14.48
			c-2.19,4.89-2.44,9.47-0.74,13.24c1.67,3.7,5.16,6.48,10.11,8.04c7.98,2.51,16.25,4.62,24.24,6.66c2.47,0.63,4.95,1.26,7.41,1.91
			c10.84,2.83,22.14,4.25,33.07,5.62c9.11,1.15,18.52,2.33,27.67,4.32c0.9,0.2,1.9,0.29,3.14,0.29c0.97,0,1.97-0.06,2.93-0.11
			l0.64-0.04c2.65-0.14,5.33-0.21,7.96-0.21c31.09,0,61.08,9.48,94.38,29.83l2.42,1.48c11.76,7.18,23.93,14.6,35.06,23.34
			c11.9,9.34,22.63,21.03,33.78,36.79c18.75,26.51,32.23,49.84,42.42,73.43l0.67,1.54c6.66,15.41,13.54,31.34,19.22,47.46
			c3.86,10.95,5.35,20.08,4.68,28.72c-1.19,15.28,2.67,30.07,6.4,44.38c0.54,2.07,1.08,4.14,1.6,6.2c3,11.83,6.17,23.84,9.24,35.45
			c9.01,34.1,18.33,69.36,24.46,104.77c3.17,18.29,7.04,36.77,10.79,54.63c3.07,14.66,6.25,29.82,9.02,44.8
			c6.24,33.73,11.57,61.33,16.76,86.85c3.47,17.05,6.87,34.42,10.15,51.21c3.97,20.3,8.08,41.29,12.35,61.9
			c5.55,26.82,10.73,54.96,15.83,86.02c2.23,13.6,4.21,27.47,6.13,40.89l0.33,2.33c0.59,4.16,1.45,8.38,2.28,12.46
			c1.78,8.76,3.61,17.81,3.06,27.09c-0.08,1.37,0.29,2.81,0.67,4.33c0.27,1.07,0.55,2.17,0.68,3.29c0.67,5.78,1.44,11.66,2.19,17.34
			c1.8,13.7,3.67,27.86,4.26,41.94c0.1,2.48,0.62,4.79,1.17,7.24c0.25,1.12,0.5,2.24,0.71,3.38c2.51,13.68,3.89,27.71,5.23,41.28
			c0.96,9.75,1.95,19.83,3.35,29.66c1.11,7.81,1.62,15.79,2.11,23.5c0.77,12.09,1.56,24.58,4.72,36.55c0.71,2.7,0.65,5.66,0.53,8.23
			c-0.47,10.48,0.64,21.01,3.31,31.3c0.38,1.44,0.79,3.34,0.68,5.22c-0.81,14.14,0.68,28.64,4.43,43.1l0.09,0.33l-0.13,0.31
			C2270.7,2138.89,2268.92,2142.45,2265.4,2142.45L2265.4,2142.45z"/>
		<path class="st3" d="M2267.84,2089.22c0.09-1.62-0.24-3.32-0.65-4.91c-2.69-10.37-3.82-20.88-3.34-31.59
			c0.12-2.64,0.17-5.42-0.5-7.93c-5.2-19.7-3.99-40.14-6.85-60.17c-3.36-23.51-4.27-47.42-8.58-70.9
			c-0.66-3.57-1.74-7.02-1.89-10.76c-0.83-19.87-4.15-39.49-6.44-59.21c-0.3-2.62-1.52-5.23-1.36-7.79
			c0.8-13.46-3.47-26.29-5.33-39.35c-2.05-14.37-4.09-28.83-6.45-43.2c-4.72-28.77-9.92-57.48-15.82-85.98
			c-7.79-37.65-14.84-75.44-22.5-113.11c-5.88-28.89-11.39-57.87-16.76-86.87c-6.15-33.22-14.04-66.11-19.81-99.44
			c-8.22-47.42-21.88-93.57-33.69-140.15c-4.22-16.66-9.4-33.28-8.03-50.91c0.76-9.76-1.41-19.2-4.62-28.31
			c-5.86-16.62-12.87-32.76-19.86-48.94c-11.29-26.14-25.99-50.16-42.32-73.25c-9.59-13.55-20.31-26.16-33.58-36.58
			c-11.84-9.29-24.63-16.96-37.39-24.75c-31.21-19.07-64.41-31.48-101.77-29.47c-2.32,0.13-4.75,0.32-6.98-0.16
			c-20.09-4.38-40.83-4.75-60.78-9.96c-10.6-2.76-21.27-5.3-31.7-8.58c-10.88-3.42-14.59-12.35-9.98-22.64
			c2.47-5.52,6.29-10.11,10.17-14.72c10.5-12.47,20.43-25.33,26.86-40.54c8.66-20.49,13.25-41.7,11.97-64.03
			c-0.43-7.55,1.61-14.23,5.63-20.76c3.27-5.32,6.93-10.47,8.91-16.65c6.62-20.65,10.6-41.76,11.58-63.39
			c0.43-9.44,2.51-18.14,6.68-26.73c3-6.18,6.05-12.46,7.81-19.35c2.37-9.28,0.9-18.56,1.69-27.8c0.72-8.44-2.05-15.74-6.35-22.63
			c-2.28-3.66-4.87-7.14-7.44-10.61c-3-4.06-6.26-8.37-6.19-13.38c0.19-14.27-0.98-28.55,0.92-42.84
			c1.08-8.17,3.94-16.44,2.38-24.64c-2.93-15.44-4.07-30.91-3.65-46.57c0.1-3.64-0.48-7.22-1.03-10.85
			c-1.23-8.22-3.87-16.08-4.94-24.37c-2.65-20.47-6.89-40.51-18.32-58.36c-7.24-11.31-11.72-24-13.32-37.21
			c-2.68-22.06-6.08-43.93-11.36-65.53c-4.94-20.21-17.39-33.16-36.9-39.63c-4.72-1.57-9.61-2.61-14.32-4.21
			c-23.09-7.87-46.42-13.72-71.21-11.85c-8.4,0.63-16.46,1.62-24.2,5.01c-16.45,7.21-33.11,13.88-51.05,16.42
			c-8.19,1.16-16.86,3.24-24.28-1.83c-9.42-6.43-15.65-14.82-15.22-27.37c0.58-17.3,0.13-34.64,0.16-51.96
			c0.01-4-0.5-7.86-1.38-11.81c-2.01-9.03-4.92-17.96-4.41-27.43c1.26-23.36-3.75-46.19-6.21-69.22c-0.7-6.55-2.57-12.99-3.9-19.47
			c-21.34,0-42.67,0-64.01,0c7.04,8.79,13.7,17.91,21.2,26.28c11.32,12.65,16.69,27.45,19.33,43.97c1.83,11.49,3.12,22.98,4.49,34.5
			c1.29,10.89,3.13,21.66,2.82,32.69c-0.17,5.98-0.52,12.19,0.82,17.91c2.83,12.13,3.31,24.32,3.14,36.65
			c-0.15,10.66-0.13,21.33-0.01,31.99c0.24,20.82,14.54,32.84,34.72,29.26c13.14-2.33,26-5.78,38.01-11.65
			c19.87-9.73,40.61-12.1,62.15-7.93c17.64,3.42,34.82,8.74,51.69,14.68c17.51,6.17,27.99,18.89,32.34,37.48
			c3.19,13.63,5.66,27.36,7.04,41.14c2.18,21.68,9.05,41.39,20.05,59.95c3.06,5.17,4.97,10.92,6.27,16.77
			c5.11,23,10.94,45.9,10.25,69.75c-0.05,1.65-0.05,3.37,0.31,4.97c4.42,19.42,3.82,38.58,0.52,58.32
			c-2.94,17.59-3.28,35.85,10.62,50.87c6.76,7.3,8.42,16.8,8.76,26.9c0.5,14.79-2.69,28.37-9.41,41.33
			c-2.78,5.37-5.17,10.97-5.09,17.05c0.16,11.74-2.28,23.12-4.24,34.55c-2.3,13.41-3.96,27.28-11.4,38.95
			c-6.79,10.65-9.24,21.64-8.72,34.06c0.71,16.88-4.15,32.83-10.38,48.33c-6.17,15.34-16.04,28.34-26.66,40.77
			c-5.53,6.47-9.97,13.58-11.44,21.85c-2.69,15.19-10.66,27.04-21.62,37.24c-6.33,5.89-12.96,11.44-19.22,17.4
			c-2.31,2.2-5.16,4.79-3.38,8.64c1.76,3.79,4.64,6.48,9.02,7.08c21.42,2.95,42.33,8.14,63.16,13.89
			c23.01,6.36,45.98,12.8,70.02,15.04c12.2,1.13,24.28,3.73,36.65,3.17c9.05-0.4,17.87,1.39,26.66,3.15
			c19.57,3.92,36.69,13.77,53.82,23.28c22.54,12.51,43.17,27.64,59.16,48.23c28.25,36.39,48.54,76.99,63.21,120.51
			c2.55,7.55,5.45,15.29,5.03,23.25c-1.22,23.08,5.47,44.79,11.18,66.56c9.09,34.69,18.32,69.35,25.03,104.58
			c7.02,36.85,15.12,73.49,21.56,110.46c4.61,26.47,10.37,52.74,15.6,79.11c8.2,41.35,16.49,82.68,24.54,124.05
			c3.74,19.23,8.22,38.43,10.2,57.86c2.6,25.45,9.29,50.21,11.13,75.75c1.03,14.2,4.25,28.25,5.19,42.45
			c1.25,18.89,4.62,37.5,6.24,56.33c0.37,4.28,1.72,8.5,1.89,12.78c0.8,20.24,4.14,40.21,6.21,60.31
			c0.82,7.93,1.28,15.87,2.06,23.78c1.56,15.84,4.89,31.51,4.12,47.56c-0.06,1.26,0.74,2.54,1.03,3.83
			c1.77,8.08,3.48,16.16-0.99,23.98c5.37,5.47,11.55,9.88,18.16,13.73c12.86,7.5,25.73,14.98,38.54,22.55
			c9.29,5.49,10.55,5.09,15.02-5.32C2268.61,2118.4,2267,2103.94,2267.84,2089.22z"/>
		<path class="st3" d="M596.96,2163.33c-3.09,0-6.76-1.92-11.68-5.02c-0.2-0.13-0.55-0.19-0.92-0.26c-0.23-0.04-0.47-0.09-0.69-0.15
			l-0.45-0.12l-0.2-0.42c-0.2-0.42-0.36-0.86-0.51-1.29c-0.27-0.74-0.54-1.51-0.95-1.85c-2.69-2.25-5.37-4.52-8.05-6.78
			c-9.84-8.3-20.02-16.89-30.29-25c-19.54-15.42-33.4-35.05-41.2-58.35c-0.66-1.96-1.31-3.92-1.96-5.89
			c-3.75-11.35-7.63-23.08-12.88-34.08c-12-25.17-27.6-42.71-47.69-53.61c-11.21-6.08-21.56-13.03-30.77-20.65
			c-7.37-6.1-10.89-11.5-11.07-17c-0.17-5.29,2.82-10.78,9.17-16.76c2.58-2.44,5.5-4.25,8.32-6.01c1.33-0.83,2.71-1.69,4.02-2.59
			c3.56-2.46,5.44-4.94,5.58-7.36c0.13-2.29-1.29-4.74-4.21-7.3c-12.18-10.64-20.73-23.78-28.17-36.39c-0.8-1.35-1.6-2.7-2.41-4.05
			c-7.47-12.52-15.2-25.47-16.38-41.01l-0.09-1.22c-1.74-22.83-2.4-31.37,20.08-46.39c1.82-1.21,3.69-2.4,5.5-3.55
			c2.88-1.83,5.86-3.71,8.65-5.74c6.83-4.96,14.02-11.5,15.48-22.42c0.51-3.77,2.13-7.39,3.71-10.88c0.23-0.52,0.47-1.04,0.7-1.56
			c6.41-14.48,16.52-26.69,26.29-38.5l0.25-0.31c0.95-1.15,1.91-2.28,2.88-3.42c4.96-5.85,10.09-11.91,12.95-19.07
			c6.22-15.58,12.01-31.65,17.61-47.19l1.5-4.16c8.5-23.57,17.46-48.73,27.4-76.92l1.58-4.49c7.51-21.3,15.28-43.33,22.62-65.1
			c3.43-10.17,6.77-20.57,9.99-30.63c4.95-15.41,10.06-31.35,15.62-46.84c12.41-34.56,22.74-60.58,33.51-84.4
			c11.79-26.06,25.13-52.02,39.65-77.16c4.41-7.64,8.97-15.37,13.38-22.84c5.56-9.42,11.31-19.17,16.82-28.83
			c3.4-5.97,6.79-12.08,10.06-18c10.04-18.14,20.42-36.89,32.86-54.06c9.5-13.1,20.38-26.41,35.54-35.04
			c10.25-5.83,16.42-11.49,20.62-18.92c4.05-7.15,10.58-11.94,19.42-14.24c2.58-0.67,5.15-1.36,7.72-2.06
			c4.09-1.11,8.32-2.25,12.51-3.27c6.59-1.6,10.93-4.64,11.9-8.35c0.93-3.52-1.17-7.79-6.05-12.35
			c-9.74-9.1-18.34-19.03-27.77-30.12c-3.78-4.45-7.41-9.14-10.92-13.68c-6.08-7.86-12.36-15.99-19.6-23.03
			c-21.87-21.27-47.07-47.2-68.17-78.31c-8.78-12.94-19.07-30.51-20.74-51.67c-1.8-22.75,1.08-42.06,8.79-59.03
			c6.39-14.06,3.87-25.88-7.94-37.19c-6.52-6.25-12.14-13.96-17.17-23.56c-4.19-8-5.63-15.38-4.39-22.56
			c1.74-10.11,3.38-20,4.88-29.39c3.03-18.99,6.55-38.21,9.95-56.81c2.23-12.16,4.53-24.73,6.67-37.12
			c2.41-13.95,3.16-28.17,3.88-41.92c0.22-4.14,0.44-8.27,0.7-12.4c0.84-13.25-0.65-27.67-4.55-44.09
			c-0.65-2.73-0.97-5.39-0.97-8.12c0-2.73-0.02-5.45-0.04-8.18c-0.13-21.53-0.27-43.79,5.68-65.4c2.62-9.52,7.31-17.38,14.33-24.03
			c2.53-2.39,5.38-4.47,8.14-6.49c1.75-1.28,3.56-2.6,5.26-3.98c22.38-18.21,35.91-38.56,41.38-62.23
			c1.99-8.59,1.59-17.42,1.21-25.96l-0.11-2.61c-0.75-18.07,3.62-35.94,12.99-53.12c11.91-21.84,25.54-43.81,40.5-65.29
			c13.13-18.85,26.51-35.75,40.91-51.66c16.9-18.68,34.63-34.59,54.19-48.61c4.84-3.47,10.11-6.3,15.2-9.04
			c4.95-2.66,10.06-5.4,14.7-8.71L921.5-1h198.42l-1.29,1.62c-5.11,6.43-12.18,10.53-21.61,12.54c-6.46,1.38-13.05,2.67-19.42,3.92
			c-14.11,2.76-28.71,5.62-42.82,9.63c-36.83,10.48-68.22,22.91-95.95,38.02c-31.05,16.91-59.07,41.63-88.2,77.79
			c-19.49,24.19-35.78,51.24-51.53,77.39l-1.37,2.28c-11.16,18.52-15.96,36.65-14.7,55.45c1.21,17.92-2.38,34.62-10.65,49.64
			c-6.67,12.1-15.75,22.94-26.99,32.21c-1.3,1.07-2.6,2.13-3.91,3.19c-4.04,3.29-8.22,6.69-12.08,10.28
			c-6.47,6.02-10.32,12.46-11.79,19.7c-2.03,10.03-4.41,23.34-4.78,37.29c-0.69,25.88,2.57,52.12,5.44,75.27
			c0.31,2.53,0.04,5.12-0.23,7.63l-0.06,0.52c-0.11,1.05-0.37,2.07-0.61,3.05c-0.32,1.28-0.62,2.49-0.6,3.67
			c0.29,19.15-2.87,38.17-5.93,56.56c-0.8,4.82-1.63,9.81-2.38,14.72c-1.14,7.46-2.87,14.93-4.55,22.16
			c-1.49,6.46-3.04,13.13-4.16,19.77c-1.91,11.33-3.52,22.91-5.07,34.11l-0.72,5.22c-1.56,11.2,4.66,21.09,10.94,29.28
			c3.25,4.23,6.81,8.44,10.89,12.88c8.9,9.68,10.82,18.68,6.22,29.19c-6.31,14.42-9.32,30.82-9.22,50.13
			c0.09,16.67,4.52,31.58,13.55,45.58c16.49,25.59,32.07,45.04,49.06,61.22c14.75,14.06,27.92,29.85,40.67,45.12
			c2.81,3.37,5.62,6.74,8.46,10.1c27.33,32.39,57.82,59.95,90.62,81.89c0.57,0.38,1.16,0.74,1.75,1.1c1.12,0.68,2.29,1.39,3.33,2.26
			c3.52,2.96,5.26,6.26,5.03,9.54c-0.23,3.18-2.31,6.08-6.03,8.39c-23.95,14.86-50.98,26.76-80.34,35.39
			c-3.81,1.12-7.73,2.06-11.52,2.97c-1.97,0.47-3.95,0.95-5.91,1.45c-8.1,2.06-14.41,6.36-18.78,12.76
			c-5.02,7.37-11.54,13.39-19.93,18.43c-11.71,7.03-21.8,17.07-32.7,32.55c-12.6,17.9-23.36,37.3-33.1,55.61
			c-7.39,13.87-15.59,27.55-23.53,40.78c-6.37,10.61-12.96,21.59-19.07,32.59c-12.99,23.35-25.33,49.24-37.74,79.12
			c-13.04,31.4-23.99,64.17-34.57,95.86c-3.08,9.21-6.26,18.73-9.44,28.08c-3.84,11.25-7.83,22.67-11.68,33.7
			c-5.09,14.56-10.35,29.62-15.32,44.48c-4.85,14.52-10.19,29.12-15.35,43.24c-3.25,8.89-6.61,18.09-9.81,27.16
			c-1.02,2.89-2.01,5.86-2.96,8.73c-4.03,12.11-8.2,24.64-16.05,35.33c-4.63,6.31-9.68,12.45-14.57,18.39
			c-1.59,1.93-3.18,3.86-4.75,5.8c-8.67,10.67-13.82,20.58-16.2,31.18c-2.41,10.75-8.43,18.84-18.39,24.73
			c-5.1,3.01-10.23,6.43-15.7,10.45c-9.03,6.64-13.16,14.74-12.99,25.49c0.25,15.42,3.25,27.74,9.43,38.78l1.09,1.95
			c8.38,14.97,17.05,30.44,29.94,42.69c4.48,4.25,6.41,7.86,6.08,11.35c-0.34,3.51-2.98,6.74-8.3,10.14
			c-4.09,2.61-7.49,5.49-10.41,8.81c-5.76,6.55-5.85,13.75-0.27,20.26c2.22,2.59,4.62,4.79,7.14,6.54c1.62,1.13,3.24,2.26,4.86,3.4
			c6.17,4.34,12.54,8.83,19.2,12.49c21.46,11.78,37.55,30.75,49.18,58c4.37,10.24,7.93,20.98,11.38,31.38l0.19,0.56
			c6.04,18.21,15.98,33.29,29.56,44.84c5.48,4.66,11.11,9.34,16.55,13.87c5.11,4.25,10.4,8.65,15.56,13.03
			c1.43,1.21,2.64,2.66,3.81,4.05c0.54,0.65,1.08,1.29,1.64,1.91l0.58,0.65l-0.56,0.67c-6.34,7.54-12.28,15.86-17.66,24.72
			C603.98,2159.93,601.12,2163.33,596.96,2163.33C596.96,2163.33,596.96,2163.33,596.96,2163.33z"/>
		<path class="st3" d="M891.92,17.74c-19.81,14.21-37.64,30.35-54.03,48.47c-14.79,16.34-28.28,33.55-40.83,51.56
			c-14.64,21.01-28.21,42.77-40.45,65.2c-8.75,16.05-13.65,33.7-12.87,52.6c0.4,9.57,1.09,19.24-1.13,28.84
			c-6.05,26.2-21.32,46.18-41.72,62.78c-4.38,3.56-9.26,6.56-13.34,10.42c-6.84,6.47-11.47,14.16-14.06,23.57
			c-6.65,24.16-5.65,48.74-5.61,73.31c0,2.67,0.32,5.25,0.94,7.89c3.47,14.59,5.5,29.69,4.58,44.38
			c-1.14,18.1-1.45,36.28-4.59,54.43c-5.42,31.33-11.62,62.53-16.62,93.91c-1.56,9.81-3.19,19.61-4.88,29.4
			c-1.34,7.79,0.72,15.1,4.29,21.92c4.5,8.58,9.98,16.6,16.97,23.3c11.52,11.04,15.11,23.03,8.16,38.33
			c-8.41,18.51-10.29,38.48-8.7,58.54c1.5,19.04,9.98,35.57,20.57,51.19c19.54,28.81,43.18,53.98,68.03,78.15
			c11.47,11.15,20.25,24.63,30.58,36.78c8.85,10.41,17.77,20.77,27.69,30.04c12.62,11.79,5.18,19.62-6.3,22.41
			c-6.77,1.64-13.47,3.57-20.21,5.32c-8.1,2.1-14.66,6.44-18.8,13.76c-4.95,8.75-12.43,14.43-21,19.3
			c-14.78,8.41-25.38,21.18-35.22,34.76c-16.47,22.71-29.03,47.71-42.87,71.97c-9.89,17.33-20.23,34.4-30.21,51.67
			c-14.47,25.04-27.67,50.68-39.61,77.07c-12.49,27.62-23.26,55.87-33.48,84.32c-9.19,25.59-16.92,51.69-25.61,77.45
			c-7.85,23.28-16.04,46.44-24.2,69.61c-9.05,25.67-18.17,51.32-27.4,76.93c-6.2,17.19-12.35,34.41-19.12,51.38
			c-3.47,8.69-10.04,15.57-15.98,22.75c-9.97,12.04-19.99,24.1-26.4,38.57c-1.74,3.94-3.77,7.99-4.33,12.16
			c-1.42,10.56-7.91,17.31-15.89,23.1c-4.57,3.32-9.48,6.17-14.19,9.31c-22.37,14.95-21.37,22.72-19.55,46.69
			c1.29,16.95,10.4,30.62,18.66,44.63c7.79,13.21,16.21,25.87,27.97,36.14c6.68,5.84,5.86,11.17-1.46,16.23
			c-4.08,2.82-8.51,4.99-12.23,8.51c-13,12.27-11.11,21.54,1.85,32.27c9.43,7.8,19.77,14.66,30.61,20.55
			c22.56,12.25,37.3,31.36,48.12,54.06c6.17,12.94,10.35,26.54,14.88,40.08c7.79,23.26,21.48,42.57,40.87,57.88
			c13.03,10.29,25.64,21.12,38.37,31.8c0.91,0.76,1.16,2.3,1.73,3.48c0.64,0.17,1.36,0.2,1.89,0.53c11.54,7.27,14.34,6.84,21.11-4.3
			c5.31-8.74,11.19-17.03,17.75-24.84c-1.78-1.97-3.35-4.17-5.36-5.88c-10.65-9.03-21.47-17.86-32.1-26.9
			c-14.33-12.18-23.99-27.59-29.86-45.28c-3.56-10.74-7.11-21.48-11.54-31.86c-10.3-24.13-25.05-44.52-48.74-57.52
			c-8.43-4.63-16.22-10.45-24.14-15.95c-2.7-1.87-5.19-4.21-7.33-6.71c-5.92-6.91-5.77-14.68,0.28-21.57
			c3.08-3.51,6.63-6.45,10.62-9c9.66-6.17,10.54-11.89,2.08-19.92c-13.56-12.87-22.26-28.9-31.22-44.87
			c-6.85-12.22-9.34-25.29-9.56-39.25c-0.19-11.57,4.58-19.84,13.39-26.32c5.09-3.74,10.35-7.29,15.78-10.5
			c9.41-5.56,15.52-13.39,17.92-24.08c2.68-11.97,8.75-22.18,16.4-31.59c6.5-8,13.2-15.86,19.29-24.15
			c9.62-13.1,13.59-28.84,18.88-43.8c8.29-23.49,17.25-46.74,25.16-70.39c8.74-26.14,18.11-52.09,27.01-78.19
			c14.15-41.52,27.2-83.44,44.04-124c11.23-27.05,23.52-53.57,37.79-79.23c13.75-24.73,29.3-48.38,42.6-73.35
			c10.17-19.1,20.68-37.98,33.17-55.71c9.09-12.91,19.34-24.63,33.01-32.83c7.86-4.71,14.46-10.56,19.62-18.13
			c4.7-6.9,11.32-11.12,19.36-13.17c5.8-1.48,11.66-2.73,17.39-4.41c28.22-8.29,55.08-19.76,80.1-35.28
			c7.2-4.46,7.36-10.87,0.89-16.31c-1.52-1.27-3.33-2.18-4.99-3.29c-34.28-22.93-64.29-50.61-90.83-82.08
			c-15.87-18.81-31.15-38.08-49.05-55.14c-19.11-18.21-34.93-39.25-49.21-61.41c-9.01-13.98-13.61-29.14-13.7-46.12
			c-0.09-17.6,2.29-34.51,9.3-50.54c4.91-11.23,1.53-19.88-6.04-28.11c-3.82-4.16-7.51-8.47-10.94-12.95
			c-6.79-8.85-12.7-18.82-11.14-30.03c1.82-13.11,3.59-26.28,5.79-39.36c2.38-14.1,6.54-27.83,8.7-41.91
			c3.62-23.59,8.67-47.04,8.3-71.11c-0.03-2.27,0.97-4.54,1.22-6.85c0.28-2.63,0.61-5.33,0.29-7.92
			c-3.1-25.05-6.12-50.05-5.44-75.42c0.34-12.75,2.3-25.1,4.8-37.46c1.65-8.15,6.16-14.72,12.09-20.24
			c5.11-4.75,10.64-9.06,16.03-13.51c10.9-8.99,19.91-19.5,26.75-31.92c8.46-15.34,11.7-31.73,10.53-49.09
			c-1.37-20.36,4.56-38.98,14.84-56.03c16.48-27.35,32.89-54.84,52.98-79.78c25-31.03,52.99-58.69,88.5-78.04
			c30.56-16.65,62.78-28.61,96.15-38.1c20.52-5.84,41.52-9.13,62.31-13.56c8.41-1.8,15.62-5.37,21.03-12.19
			c-65.34,0-130.68,0-196.03,0C912.35,6.74,901.42,10.93,891.92,17.74z"/>
	</g>
	<path id="Green" class="st4" d="M2202.54,2077.48c-0.12-0.56-0.32-1.09-0.51-1.61c-0.27-0.72-0.52-1.39-0.49-1.97
		c0.54-11.29-0.95-22.54-2.39-33.42c-0.62-4.68-1.26-9.52-1.73-14.29c-0.37-3.72-0.67-7.52-0.96-11.19
		c-0.33-4.13-0.67-8.39-1.1-12.59c-0.69-6.71-1.54-13.51-2.36-20.09c-1.63-13.13-3.32-26.7-3.85-40.15c-0.09-2.41-0.55-4.8-1-7.11
		c-0.36-1.88-0.73-3.82-0.9-5.72c-0.73-8.55-1.84-17.18-2.92-25.53c-1.29-10.06-2.63-20.47-3.32-30.78
		c-0.48-7.28-1.58-14.61-2.63-21.71c-1.01-6.8-2.06-13.82-2.56-20.75c-1-13.89-3.47-27.76-5.86-41.17
		c-2.01-11.3-4.09-22.98-5.28-34.6c-1.54-15.09-4.63-30.26-7.61-44.93c-0.88-4.34-1.77-8.68-2.61-13.03
		c-5.94-30.55-12.12-61.59-18.09-91.6c-2.15-10.82-4.3-21.64-6.45-32.46c-1.66-8.36-3.4-16.84-5.08-25.05
		c-3.63-17.68-7.37-35.97-10.52-54.04c-3.9-22.38-8.48-45.01-12.91-66.89c-2.89-14.28-5.88-29.04-8.65-43.59
		c-6.34-33.32-15.09-66.66-23.54-98.9l-1.5-5.74c-0.62-2.36-1.25-4.73-1.88-7.09c-5.08-19.05-10.34-38.75-9.27-59.17
		c0.4-7.52-2.08-14.78-4.47-21.81l-0.62-1.81c-15.71-46.6-36.44-86.12-63.36-120.8c-14.41-18.56-33.3-33.96-59.46-48.49l-2.34-1.3
		c-16.19-9-32.93-18.31-51.77-22.09l-0.27-0.05c-7.77-1.56-15.81-3.17-23.96-3.17c-0.89,0-1.78,0.02-2.67,0.06
		c-1.12,0.05-2.28,0.08-3.45,0.08c-7.19,0-14.44-0.95-21.46-1.87c-3.8-0.5-7.72-1.01-11.61-1.37c-23.44-2.18-46.28-8.49-68.37-14.6
		l-1.48-0.41c-18.54-5.12-40.56-10.79-63.29-13.92c-3.7-0.51-6.48-2.7-8.25-6.51c-1.34-2.89,0.4-4.87,3.01-7.35l0.15-0.14
		c3.43-3.26,7.03-6.46,10.52-9.56c2.87-2.54,5.83-5.17,8.69-7.83c12.27-11.41,19.44-23.78,21.92-37.8
		c1.26-7.1,4.82-13.9,11.21-21.38c10.13-11.86,20.39-25.04,26.83-41.05c5.59-13.92,11.21-30.59,10.45-48.75
		c-0.54-12.84,2.18-23.48,8.57-33.48c6.78-10.63,8.85-23.1,10.85-35.15c0.23-1.39,0.46-2.78,0.7-4.17c0.3-1.77,0.62-3.53,0.93-5.3
		c1.7-9.55,3.45-19.42,3.32-29.44c-0.08-5.97,2.35-11.5,4.98-16.57c6.91-13.32,10.02-27,9.52-41.83
		c-0.31-9.13-1.63-19.55-9.03-27.55c-13.98-15.1-13.08-33.76-10.36-50.02c3.71-22.19,3.54-40.84-0.53-58.71
		c-0.34-1.51-0.33-3.16-0.29-4.72c0.63-21.62-4.14-42.75-8.74-63.18c-0.51-2.27-1.02-4.54-1.53-6.82
		c-1.5-6.76-3.59-12.34-6.39-17.06c-11.29-19.06-17.8-38.54-19.91-59.54c-1.32-13.1-3.63-26.6-7.06-41.26
		c-4.5-19.22-15.6-32.07-32.98-38.2c-20.39-7.19-36.38-11.73-51.83-14.72c-6.81-1.32-13.59-1.99-20.16-1.99
		c-14.73,0-29.07,3.37-42.63,10c-10.64,5.21-22.63,8.88-37.74,11.57c-2.29,0.41-4.54,0.61-6.7,0.61c-16.1,0-26.64-11.34-26.84-28.9
		c-0.13-11.62-0.13-22.07,0.01-31.97c0.15-10.88-0.1-23.77-3.17-36.89c-1.18-5.07-1.01-10.62-0.84-15.99l0.05-1.67
		c0.25-8.85-0.89-17.66-1.99-26.17c-0.29-2.22-0.57-4.44-0.84-6.67l-0.5-4.25c-1.17-9.93-2.38-20.2-3.99-30.29
		c-3-18.78-9.22-32.91-19.57-44.48c-5.16-5.76-10.01-11.99-14.7-18.02c-2.11-2.7-4.28-5.5-6.46-8.22l-0.3-0.38h-349.01l-0.3,0.38
		c-4.81,6.05-11.5,9.92-20.46,11.83c-6.45,1.38-13.03,2.66-19.39,3.91c-14.15,2.77-28.79,5.64-42.98,9.67
		c-36.98,10.52-68.5,23.01-96.36,38.19c-31.29,17.04-59.5,41.92-88.8,78.29c-19.58,24.3-35.9,51.4-51.68,77.6l-1.37,2.28
		c-11.22,18.62-16.26,37.66-14.98,56.61c1.18,17.53-2.32,33.86-10.41,48.54c-6.64,12.05-15.31,22.39-26.51,31.63
		c-1.3,1.07-2.6,2.13-3.9,3.19c-4.06,3.31-8.27,6.73-12.17,10.36c-6.78,6.31-10.83,13.11-12.39,20.77
		c-2.05,10.11-4.45,23.53-4.82,37.64c-0.69,26.03,2.57,52.35,5.45,75.57c0.29,2.31,0.02,4.78-0.24,7.17l-0.06,0.52
		c-0.1,0.91-0.32,1.82-0.56,2.78c-0.34,1.35-0.68,2.74-0.66,4.18c0.29,18.97-2.86,37.9-5.91,56.21c-0.8,4.83-1.63,9.82-2.39,14.74
		c-1.13,7.39-2.85,14.82-4.52,22.01c-1.5,6.49-3.05,13.19-4.18,19.89c-1.92,11.36-3.52,22.96-5.07,34.17l-0.72,5.22
		c-1.66,11.93,4.8,22.25,11.34,30.77c3.28,4.27,6.88,8.53,11,13.01c8.29,9.01,10.1,17.35,5.86,27.03
		c-6.42,14.68-9.49,31.35-9.38,50.94c0.09,17.06,4.63,32.32,13.86,46.65c16.57,25.72,32.26,45.29,49.36,61.59
		c14.67,13.98,27.81,29.73,40.52,44.96c2.81,3.37,5.62,6.74,8.46,10.1c27.45,32.54,58.08,60.21,91.04,82.26
		c0.6,0.4,1.21,0.77,1.83,1.14c1.11,0.67,2.16,1.31,3.08,2.08c3.01,2.53,4.51,5.25,4.32,7.87c-0.18,2.52-1.94,4.88-5.09,6.83
		c-23.79,14.76-50.66,26.6-79.85,35.17c-3.76,1.1-7.65,2.04-11.42,2.95c-1.98,0.48-3.97,0.95-5.94,1.46
		c-8.58,2.19-15.29,6.75-19.94,13.58c-4.85,7.12-11.17,12.96-19.31,17.84c-11.97,7.18-22.24,17.39-33.31,33.12
		c-12.66,17.98-23.46,37.45-33.24,55.82c-7.36,13.82-15.56,27.48-23.48,40.69c-6.38,10.63-12.97,21.62-19.11,32.65
		c-13.02,23.42-25.4,49.37-37.84,79.33c-13.07,31.47-24.03,64.27-34.62,96c-3.08,9.21-6.26,18.72-9.44,28.06
		c-3.83,11.25-7.82,22.66-11.68,33.69c-5.09,14.57-10.36,29.63-15.33,44.51c-4.84,14.5-10.18,29.08-15.33,43.19
		c-3.25,8.9-6.61,18.09-9.82,27.18c-1.02,2.9-2.02,5.88-2.98,8.76c-3.98,11.97-8.1,24.34-15.76,34.78
		c-4.6,6.26-9.63,12.39-14.5,18.31c-1.59,1.93-3.18,3.87-4.76,5.81c-8.88,10.92-14.15,21.09-16.6,32
		c-2.28,10.19-7.99,17.85-17.45,23.44c-5.15,3.04-10.34,6.5-15.87,10.56c-9.47,6.96-13.98,15.83-13.8,27.14
		c0.25,15.76,3.33,28.38,9.69,39.72l1.09,1.94c8.45,15.1,17.19,30.71,30.31,43.16c3.94,3.74,5.73,6.92,5.46,9.71
		c-0.27,2.81-2.69,5.64-7.39,8.64c-4.25,2.71-7.79,5.71-10.83,9.18c-6.4,7.29-6.5,15.63-0.29,22.88c2.33,2.72,4.86,5.04,7.52,6.88
		c1.62,1.12,3.23,2.26,4.84,3.39c6.21,4.38,12.63,8.9,19.39,12.61c21.05,11.56,36.85,30.21,48.3,57.03
		c4.34,10.17,7.89,20.88,11.33,31.23l0.18,0.55c6.16,18.56,16.3,33.95,30.16,45.73c5.49,4.67,11.12,9.35,16.56,13.88
		c5.11,4.25,10.39,8.65,15.55,13.02c1.3,1.1,2.4,2.42,3.57,3.81c0.56,0.66,1.11,1.33,1.69,1.97l0.2,0.22l0.29,0.08
		c2.45,0.63,4.18,2.31,6.02,4.09c1.2,1.16,2.43,2.36,3.91,3.29c3.41,2.15,5.84,3.4,8.12,3.4c2.96,0,5.21-2.17,7.88-5.67
		c4.59-6.02,9.01-12.31,13.29-18.4c1.87-2.66,3.74-5.32,5.63-7.97l0.3-0.42l-0.17-0.49c-1.05-2.96-3.31-4.81-5.3-6.44
		c-5.25-4.3-10.51-8.78-15.6-13.1c-4.87-4.14-9.91-8.42-14.93-12.55c-16.22-13.34-27.24-31.27-34.7-56.43
		c-6.84-23.1-16.81-41.4-30.48-55.97c-7.16-7.63-16.26-13.13-25.05-18.46c-2.24-1.36-4.56-2.76-6.8-4.17
		c-7.72-4.87-14.56-9.42-20.04-15.85c-4.59-5.4-4.84-10.32-0.8-15.94c3.1-4.32,7.32-7.6,10.65-9.96c5.59-3.98,8.09-7.14,8.34-10.56
		c0.25-3.4-1.82-7-6.71-11.67c-11.18-10.7-18.89-24.1-26.35-37.06c-0.83-1.44-1.65-2.88-2.49-4.31c-5.92-10.22-7.64-21.36-8.4-34.95
		c-0.49-8.83,2.94-15.75,11.48-23.16c4.55-3.95,9.89-7.2,15.05-10.34l0.42-0.26c9.4-5.73,15.02-13.29,17.19-23.13
		c3.28-14.89,12.29-26.34,22.86-38.71c10.6-12.41,18.42-26.32,23.91-42.52c2.87-8.48,6.09-17.06,9.2-25.35
		c1.83-4.87,3.71-9.9,5.51-14.86c9.22-25.43,18.2-51.43,26.89-76.57c2.46-7.11,4.91-14.22,7.38-21.33
		c4.37-12.6,8.61-25.48,12.71-37.94c7.84-23.84,15.95-48.49,25.34-72.23c12.09-30.57,23.29-58.02,37.88-84.48
		c6.8-12.34,14.1-24.68,21.15-36.61c4.59-7.77,9.34-15.8,13.91-23.76c3.91-6.8,7.76-13.78,11.49-20.53
		c4.65-8.42,9.46-17.13,14.41-25.56c7.97-13.59,16.02-25.42,24.59-36.15c5.53-6.92,12.94-13.15,23.34-19.62
		c6.83-4.25,12.5-9.63,16.85-15.98c4.19-6.12,9.92-9.94,18.04-12c31.76-8.08,62.83-20.78,92.33-37.74l5.98-3.44
		c16.2-9.3,32.95-18.92,49.25-28.68c3.9-2.33,8.01-4.88,11.58-8.09c2.36-2.12,3.54-4.6,3.41-7.17c-0.13-2.61-1.67-5.11-4.32-7.04
		c-1.95-1.42-4.25-2.31-6.48-3.18l-0.9-0.35c-34.98-13.74-63.63-29.61-87.59-48.52c-26.27-20.74-47.9-41.82-66.1-64.45
		c-16.04-19.94-29.19-34.65-42.64-47.68c-19.85-19.24-36.76-40.73-50.26-63.89c-6.34-10.89-9.67-22.5-10.17-35.51
		c-0.62-16.16,2.12-32.32,8.39-49.38c4.08-11.11,1.89-20.67-6.69-29.23c-5.38-5.37-10.27-11.78-14.93-19.58
		c-4.43-7.4-5.57-15.74-3.59-26.26c3.49-18.54,6.81-37.44,10.01-55.71l1.05-5.97c1.31-7.47,2.58-14.95,3.85-22.42
		c1.7-10,3.46-20.34,5.29-30.49c1.12-6.19,1.05-12.46,0.98-18.53c-0.04-3.12-0.07-6.34,0.06-9.5c0.44-10.87,0.5-22.51-2.05-34.02
		c-3.14-14.2-2.63-28.85-2.14-43.02c0.12-3.44,0.24-6.99,0.31-10.49c0.21-10.45,3.13-20.96,5.66-28.95
		c1.92-6.07,5.75-11.31,12.44-16.98c1.62-1.37,3.25-2.73,4.87-4.09c10.22-8.54,20.79-17.38,28.38-29.11
		c10.38-16.04,15.01-31.61,14.16-47.61c-1.13-21.37,2.86-39.39,12.19-55.1c16.9-28.43,34.37-57.84,56.76-84.12
		c16.68-19.58,30.55-33.44,44.99-44.95c22.87-18.23,49.63-32.72,81.82-44.3c20.72-7.45,42.21-13.84,63.86-18.99
		c9.16-2.18,19.02-3.83,29.31-4.9c9.29-0.97,16.86-4.71,22.52-11.11c15.29-17.33,36-24.18,56.11-29c8.7-2.09,17.7-2.37,25.36-2.37
		l1.15,0c42.1,0.15,87.18,0.28,131.58,0.28l4.43,0c3.85,0,7.67,0.61,11.36,1.2c1.43,0.23,2.85,0.46,4.29,0.65
		c6.31,0.86,12.75,1.58,18.98,2.28c9.98,1.11,20.29,2.26,30.31,4.04c16.32,2.9,33.17,7.43,45.8,20.76c1.9,2.01,3.58,4.33,5.2,6.58
		c0.67,0.93,1.34,1.86,2.03,2.78c1.08,1.43,2.12,2.97,3.12,4.46c2.16,3.2,4.4,6.5,7.25,9.13c11.42,10.52,17.86,24.52,19.69,42.81
		c0.75,7.46,1.79,15.02,2.8,22.32c2.2,15.92,4.47,32.39,3.81,48.81c-0.15,3.73,0.58,7.5,1.29,11.14c0.18,0.95,0.37,1.9,0.54,2.85
		c2.44,13.74,2.25,27.86,2.07,41.51c-0.07,4.95-0.13,10.08-0.08,15.11c0.13,11.23,3.65,19.28,11.08,25.34
		c4.63,3.77,9.1,5.53,14.07,5.53c1.34,0,2.75-0.13,4.18-0.4l0.87-0.16c14.44-2.65,29.36-5.39,43.2-12.36
		c10.06-5.08,21.05-7.54,33.58-7.54c8.96,0,18.55,1.23,30.2,3.86c12.33,2.79,24.85,6.42,37.22,10.8
		c15.09,5.35,24.88,15.51,29.94,31.07c3.54,10.9,5.83,22.86,7.43,38.79c2.46,24.56,8.01,42.4,18.01,57.85
		c4.87,7.53,6.95,16.44,8.46,24.94c0.96,5.36,2.29,10.75,3.58,15.96c2.01,8.11,4.08,16.5,4.73,24.82
		c0.41,5.28,0.99,10.65,1.56,15.84c1.56,14.32,3.17,29.12,1.3,43.52c-0.85,6.56-1.02,13.19-1.18,19.61
		c-0.18,6.93-0.36,14.09-1.4,21.09c-1.01,6.75,1.67,14.41,7.35,21.02c12.99,15.11,15.15,32.47,7,56.29
		c-1.24,3.63-2.91,7.2-4.53,10.66c-0.61,1.29-1.21,2.58-1.79,3.88c-3.22,7.16-4.79,14.24-4.78,21.65
		c0.04,25.04-5.41,46.73-16.65,66.3c-3.95,6.88-5.76,14.14-5.38,21.58c1.58,30.43-9.29,58.66-33.22,86.29
		c-5.98,6.91-9.6,13.59-11.05,20.43c-4.59,21.59-19.17,35.63-32.83,46.51c-6.43,5.13-11.21,11.4-14.61,19.19
		c-7.44,17.06-16.61,34.4-33.15,45.75c-3.67,2.52-5.57,5.9-5.36,9.53c0.23,3.87,2.86,7.49,7.03,9.68
		c8.09,4.25,15.12,7.08,23.12,7.08c1.96,0,3.96-0.18,5.93-0.53c0.93-0.17,1.91-0.25,2.99-0.25c2.85,0,5.91,0.59,8.87,1.17
		c1.49,0.29,3.03,0.59,4.54,0.81c21.15,3.11,43.93,8.3,71.68,16.31c14.7,4.25,29.93,6.99,44.66,9.64c3.95,0.71,7.9,1.42,11.85,2.16
		c9.39,1.76,18.94,2.27,28.16,2.77c8.65,0.46,17.6,0.94,26.31,2.46c20.66,3.59,38.87,12.7,52.43,20.23
		c15.28,8.49,29.38,18.04,41.92,28.4c8.16,6.74,14.58,15.06,21.53,24.46c18.48,24.96,33.79,52.37,45.5,81.47
		c4.11,10.23,7.8,20.29,10.96,29.9c1.43,4.36,3.05,9.29,2.8,14.26c-1,19.99,4.09,39.2,9.01,57.78c0.62,2.34,1.24,4.68,1.85,7.03
		c0.95,3.66,1.91,7.31,2.86,10.97c6.39,24.46,13,49.76,18.14,74.97c1.12,5.48,2.24,10.95,3.37,16.43c4.6,22.4,9.36,45.56,13.54,68.4
		c2.33,12.79,5.01,25.71,7.6,38.22c3.29,15.91,6.7,32.35,9.43,48.65c1.21,7.26,2.77,14.57,4.28,21.64
		c1.49,6.98,3.02,14.2,4.23,21.34c2.75,16.34,6.22,32.8,9.57,48.72c3.63,17.23,7.38,35.05,10.23,52.74
		c1.84,11.41,3.96,22.97,6.02,34.15c2.48,13.5,5.05,27.47,7.12,41.26c2.62,17.4,4.91,36.52,7.2,60.18
		c0.33,3.36,0.61,6.73,0.89,10.11c1.06,12.64,2.16,25.71,5.57,38.3c1.21,4.5,1.41,9.25,1.6,13.85c0.17,4.19,0.35,8.52,1.28,12.77
		c2.37,10.84,3.22,22.15,4.04,33.08c0.3,4,0.61,8.14,0.99,12.18c0.72,7.63,1.65,15.37,2.54,22.86c1.04,8.7,2.12,17.69,2.88,26.55
		c0.45,5.26,0.6,10.67,0.74,15.91c0.33,11.81,0.66,24.01,4.43,35.67c0.72,2.23,0.19,4.34-0.37,6.57c-0.56,2.23-1.13,4.53-0.44,7.01
		l0.08,0.28l0.21,0.19c2.97,2.73,6.69,4.16,9.94,5.19c14.6,4.65,25.33,9.45,34.78,15.56c2.75,1.78,6.05,2.81,9.81,3.09l0.63,0.05
		l0.31-0.55C2206.15,2093.94,2204.32,2085.57,2202.54,2077.48z"/>
	<path id="Rose" class="st5" d="M668.45,2107.43c-0.93-2.62-2.86-4.26-4.99-6c-10.28-8.43-20.27-17.21-30.54-25.65
		c-18.22-14.98-28.46-34.78-35.02-56.92c-6.12-20.67-15.46-39.8-30.25-55.57c-8.88-9.46-20.68-15.55-31.66-22.47
		c-7.33-4.62-14.58-9.36-20.26-16.05c-4.85-5.7-5.21-11.1-0.86-17.18c2.93-4.08,6.78-7.27,10.89-10.2c9.99-7.11,10.6-12,1.52-20.69
		c-12.51-11.97-20.5-26.92-29.01-41.59c-6.37-10.98-7.84-22.96-8.53-35.4c-0.59-10.63,4.67-17.77,11.82-23.97
		c4.73-4.11,10.22-7.41,15.6-10.69c8.67-5.28,14.51-12.39,16.73-22.49c3.41-15.51,13.12-27.49,23.07-39.15
		c10.72-12.55,18.36-26.37,23.72-42.19c4.56-13.46,9.85-26.82,14.72-40.24c11.78-32.5,22.94-65.22,34.26-97.88
		c12.74-36.72,23.75-74.04,38.07-110.21c11.38-28.76,22.98-57.47,37.93-84.59c11.24-20.38,23.49-40.2,35.08-60.39
		c8.78-15.29,16.98-30.9,25.9-46.1c7.4-12.62,15.53-24.83,24.67-36.27c6.5-8.13,14.8-14.38,23.59-19.85
		c6.64-4.13,12.21-9.35,16.55-15.7c4.62-6.76,10.92-10.45,18.62-12.41c32.44-8.26,63.01-20.93,92.08-37.64
		c18.46-10.61,36.95-21.18,55.22-32.11c3.98-2.38,8-4.89,11.43-7.98c4.46-4,4.01-9.14-0.83-12.66c-2.1-1.53-4.7-2.44-7.16-3.41
		c-31.43-12.35-61.29-27.7-87.84-48.66c-24.3-19.18-46.76-40.37-66.26-64.61c-13.34-16.58-27.2-32.71-42.55-47.58
		c-19.65-19.04-36.62-40.42-50.42-64.11c-6.43-11.03-9.8-22.9-10.3-35.97c-0.67-17.33,2.58-33.77,8.45-49.77
		c4.08-11.13,1.59-20.14-6.46-28.18c-5.92-5.91-10.79-12.59-15.09-19.77c-5.1-8.53-5.5-17.46-3.71-26.96
		c3.87-20.52,7.45-41.09,11.06-61.66c3.1-17.63,5.96-35.3,9.14-52.92c1.67-9.27,0.64-18.6,1.02-27.89
		c0.46-11.28,0.44-22.61-2.02-33.76c-3.93-17.79-2.21-35.84-1.86-53.74c0.19-9.83,2.69-19.7,5.7-29.23
		c2.29-7.23,7.13-12.68,12.74-17.44c11.91-10.11,24.37-19.55,33.06-32.98c9.3-14.38,14.9-29.97,14-47.01
		c-1.05-19.89,2.22-38.64,12.33-55.66c17.33-29.15,34.74-58.29,56.86-84.26c13.85-16.25,28.41-31.76,45.13-45.08
		c24.7-19.69,52.46-33.8,82.11-44.46c20.97-7.54,42.31-13.87,63.97-19.02c9.66-2.3,19.56-3.89,29.44-4.92
		c8.83-0.92,16.26-4.43,21.87-10.78c15.16-17.18,35.34-24.2,56.63-29.31c8.8-2.11,17.74-2.42,26.75-2.39
		c45.33,0.16,90.67,0.29,136,0.28c5.39,0,10.53,1.14,15.79,1.86c16.42,2.25,33.02,3.43,49.32,6.33
		c17.06,3.03,33.79,7.79,46.35,21.06c2.72,2.88,4.91,6.27,7.3,9.45c3.4,4.51,6.17,9.69,10.25,13.45
		c12.8,11.79,18.36,26.98,20.01,43.44c2.38,23.73,7.58,47.21,6.62,71.28c-0.18,4.56,1,9.22,1.81,13.78
		c3.35,18.84,1.79,37.85,2.01,56.78c0.11,9.82,2.8,18.12,10.71,24.57c5.24,4.27,10.6,6.18,17.43,4.93
		c15.01-2.76,29.82-5.38,43.8-12.43c20.65-10.41,42.8-8.66,64.45-3.77c12.58,2.84,25.08,6.49,37.33,10.84
		c15.63,5.54,25.46,16.02,30.56,31.7c4.14,12.73,6.16,25.84,7.47,39c2.05,20.43,6.48,39.83,17.85,57.41
		c4.86,7.52,7.01,16.34,8.61,25.31c2.44,13.7,7.25,27.12,8.32,40.87c1.54,19.81,5.41,39.8,2.86,59.56
		c-1.76,13.59-0.57,27.18-2.59,40.72c-1.05,7.05,2.18,14.47,7.12,20.22c15.08,17.55,14.1,37.06,7.19,57.27
		c-1.72,5.02-4.17,9.78-6.36,14.63c-3.04,6.76-4.7,13.77-4.69,21.24c0.04,23.66-4.85,46.04-16.78,66.8
		c-3.6,6.27-5.64,13.39-5.24,21.03c1.76,33.92-11.86,62.05-33.47,87c-5.13,5.92-9.23,12.48-10.83,19.98
		c-4.37,20.55-17.61,34.67-33.19,47.09c-6.47,5.16-11.07,11.37-14.31,18.8c-7.79,17.84-16.9,34.79-33.5,46.17
		c-7.74,5.31-5.74,13.67,1.57,17.5c8.91,4.68,17.71,8.37,28.4,6.45c5.3-0.95,11.15,0.9,16.72,1.72
		c24.36,3.59,48.19,9.52,71.81,16.34c18.52,5.35,37.51,8.24,56.42,11.78c18.15,3.4,36.42,2.08,54.46,5.22
		c19.09,3.32,36.13,11.11,52.75,20.34c14.86,8.25,28.95,17.67,42.07,28.51c8.54,7.06,15.18,15.83,21.7,24.63
		c18.71,25.26,33.89,52.53,45.62,81.69c3.97,9.87,7.67,19.86,10.98,29.96c1.54,4.68,3.1,9.55,2.85,14.62
		c-1.12,22.3,5.33,43.32,10.83,64.5c7.42,28.56,15.1,57.05,21.01,85.99c5.77,28.26,11.73,56.51,16.91,84.85
		c5.3,29.04,12.16,57.76,17.03,86.88c2.41,14.4,6.08,28.58,8.5,42.98c5.72,34,14.32,67.42,19.8,101.47
		c4.06,25.19,9.34,50.19,13.14,75.42c3.01,19.98,5.25,40.08,7.21,60.23c1.56,16.08,2.16,32.44,6.43,48.24
		c2.35,8.69,0.95,17.82,2.89,26.66c3.26,14.9,3.63,30.32,5.05,45.38c1.55,16.47,4.01,32.91,5.42,49.42
		c1.46,17.11-0.26,34.68,5.12,51.36c1.57,4.85-2.08,9.01-0.8,13.62c-4.57,1.92-8.31-0.31-12.02-2.45
		c-10.12-5.84-20.71-10.54-31.82-14.27c-5.6-1.88-10.78-5.14-15.99-8.04c-4.13-2.3-5.52-6.64-6.22-10.85
		c-1.45-8.83-3.55-17.63-2.95-26.69c0.33-5.02-0.94-9.88-1.32-14.81c-1.58-20.49-4.48-40.84-6.4-61.3
		c-1.46-15.47-3.33-30.99-4.73-46.45c-1.32-14.54-4.62-28.79-5.13-43.44c-0.4-11.55-3.24-22.95-4.68-34.47
		c-1.67-13.46-2.77-26.98-4.86-40.42c-4.12-26.5-7.81-53.06-12.4-79.49c-5.27-30.39-11.61-60.56-17.71-90.79
		c-8.26-40.91-16.19-81.88-24.13-122.85c-8.82-45.52-17.66-91.04-28.55-136.13c-4.98-20.63-10.33-41.16-15.62-61.71
		c-1.92-7.48-2.75-15.02-2.54-22.73c0.27-9.77-2.03-19.01-5.45-28.17c-8.06-21.53-17.45-42.45-28.66-62.48
		c-11.24-20.08-24.08-39.05-41.9-54.11c-17.47-14.75-37.78-24.63-58.27-34.28c-11.73-5.52-23.86-6.98-36.71-7.49
		c-31.29-1.23-61.94-6.8-92.13-15.45c-26.49-7.58-53.25-14.43-81.18-14.39c-7.09,0.01-13.58-2.53-19.71-6.19
		c-22.26-13.3-44.6-26.46-66.91-39.68c-1.43-0.85-2.92-1.62-4.22-2.64c-8.67-6.73-8.73-8.11-0.9-16.18c0.23-0.24,0.51-0.44,0.7-0.71
		c11.52-15.99,26.84-26.85,44.35-35.78c19.59-9.99,33.27-26.24,41.04-47.04c3.63-9.72,10.25-17.13,18.23-23.29
		c13.37-10.31,22.63-23.14,26.75-39.68c1.96-7.88,6.81-14.3,11.91-20.5c7.86-9.55,14.61-19.81,19.77-31.1
		c4.88-10.67,7.75-21.63,8.17-33.55c0.48-13.58,2.95-26.88,9.57-39.29c7.94-14.89,10.59-31.4,11.4-48.03
		c0.49-10.12,1.76-19.76,6.13-29.01c2.54-5.37,4.2-11.16,6.26-16.75c5.15-14.02,3.24-27.46-6.36-38.42
		c-10.42-11.9-11.47-25.06-8.76-39.23c4.03-21.13,3.79-42,0.08-63.25c-2.5-14.33-3.17-28.99-6.55-43.25
		c-3.15-13.27-6.66-26.3-14.11-38.04c-7.84-12.35-9.69-26.59-11.98-40.71c-2.32-14.34-2.78-29.03-8.02-42.87
		c-3.62-9.55-9.71-16.83-19.25-20.26c-19.07-6.87-38.59-12.41-58.7-15.24c-11.52-1.62-22.32,2.46-32.82,6.83
		c-12.6,5.25-25.24,10.27-38.94,11.94c-12.53,1.53-23.08-1.5-30.53-12.44c-1.53-2.25-3.03-4.52-3.37-7.15
		c-1.46-11.17-4.74-22.24-4.14-33.53c1.25-23.36-1.88-46.51-3.14-69.71c-0.95-17.45-4.81-34.77-7.81-52.08
		c-1.14-6.57-4.07-12.69-8.57-17.77c-6.41-7.23-12.49-14.7-18.04-22.61c-7.94-11.33-19.57-16.77-32.44-19.84
		c-10.33-2.46-20.75-4.53-31.49-4.75c-9.97-0.21-19.68-2.93-29.55-4.25c-17.45-2.34-35.23-1.7-52.43-6.11
		c-2.84-0.73-5.94-0.68-8.92-0.64c-20.26,0.27-40.44-0.57-60.68,3.33c-11.58,2.23-23.76,2.3-35.4,5.02
		c-9.69,2.26-19.23,5.1-28.3,9.44c-8.97,4.29-15.36,11.68-22.27,18.27c-5.69,5.43-11.98,8.03-19.41,8.99
		c-37.49,4.84-73.36,15.32-107.94,30.53c-39.23,17.25-71.09,43.46-97.26,77.28c-16.56,21.39-29.83,44.83-44.45,67.42
		c-7.36,11.37-10.4,24.38-11.97,37.67c-1.01,8.56-2.25,17.06-2.25,25.77c0.01,18.39-9.01,32.96-21.02,46
		c-4.75,5.15-10.02,9.76-15.66,13.89c-14.59,10.67-20.98,25.58-21.06,43.03c-0.09,21.24-0.69,42.43,2.58,63.7
		c2.46,15.99,0.72,32.46-1.46,48.71c-4.5,33.52-11.31,66.63-17.21,99.9c-2.54,14.32,3.47,25.19,12.16,35.39
		c2.59,3.04,5.2,6.06,7.89,9c6.02,6.57,6.87,13.81,3.98,22.15c-3.36,9.71-5.72,19.72-8.05,29.75c-3.48,14.96-0.96,29,5.24,42.52
		c8.26,18,20.17,33.68,33.58,48.05c19.27,20.66,38.49,41.3,56.68,62.97c33.99,40.49,74.18,73.12,123.65,93.56
		c28.06,11.6,56.75,20.91,86.35,27.52c3.24,0.72,6.49,1.56,9.58,2.76c8.93,3.46,11.88,9.23,9.82,18.76
		c-1.87,8.67-7.19,14.73-14.54,19.35c-23.67,14.86-46.62,30.86-70.81,44.9c-22.71,13.18-45.24,26.7-68.18,39.47
		c-21.28,11.85-44.1,20.12-67.65,26.26c-5.72,1.49-10.38,4.08-14.25,8.53c-7.25,8.34-15.88,14.82-25.27,20.81
		c-12.5,7.98-20.72,20.4-28.9,32.64c-12.24,18.3-20.92,38.58-32.59,57.18c-15.2,24.24-29.37,49.05-41.84,74.81
		c-11.13,23.01-20.99,46.57-29.33,70.73c-14.31,41.42-28.85,82.77-42.68,124.35c-10.9,32.77-23.12,65.04-35,97.44
		c-3.5,9.53-8.64,17.89-15.06,25.63c-4.66,5.62-9.2,11.36-13.59,17.19c-4.64,6.16-8.34,12.88-9.87,20.52
		c-2.3,11.51-8.97,19.66-18.69,25.83c-6.45,4.09-12.94,8.13-18.32,13.77c-6.12,6.42-7.88,13.42-5.19,21.88
		c7.24,22.79,17.77,43.63,35.13,60.53c0.24,0.23,0.48,0.46,0.71,0.7c9.98,10.23,9.84,13.1-0.95,22.3c-3.03,2.58-6.2,5.07-8.87,8
		c-4.13,4.53-4.31,7.54-0.83,12.47c1.7,2.42,3.82,4.71,6.21,6.43c5.93,4.27,11.84,8.71,18.27,12.12c22.39,11.9,35.51,31.3,45,53.89
		c2.57,6.13,5,12.28,6.59,18.73c5.52,22.38,19.25,39.04,36.82,53.08c8.56,6.84,16.96,13.87,25.42,20.83c0.77,0.63,1.52,1.3,2.23,2
		c7.56,7.38,7.54,11.94-1.13,17.93c-10.74,7.42-20.61,15.66-29.03,25.67c-4.74,5.64-8.42,11.97-12.56,18
		c-5.84,8.51-8.24,8.88-16.79,2.93C671.91,2109.22,670.59,2107.62,668.45,2107.43z"/>
</g>
</svg>
