<?xml version="1.0" encoding="utf-8"?>
<!-- Generator: Adobe Illustrator 24.1.3, SVG Export Plug-In . SVG Version: 6.00 Build 0)  -->
<svg version="1.1" id="Camada_1" xmlns="http://www.w3.org/2000/svg" xmlns:xlink="http://www.w3.org/1999/xlink" x="0px" y="0px"
	 viewBox="0 0 750 1062.6" style="enable-background:new 0 0 750 1062.6;" xml:space="preserve">
<style type="text/css">
	.st0{fill:#004B75;}
	.st1{fill:#014B75;}
	.st2{fill:#024C74;}
	.st3{fill:#014C75;}
	.st4{fill:#CEAC2F;}
	.st5{fill:#C2A733;}
</style>
<g>
	<g id="Sky">
		<path class="st0" d="M727.48,545.58c-0.37-1.23-0.94-2.43-0.91-3.76c-2.3-6.29-3.96-12.77-5.86-19.18
			c-32.7-110.35-65.37-220.7-98.05-331.06c-2.24-7.57-4.43-15.15-6.65-22.72c-0.65-2.21-0.71-2.31-2.89-1.63
			c-4.73,1.47-9.55,1.98-14.48,1.85c-4.5-0.12-9-0.09-13.5,0c-3.22,0.06-6.37-0.3-9.49-1.05c-2.22-0.53-2.28-0.52-2.78,1.65
			c-1.76,7.69-3.48,15.4-5.22,23.1c-10.92,48.34-21.83,96.68-32.77,145.01c-10.48,46.28-21,92.56-31.51,138.84
			c-9.69,42.67-19.38,85.34-29.06,128.02c-8.9,39.27-17.76,78.54-26.68,117.8c-10.87,47.83-21.78,95.66-32.66,143.49
			c-11.74,51.63-23.46,103.27-35.19,154.91c-2.9,12.76-5.81,25.52-8.69,38.29c-0.25,1.13-0.83,2.26-0.3,3.47
			c126.4,0,252.8,0,379.2,0c0-147.11,0-294.05,0-441c-2.03-6.88-4.05-13.76-6.09-20.63C738.43,582.51,732.94,564.04,727.48,545.58z"
			/>
		<path class="st0" d="M486.15,429.89c25.62-83.05,51.29-166.1,76.91-249.15c1.35-4.38,2.99-8.69,3.77-13.24
			c0.21-1.24,0.18-2.07-1.19-2.59c-4.97-1.87-9.72-4.19-14.17-7.1c-0.73-0.48-1.27-0.4-1.7,0.37c-0.39,0.7-0.8,1.38-1.2,2.08
			c-6.52,11.47-13.05,22.93-19.56,34.41c-98.11,173.01-197.04,345.55-294.74,518.79c-59.66,105.78-119.97,211.19-179.98,316.77
			c-6.12,10.77-12.19,21.58-18.28,32.37c85,0,170,0,255,0c0.15-0.48,0.31-0.95,0.46-1.43c36.28-117.62,72.56-235.24,108.84-352.86
			C428.92,615.5,457.52,522.69,486.15,429.89z"/>
		<path class="st0" d="M544.14,158.8c0.53-0.84,0.93-1.76,1.42-2.62c0.77-1.37,0.42-2.32-0.81-3.31c-3.19-2.57-6.16-5.39-8.88-8.48
			c-1.67-1.9-1.73-1.85-3.72-0.01c-30.14,27.94-60.28,55.87-90.41,83.81c-39.08,36.23-78.16,72.46-117.25,108.69
			c-26.62,24.67-53.24,49.35-79.87,74.01c-35.73,33.08-71.45,66.17-107.2,99.23c-25.11,23.21-50.27,46.37-75.41,69.55
			c-19.85,18.3-39.7,36.59-59.57,54.87C1.76,635.18,1.22,636.2,0,636c0,129.6,0,259.2,0,388.8c1.34-0.37,1.69-1.64,2.3-2.63
			c80.88-128.86,161.75-257.73,242.62-386.6C344.66,476.65,444.41,317.73,544.14,158.8z"/>
		<path class="st0" d="M2.98,542.24c59.5-45.8,118.97-91.63,178.47-137.44c56.32-43.37,112.65-86.72,169-130.05
			c28.45-21.87,56.94-43.69,85.42-65.52c21.41-16.41,42.85-32.79,64.27-49.19c9.12-6.98,18.25-13.96,27.37-20.95
			c2.32-1.78,2.37-1.83,0.88-4.14c-3.8-5.93-6.64-12.28-8.71-19c-0.17-0.56-0.22-1.2-1.05-1.44c-1.92,1.28-3.98,2.47-6.19,3.42
			c-7.43,3.22-14.82,6.52-22.23,9.78c-162.47,71.7-324.94,143.41-487.4,215.11c-0.91,0.4-1.77,0.94-2.81,0.97C0,410.4,0,477,0,543.6
			C1.47,544.22,2.14,542.89,2.98,542.24z"/>
		<path class="st1" d="M2.9,278.41c7.31-2.4,14.62-4.8,21.92-7.21c159.61-52.57,319.23-105.15,478.84-157.72
			c4.17-1.38,8.32-2.83,12.53-4.1c1.5-0.45,1.98-1.19,1.53-2.61c-0.65-2.06-0.31-4.17-0.37-6.26c-0.08-3.07-0.43-3.41-3.57-3.07
			c-2.48,0.27-4.96,0.62-7.44,0.92c-17.47,2.08-34.93,4.14-52.4,6.23c-15.88,1.9-31.75,3.84-47.62,5.75
			c-15.88,1.9-31.76,3.76-47.63,5.67c-17.46,2.09-34.92,4.23-52.39,6.32c-17.46,2.09-34.93,4.13-52.4,6.23
			c-20.84,2.5-41.67,5.04-62.51,7.54c-22.53,2.7-45.05,5.4-67.58,8.03c-20.64,2.41-41.25,5.14-61.93,7.22
			c-14.81,1.5-29.55,3.7-44.32,5.56C11.71,157.65,5.85,158.31,0,159c0,40,0,80,0,120C1.05,279.22,1.96,278.72,2.9,278.41z"/>
		<path class="st2" d="M513.2,92.04c0.9,0,1.8-0.04,2.7-0.02c1.02,0.02,1.44-0.49,1.43-1.46c-0.01-2.7,0.02-5.4-0.02-8.1
			c-0.02-1.57-0.91-2.31-2.46-2.41c-1.59-0.11-3.18-0.3-4.77-0.48c-15.29-1.73-30.59-3.46-45.88-5.19
			c-15.1-1.71-30.19-3.42-45.29-5.12c-13.31-1.5-26.62-2.98-39.93-4.48s-26.62-3-39.92-4.5c-13.21-1.49-26.42-2.98-39.63-4.47
			c-13.31-1.5-26.62-2.99-39.92-4.48c-13.41-1.51-26.81-3.03-40.22-4.54c-13.21-1.49-26.42-2.97-39.63-4.46
			c-13.41-1.51-26.81-3.03-40.22-4.54c-13.31-1.5-26.62-2.99-39.92-4.5c-13.21-1.49-26.42-2.99-39.63-4.48
			c-13.51-1.52-27.01-3.06-40.52-4.56C12.92,23.54,6.46,22.88,0,22.2C0,45.6,0,69,0,92.4c1.5-0.05,2.99-0.14,4.49-0.15
			C174.06,92.16,343.63,92.46,513.2,92.04z"/>
		<path class="st1" d="M708.21,221.74c-20.61-23.27-41.22-46.55-61.83-69.82c-1.82-2.06-1.85-2.06-3.89-0.27
			c-4.91,4.32-10.37,7.79-16.25,10.62c-3.26,1.57-3.25,1.58-1.74,4.97c29.43,65.75,58.86,131.5,88.29,197.24
			c12.4,27.71,24.81,55.42,37.21,83.12c0-59.6,0-119.2,0-178.8c-0.87-0.95-1.74-1.89-2.6-2.86
			C734.33,251.21,721.27,236.48,708.21,221.74z"/>
		<path class="st3" d="M117.66,4.18c24.21,4.3,48.41,8.59,72.62,12.9c27.55,4.9,55.1,9.81,82.65,14.72
			c25.39,4.52,50.77,9.03,76.16,13.54c25.29,4.49,50.57,8.99,75.86,13.48c23.02,4.09,46.05,8.19,69.07,12.28
			c7.48,1.33,14.95,2.67,22.44,3.96c2.08,0.36,2.1,0.28,2.64-1.69c0.77-2.79,1.62-5.55,2.76-8.23c1.13-2.64,1.04-2.76-1.7-3.89
			c-0.37-0.15-0.73-0.33-1.1-0.48c-16.7-6.39-33.41-12.75-50.1-19.18c-34.69-13.37-69.36-26.78-104.03-40.18
			c-0.9-0.35-1.97-0.43-2.53-1.41C273.8,0,185.2,0,96.6,0c0.83,0.92,2.03,0.77,3.06,0.96C105.65,2.09,111.66,3.11,117.66,4.18z"/>
		<path class="st1" d="M747.69,137.47c-14.75-4.72-29.5-9.44-44.25-14.17c-11.23-3.6-22.45-7.2-33.68-10.79
			c-2.54-0.81-2.65-0.8-3.25,1.73c-0.85,3.62-2.25,7.03-3.65,10.44c-2.3,5.58-5.57,10.59-9.19,15.38c-1.6,2.12-1.58,2.13,0.47,3.96
			c0.22,0.2,0.44,0.4,0.67,0.6c23.38,20.5,46.76,40.99,70.15,61.48c8.34,7.31,16.7,14.6,25.05,21.89c0-30,0-60,0-90
			C749.16,138.14,748.44,137.71,747.69,137.47z"/>
		<path class="st1" d="M663.6,0c-0.05,1.15-1.03,1.66-1.68,2.36c-7.51,8.03-15.06,16.03-22.58,24.06c-1.14,1.22-2.45,2.31-3.3,3.88
			c0.56,0.45,1.01,0.83,1.49,1.19c9.51,7.07,17.32,15.64,23,26.08c1.09,2,0.91,2.43,3.65,1.34c27.48-10.92,54.96-21.85,82.45-32.75
			c1.08-0.43,2.08-1.23,3.37-0.96c0-8.38,0-16.75,0-25.2C721.2,0,692.4,0,663.6,0z"/>
		<path class="st1" d="M746.75,60.3c-18.7,3.3-37.39,6.61-56.09,9.91c-7.09,1.25-14.18,2.47-21.26,3.74c-2.3,0.41-2.3,0.45-1.9,2.66
			c0.58,3.25,0.88,6.52,0.82,9.84c-0.08,4.2-0.03,8.4-0.01,12.6c0.01,2.59,0.03,2.6,2.52,3.02c25.41,4.35,50.83,8.69,76.25,13.01
			c0.96,0.16,1.95,0.51,2.95,0.13c0-18.4,0-36.8,0-55.2C748.89,59.77,747.82,60.11,746.75,60.3z"/>
		<path class="st3" d="M429.3,1.82c10.62,5.96,21.25,11.92,31.88,17.86c20.82,11.65,41.65,23.3,62.47,34.95
			c2.51,1.41,2.61,1.44,3.72-0.6c2.86-5.23,6.79-9.6,10.89-13.84c2.15-2.23,4.45-4.3,6.83-6.28c2.72-2.26,2.84-3.81,0.68-6.44
			c-6.79-8.26-13.59-16.49-20.35-24.77c-0.65-0.8-1.76-1.4-1.62-2.71c-32.4,0-64.8,0-97.2,0C427.29,0.93,428.36,1.29,429.3,1.82z"/>
		<path class="st2" d="M565.29,19.46c0.96,2.38,1,2.36,3.43,1.58c5.92-1.9,11.91-3.26,18.21-2.91c3.39,0.19,6.79,0.09,10.19,0.02
			c5.81-0.11,11.55,0.1,17.12,2.11c2.25,0.81,2.37,0.63,3.18-1.65C619.64,12.41,621.81,6.2,624,0c-22,0-44,0-66,0
			c-0.33,0.5-0.07,0.93,0.12,1.39C560.51,7.41,562.88,13.44,565.29,19.46z"/>
	</g>
	<g id="Shine">
		<path class="st4" d="M669.39,73.94c7.08-1.26,14.17-2.48,21.26-3.74c18.7-3.3,37.4-6.6,56.09-9.91c1.08-0.19,2.14-0.53,3.25-0.3
			c0-11.6,0-23.2,0-34.8c-1.29-0.27-2.3,0.53-3.37,0.96c-27.49,10.9-54.97,21.83-82.45,32.75c-2.74,1.09-2.56,0.66-3.65-1.34
			c-5.67-10.44-13.49-19.01-23-26.08c-0.48-0.35-0.93-0.74-1.49-1.19c0.85-1.57,2.16-2.66,3.3-3.88
			c7.52-8.03,15.06-16.03,22.58-24.06c0.65-0.7,1.64-1.21,1.68-2.36c-13.2,0-26.4,0-39.6,0c-2.19,6.2-4.36,12.41-6.58,18.61
			c-0.81,2.28-0.93,2.46-3.18,1.65c-5.57-2.01-11.31-2.22-17.12-2.11c-3.39,0.06-6.8,0.17-10.19-0.02
			c-6.3-0.35-12.29,1.01-18.21,2.91c-2.43,0.78-2.47,0.81-3.43-1.58c-2.41-6.01-4.78-12.05-7.17-18.07C557.93,0.93,557.67,0.5,558,0
			c-11.4,0-22.8,0-34.2,0c-0.14,1.3,0.97,1.9,1.62,2.71c6.76,8.28,13.56,16.52,20.35,24.77c2.16,2.63,2.04,4.17-0.68,6.44
			c-2.38,1.98-4.68,4.06-6.83,6.28c-4.1,4.24-8.03,8.61-10.89,13.84c-1.11,2.04-1.21,2-3.72,0.6
			c-20.83-11.65-41.65-23.3-62.47-34.95c-10.63-5.95-21.26-11.9-31.88-17.86c-0.95-0.53-2.02-0.89-2.7-1.82c-21.4,0-42.8,0-64.2,0
			c0.56,0.98,1.64,1.06,2.53,1.41c34.67,13.41,69.34,26.81,104.03,40.18c16.68,6.43,33.4,12.79,50.1,19.18
			c0.37,0.14,0.73,0.32,1.1,0.48c2.74,1.13,2.82,1.25,1.7,3.89c-1.14,2.67-1.99,5.43-2.76,8.23c-0.54,1.97-0.57,2.04-2.64,1.69
			c-7.49-1.29-14.96-2.63-22.44-3.96c-23.02-4.09-46.05-8.19-69.07-12.28c-25.29-4.5-50.57-8.99-75.86-13.48
			c-25.39-4.51-50.77-9.02-76.16-13.54c-27.55-4.9-55.1-9.82-82.65-14.72c-24.2-4.3-48.41-8.6-72.62-12.9
			c-6-1.07-12.01-2.09-18-3.22C98.63,0.77,97.43,0.92,96.6,0C64.4,0,32.2,0,0,0c0,7.4,0,14.8,0,22.2
			c6.46,0.68,12.92,1.34,19.37,2.06c13.51,1.5,27.01,3.04,40.52,4.56c13.21,1.49,26.42,2.99,39.63,4.48c13.31,1.5,26.62,3,39.92,4.5
			c13.41,1.51,26.81,3.03,40.22,4.54c13.21,1.49,26.42,2.97,39.63,4.46c13.41,1.51,26.81,3.03,40.22,4.54
			c13.31,1.5,26.62,2.99,39.92,4.48c13.21,1.49,26.42,2.98,39.63,4.47c13.31,1.5,26.62,3,39.92,4.5s26.62,2.98,39.93,4.48
			c15.1,1.7,30.19,3.41,45.29,5.12c15.29,1.73,30.59,3.46,45.88,5.19c1.59,0.18,3.18,0.37,4.77,0.48c1.55,0.11,2.44,0.84,2.46,2.41
			c0.03,2.7,0.01,5.4,0.02,8.1c0,0.97-0.42,1.48-1.43,1.46c-0.9-0.02-1.8,0.02-2.7,0.02c-169.57,0.42-339.14,0.11-508.71,0.21
			c-1.5,0-2.99,0.09-4.49,0.15c0,22.2,0,44.4,0,66.6c5.85-0.69,11.71-1.35,17.56-2.08c14.77-1.86,29.51-4.07,44.32-5.56
			c20.68-2.09,41.29-4.82,61.93-7.22c22.53-2.63,45.06-5.33,67.58-8.03c20.84-2.5,41.67-5.04,62.51-7.54
			c17.46-2.09,34.93-4.14,52.4-6.23c17.46-2.09,34.92-4.23,52.39-6.32c15.88-1.9,31.76-3.77,47.63-5.67
			c15.88-1.9,31.75-3.85,47.62-5.75c17.46-2.09,34.93-4.15,52.4-6.23c2.48-0.3,4.96-0.65,7.44-0.92c3.14-0.34,3.49,0,3.57,3.07
			c0.06,2.09-0.28,4.2,0.37,6.26c0.45,1.42-0.04,2.15-1.53,2.61c-4.21,1.27-8.36,2.73-12.53,4.1
			C344.05,166.06,184.43,218.63,24.82,271.2c-7.31,2.41-14.61,4.81-21.92,7.21c-0.94,0.31-1.85,0.81-2.9,0.59c0,21.6,0,43.2,0,64.8
			c1.04-0.02,1.9-0.57,2.81-0.97c162.47-71.7,324.94-143.4,487.4-215.11c7.41-3.27,14.8-6.56,22.23-9.78
			c2.21-0.96,4.27-2.14,6.19-3.42c0.83,0.24,0.88,0.88,1.05,1.44c2.07,6.71,4.91,13.07,8.71,19c1.48,2.32,1.44,2.37-0.88,4.14
			c-9.12,6.99-18.24,13.96-27.37,20.95c-21.43,16.39-42.86,32.78-64.27,49.19c-28.48,21.83-56.97,43.64-85.42,65.52
			c-56.35,43.33-112.68,86.68-169,130.05C121.95,450.61,62.48,496.45,2.98,542.24c-0.84,0.65-1.5,1.98-2.98,1.36
			c0,30.8,0,61.6,0,92.4c1.22,0.2,1.76-0.82,2.45-1.46c19.87-18.28,39.72-36.57,59.57-54.87c25.14-23.18,50.3-46.34,75.41-69.55
			c35.75-33.05,71.48-66.14,107.2-99.23c26.63-24.66,53.25-49.34,79.87-74.01c39.08-36.23,78.16-72.46,117.25-108.69
			c30.14-27.94,60.27-55.87,90.41-83.81c1.99-1.84,2.05-1.89,3.72,0.01c2.72,3.09,5.68,5.91,8.88,8.48
			c1.23,0.99,1.58,1.94,0.81,3.31c-0.49,0.87-0.89,1.78-1.42,2.62c-99.73,158.93-199.48,317.85-299.22,476.77
			C164.05,764.44,83.19,893.31,2.3,1022.17c-0.62,0.98-0.96,2.26-2.3,2.63c0,12.6,0,25.2,0,37.8c12.1,0,24.05,0,36,0
			c6.09-10.79,12.16-21.59,18.28-32.37c60.01-105.58,120.32-210.99,179.98-316.77C331.97,540.23,430.89,367.68,529,194.67
			c6.51-11.48,13.04-22.94,19.56-34.41c0.4-0.7,0.81-1.38,1.2-2.08c0.43-0.78,0.97-0.85,1.7-0.37c4.45,2.91,9.2,5.23,14.17,7.1
			c1.37,0.51,1.4,1.35,1.19,2.59c-0.78,4.56-2.41,8.86-3.77,13.24c-25.61,83.06-51.28,166.1-76.91,249.15
			c-28.63,92.8-57.23,185.61-85.85,278.42c-36.27,117.62-72.56,235.24-108.84,352.86c-0.15,0.48-0.31,0.95-0.46,1.43
			c26.6,0,53.2,0,79.8,0c-0.53-1.21,0.05-2.34,0.3-3.47c2.88-12.77,5.79-25.53,8.69-38.29c11.73-51.64,23.45-103.27,35.19-154.91
			c10.88-47.83,21.79-95.66,32.66-143.49c8.92-39.26,17.78-78.54,26.68-117.8c9.68-42.68,19.37-85.35,29.06-128.02
			c10.5-46.28,21.02-92.55,31.51-138.84c10.94-48.33,21.85-96.67,32.77-145.01c1.74-7.7,3.46-15.4,5.22-23.1
			c0.5-2.17,0.56-2.19,2.78-1.65c3.12,0.75,6.27,1.11,9.49,1.05c4.5-0.09,9-0.12,13.5,0c4.94,0.13,9.76-0.38,14.48-1.85
			c2.18-0.68,2.24-0.58,2.89,1.63c2.22,7.57,4.41,15.15,6.65,22.72C655.33,301.93,688,412.29,720.7,522.64
			c1.9,6.41,3.56,12.89,5.86,19.18c3.61-0.16,6.45,1.94,9.19,3.69c3.83,2.45,7.86,4.54,11.71,6.95c0.77,0.48,1.64,0.67,2.54,0.75
			c0-35.2,0-70.4,0-105.6c-12.4-27.71-24.81-55.42-37.21-83.12c-29.43-65.75-58.86-131.5-88.29-197.24
			c-1.52-3.39-1.52-3.4,1.74-4.97c5.88-2.83,11.34-6.3,16.25-10.62c2.04-1.8,2.07-1.79,3.89,0.27
			c20.61,23.27,41.22,46.55,61.83,69.82c13.06,14.74,26.13,29.47,39.19,44.2c0.85,0.96,1.73,1.9,2.6,2.86c0-13.6,0-27.2,0-40.8
			c-8.35-7.3-16.71-14.59-25.05-21.89c-23.39-20.49-46.76-40.99-70.15-61.48c-0.23-0.2-0.45-0.4-0.67-0.6
			c-2.05-1.83-2.07-1.84-0.47-3.96c3.63-4.79,6.89-9.8,9.19-15.38c1.41-3.41,2.8-6.83,3.65-10.44c0.6-2.53,0.7-2.54,3.25-1.73
			c11.23,3.59,22.46,7.19,33.68,10.79c14.75,4.73,29.5,9.45,44.25,14.17c0.75,0.24,1.47,0.67,2.31,0.53c0-7.6,0-15.2,0-22.8
			c-1,0.39-1.99,0.04-2.95-0.13c-25.42-4.32-50.83-8.67-76.25-13.01c-2.49-0.43-2.51-0.44-2.52-3.02c-0.02-4.2-0.07-8.4,0.01-12.6
			c0.07-3.32-0.24-6.58-0.82-9.84C667.1,74.39,667.1,74.35,669.39,73.94z"/>
		<path class="st5" d="M735.75,545.51c-2.74-1.75-5.58-3.85-9.19-3.69c-0.03,1.33,0.55,2.53,0.91,3.76
			c5.46,18.47,10.95,36.93,16.43,55.39c2.04,6.87,4.06,13.75,6.09,20.63c0-22.8,0-45.6,0-68.4c-0.9-0.08-1.77-0.27-2.54-0.75
			C743.62,550.04,739.58,547.96,735.75,545.51z"/>
	</g>
</g>
</svg>
